<svg version="1.1" viewBox="0.0 0.0 678.6587926509186 280.249343832021" fill="none" stroke="none" stroke-linecap="square" stroke-miterlimit="10" xmlns:xlink="http://www.w3.org/1999/xlink" xmlns="http://www.w3.org/2000/svg"><clipPath id="p.0"><path d="m0 0l678.6588 0l0 280.24933l-678.6588 0l0 -280.24933z" clip-rule="nonzero"/></clipPath><g clip-path="url(#p.0)"><path fill="#000000" fill-opacity="0.0" d="m0 0l678.6588 0l0 280.24933l-678.6588 0z" fill-rule="evenodd"/><path fill="#cfe2f3" d="m233.2974 55.075096l0 0c0 -2.864399 2.3220673 -5.186455 5.1864624 -5.186455l37.942047 0c1.3755493 0 2.6947327 0.5464287 3.667389 1.5190773c0.97262573 0.9726486 1.5190735 2.2918434 1.5190735 3.6673775l0 20.745201c0 2.8644028 -2.322052 5.186455 -5.1864624 5.186455l-37.942047 0c-2.8643951 0 -5.1864624 -2.322052 -5.1864624 -5.186455z" fill-rule="evenodd"/><path stroke="#666666" stroke-width="1.0" stroke-linejoin="round" stroke-linecap="butt" d="m233.2974 55.075096l0 0c0 -2.864399 2.3220673 -5.186455 5.1864624 -5.186455l37.942047 0c1.3755493 0 2.6947327 0.5464287 3.667389 1.5190773c0.97262573 0.9726486 1.5190735 2.2918434 1.5190735 3.6673775l0 20.745201c0 2.8644028 -2.322052 5.186455 -5.1864624 5.186455l-37.942047 0c-2.8643951 0 -5.1864624 -2.322052 -5.1864624 -5.186455z" fill-rule="evenodd"/><path fill="#000000" d="m253.17662 68.43019l-1.40625 1.375l0 2.5625l-2.90625 0l0 -13.843746l2.90625 0l0 7.843746l4.2499847 -4.031246l3.484375 0l-4.1874847 4.249996l4.5468597 5.78125l-3.515625 0l-3.1718597 -3.9375zm12.665146 -9.124996l0 13.062496l-3.015625 0l0 -10.640621l-2.625 0l0 -2.421875l5.640625 0z" fill-rule="nonzero"/><path fill="#ff9900" d="m233.29659 83.4316l0 0c0 -1.3481216 1.0928802 -2.4409943 2.4409943 -2.4409943l43.432983 0c0.6473694 0 1.2682495 0.25717163 1.7260437 0.71495056c0.45776367 0.4577713 0.7149353 1.0786514 0.7149353 1.7260437l0 9.7636795c0 1.3481216 -1.092865 2.4409943 -2.440979 2.4409943l-43.432983 0c-1.348114 0 -2.4409943 -1.0928726 -2.4409943 -2.4409943z" fill-rule="evenodd"/><path stroke="#000000" stroke-width="1.0" stroke-linejoin="round" stroke-linecap="butt" d="m233.29659 83.4316l0 0c0 -1.3481216 1.0928802 -2.4409943 2.4409943 -2.4409943l43.432983 0c0.6473694 0 1.2682495 0.25717163 1.7260437 0.71495056c0.45776367 0.4577713 0.7149353 1.0786514 0.7149353 1.7260437l0 9.7636795c0 1.3481216 -1.092865 2.4409943 -2.440979 2.4409943l-43.432983 0c-1.348114 0 -2.4409943 -1.0928726 -2.4409943 -2.4409943z" fill-rule="evenodd"/><path fill="#cfe2f3" d="m281.61096 55.075096l0 0c0 -2.864399 2.3220825 -5.186455 5.1864624 -5.186455l37.942047 0c1.3755493 0 2.6947327 0.5464287 3.667389 1.5190773c0.97265625 0.9726486 1.5190735 2.2918434 1.5190735 3.6673775l0 20.745201c0 2.8644028 -2.322052 5.186455 -5.1864624 5.186455l-37.942047 0c-2.86438 0 -5.1864624 -2.322052 -5.1864624 -5.186455z" fill-rule="evenodd"/><path stroke="#666666" stroke-width="1.0" stroke-linejoin="round" stroke-linecap="butt" d="m281.61096 55.075096l0 0c0 -2.864399 2.3220825 -5.186455 5.1864624 -5.186455l37.942047 0c1.3755493 0 2.6947327 0.5464287 3.667389 1.5190773c0.97265625 0.9726486 1.5190735 2.2918434 1.5190735 3.6673775l0 20.745201c0 2.8644028 -2.322052 5.186455 -5.1864624 5.186455l-37.942047 0c-2.86438 0 -5.1864624 -2.322052 -5.1864624 -5.186455z" fill-rule="evenodd"/><path fill="#000000" d="m299.41946 68.43019l-1.40625 1.375l0 2.5625l-2.90625 0l0 -13.843746l2.90625 0l0 7.843746l4.25 -4.031246l3.484375 0l-4.1875 4.249996l4.546875 5.78125l-3.515625 0l-3.171875 -3.9375zm13.48584 -4.25q1.25 0 2.265625 0.5q1.03125 0.5 1.625 1.4375q0.609375 0.921875 0.609375 2.125q0 1.3125 -0.65625 2.296875q-0.65625 0.984375 -1.78125 1.515625q-1.125 0.53125 -2.515625 0.53125q-2.734375 0 -4.28125 -1.671875q-1.546875 -1.6875 -1.546875 -4.796875q0 -2.2187462 0.828125 -3.7968712q0.84375 -1.59375 2.34375 -2.40625q1.5 -0.828125 3.484375 -0.828125q1.046875 0 2.0 0.234375q0.96875 0.234375 1.640625 0.65625l-1.125 2.21875q-0.96875 -0.65625 -2.4375 -0.65625q-1.671875 0 -2.640625 0.984375q-0.96875 0.96875 -1.046875 2.8124962q1.15625 -1.15625 3.234375 -1.15625zm-0.609375 6.15625q0.96875 0 1.5625 -0.515625q0.609375 -0.53125 0.609375 -1.421875q0 -0.90625 -0.609375 -1.4375q-0.59375 -0.53125 -1.609375 -0.53125q-0.984375 0 -1.625 0.5625q-0.625 0.546875 -0.625 1.40625q0 0.859375 0.609375 1.40625q0.609375 0.53125 1.6875 0.53125z" fill-rule="nonzero"/><path fill="#ff9900" d="m281.61154 83.4316l0 0c0 -1.3481216 1.092865 -2.4409943 2.4410095 -2.4409943l43.432953 0c0.6473999 0 1.26828 0.25717163 1.7260437 0.71495056c0.4577942 0.4577713 0.7149658 1.0786514 0.7149658 1.7260437l0 9.7636795c0 1.3481216 -1.092865 2.4409943 -2.4410095 2.4409943l-43.432953 0c-1.3481445 0 -2.4410095 -1.0928726 -2.4410095 -2.4409943z" fill-rule="evenodd"/><path stroke="#000000" stroke-width="1.0" stroke-linejoin="round" stroke-linecap="butt" d="m281.61154 83.4316l0 0c0 -1.3481216 1.092865 -2.4409943 2.4410095 -2.4409943l43.432953 0c0.6473999 0 1.26828 0.25717163 1.7260437 0.71495056c0.4577942 0.4577713 0.7149658 1.0786514 0.7149658 1.7260437l0 9.7636795c0 1.3481216 -1.092865 2.4409943 -2.4410095 2.4409943l-43.432953 0c-1.3481445 0 -2.4410095 -1.0928726 -2.4410095 -2.4409943z" fill-rule="evenodd"/><path fill="#cfe2f3" d="m8.538363 198.58867l0 0c0 -2.8643951 2.3220549 -5.186447 5.186455 -5.186447l37.94205 0c1.3755302 0 2.6947289 0.5464325 3.6673775 1.5190735c0.9726486 0.97265625 1.5190773 2.2918396 1.5190773 3.6673737l0 20.745209c0 2.8643951 -2.3220558 5.186447 -5.186455 5.186447l-37.94205 0c-2.8644 0 -5.186455 -2.322052 -5.186455 -5.186447z" fill-rule="evenodd"/><path stroke="#666666" stroke-width="1.0" stroke-linejoin="round" stroke-linecap="butt" d="m8.538363 198.58867l0 0c0 -2.8643951 2.3220549 -5.186447 5.186455 -5.186447l37.94205 0c1.3755302 0 2.6947289 0.5464325 3.6673775 1.5190735c0.9726486 0.97265625 1.5190773 2.2918396 1.5190773 3.6673737l0 20.745209c0 2.8643951 -2.3220558 5.186447 -5.186455 5.186447l-37.94205 0c-2.8644 0 -5.186455 -2.322052 -5.186455 -5.186447z" fill-rule="evenodd"/><path fill="#000000" d="m28.417578 211.94377l-1.40625 1.375l0 2.5625l-2.906252 0l0 -13.84375l2.906252 0l0 7.84375l4.25 -4.03125l3.484373 0l-4.187498 4.25l4.546873 5.78125l-3.515623 0l-3.171875 -3.9375zm12.665159 -9.125l0 13.0625l-3.015625 0l0 -10.640625l-2.625 0l0 -2.421875l5.640625 0z" fill-rule="nonzero"/><path fill="#93c47d" d="m8.537488 229.69684l0 0c0 -2.8644104 2.3220549 -5.1864624 5.186455 -5.1864624l37.94205 0c1.375534 0 2.6947289 0.5464325 3.6673775 1.5190735c0.9726486 0.97265625 1.5190773 2.2918549 1.5190773 3.667389l0 20.745193c0 2.8643951 -2.3220558 5.1864624 -5.186455 5.1864624l-37.94205 0c-2.8644 0 -5.186455 -2.3220673 -5.186455 -5.1864624z" fill-rule="evenodd"/><path stroke="#000000" stroke-width="1.0" stroke-linejoin="round" stroke-linecap="butt" d="m8.537488 229.69684l0 0c0 -2.8644104 2.3220549 -5.1864624 5.186455 -5.1864624l37.94205 0c1.375534 0 2.6947289 0.5464325 3.6673775 1.5190735c0.9726486 0.97265625 1.5190773 2.2918549 1.5190773 3.667389l0 20.745193c0 2.8643951 -2.3220558 5.1864624 -5.186455 5.1864624l-37.94205 0c-2.8644 0 -5.186455 -2.3220673 -5.186455 -5.1864624z" fill-rule="evenodd"/><path fill="#000000" d="m34.58596 236.95818l-4.234375 10.03125l-3.015625 0l-4.218752 -10.03125l3.015627 0l2.78125 6.828125l2.859375 -6.828125l2.8125 0zm5.982895 -3.03125l0 13.0625l-3.015625 0l0 -10.640625l-2.625 0l0 -2.421875l5.640625 0z" fill-rule="nonzero"/><path fill="#cfe2f3" d="m56.838448 198.97491l0 0c0 -2.8644104 2.3220558 -5.1864624 5.1864586 -5.1864624l37.94205 0c1.375534 0 2.694725 0.5464325 3.6673737 1.5190735c0.9726486 0.97265625 1.5190811 2.2918549 1.5190811 3.667389l0 20.745193c0 2.8643951 -2.3220596 5.1864624 -5.186455 5.1864624l-37.94205 0c-2.8644028 0 -5.1864586 -2.3220673 -5.1864586 -5.1864624z" fill-rule="evenodd"/><path stroke="#000000" stroke-width="1.0" stroke-linejoin="round" stroke-linecap="butt" d="m56.838448 198.97491l0 0c0 -2.8644104 2.3220558 -5.1864624 5.1864586 -5.1864624l37.94205 0c1.375534 0 2.694725 0.5464325 3.6673737 1.5190735c0.9726486 0.97265625 1.5190811 2.2918549 1.5190811 3.667389l0 20.745193c0 2.8643951 -2.3220596 5.1864624 -5.186455 5.1864624l-37.94205 0c-2.8644028 0 -5.1864586 -2.3220673 -5.1864586 -5.1864624z" fill-rule="evenodd"/><path fill="#000000" d="m74.77736 212.33l-1.4062576 1.375l0 2.5625l-2.90625 0l0 -13.84375l2.90625 0l0 7.84375l4.2500076 -4.03125l3.484375 0l-4.1875 4.25l4.546875 5.78125l-3.515625 0l-3.171875 -3.9375zm17.570587 1.46875l0 2.46875l-9.875 0l0 -1.953125l5.046875 -4.765625q0.796875 -0.765625 1.078125 -1.3125q0.28125 -0.546875 0.28125 -1.09375q0 -0.78125 -0.53125 -1.203125q-0.53125 -0.421875 -1.5625 -0.421875q-0.859375 0 -1.546875 0.328125q-0.6875 0.328125 -1.15625 0.984375l-2.203125 -1.421875q0.765625 -1.140625 2.109375 -1.78125q1.34375 -0.640625 3.078125 -0.640625q1.453125 0 2.546875 0.484375q1.09375 0.46875 1.703125 1.34375q0.609375 0.859375 0.609375 2.03125q0 1.0625 -0.453125 2.0q-0.453125 0.921875 -1.734375 2.125l-3.0 2.828125l5.609375 0z" fill-rule="nonzero"/><path fill="#93c47d" d="m56.837574 230.47076l0 0c0 -2.8643951 2.3220558 -5.186447 5.186455 -5.186447l37.94205 0c1.375534 0 2.694725 0.5464325 3.6673737 1.5190735c0.97265625 0.97265625 1.5190811 2.2918396 1.5190811 3.6673737l0 20.745209c0 2.8643951 -2.322052 5.1864624 -5.186455 5.1864624l-37.94205 0c-2.864399 0 -5.186455 -2.3220673 -5.186455 -5.1864624z" fill-rule="evenodd"/><path stroke="#000000" stroke-width="1.0" stroke-linejoin="round" stroke-linecap="butt" d="m56.837574 230.47076l0 0c0 -2.8643951 2.3220558 -5.186447 5.186455 -5.186447l37.94205 0c1.375534 0 2.694725 0.5464325 3.6673737 1.5190735c0.97265625 0.97265625 1.5190811 2.2918396 1.5190811 3.6673737l0 20.745209c0 2.8643951 -2.322052 5.1864624 -5.186455 5.1864624l-37.94205 0c-2.864399 0 -5.186455 -2.3220673 -5.186455 -5.1864624z" fill-rule="evenodd"/><path fill="#000000" d="m81.03908 237.73212l-4.234375 10.03125l-3.015625 0l-4.21875 -10.03125l3.015625 0l2.78125 6.828125l2.859375 -6.828125l2.8125 0zm10.701645 7.5625l0 2.46875l-9.875 0l0 -1.953125l5.046875 -4.765625q0.796875 -0.765625 1.078125 -1.3125q0.28125 -0.546875 0.28125 -1.09375q0 -0.78125 -0.53125 -1.203125q-0.53125 -0.421875 -1.5625 -0.421875q-0.859375 0 -1.546875 0.328125q-0.6875 0.328125 -1.15625 0.984375l-2.203125 -1.421875q0.765625 -1.140625 2.109375 -1.78125q1.34375 -0.640625 3.078125 -0.640625q1.453125 0 2.546875 0.484375q1.09375 0.46875 1.703125 1.34375q0.609375 0.859375 0.609375 2.03125q0 1.0625 -0.453125 2.0q-0.453125 0.921875 -1.734375 2.125l-3.0 2.828125l5.609375 0z" fill-rule="nonzero"/><path fill="#000000" fill-opacity="0.0" d="m257.45407 95.63628l-224.7559 97.76378" fill-rule="evenodd"/><path stroke="#000000" stroke-width="1.0" stroke-linejoin="round" stroke-linecap="butt" d="m257.45407 95.63628l-219.25388 95.37053" fill-rule="evenodd"/><path fill="#000000" stroke="#000000" stroke-width="1.0" stroke-linecap="butt" d="m37.541355 189.49216l-3.5026207 3.3247833l4.8202934 -0.2955017z" fill-rule="evenodd"/><path fill="#000000" fill-opacity="0.0" d="m305.76904 95.63628l82.299194 97.76378" fill-rule="evenodd"/><path stroke="#000000" stroke-width="1.0" stroke-linejoin="round" stroke-linecap="butt" d="m305.76904 95.63628l78.43515 93.17366" fill-rule="evenodd"/><path fill="#000000" stroke="#000000" stroke-width="1.0" stroke-linecap="butt" d="m382.94058 189.87367l4.1861877 2.4080048l-1.6589661 -4.5354614z" fill-rule="evenodd"/><path fill="#cfe2f3" d="m105.14029 198.58867l0 0c0 -2.8643951 2.322052 -5.186447 5.186455 -5.186447l37.942055 0c1.375534 0 2.6947174 0.5464325 3.6673737 1.5190735c0.972641 0.97265625 1.5190735 2.2918396 1.5190735 3.6673737l0 20.745209c0 2.8643951 -2.322052 5.186447 -5.186447 5.186447l-37.942055 0c-2.8644028 0 -5.186455 -2.322052 -5.186455 -5.186447z" fill-rule="evenodd"/><path stroke="#000000" stroke-width="1.0" stroke-linejoin="round" stroke-linecap="butt" d="m105.14029 198.58867l0 0c0 -2.8643951 2.322052 -5.186447 5.186455 -5.186447l37.942055 0c1.375534 0 2.6947174 0.5464325 3.6673737 1.5190735c0.972641 0.97265625 1.5190735 2.2918396 1.5190735 3.6673737l0 20.745209c0 2.8643951 -2.322052 5.186447 -5.186447 5.186447l-37.942055 0c-2.8644028 0 -5.186455 -2.322052 -5.186455 -5.186447z" fill-rule="evenodd"/><path fill="#000000" d="m123.18187 211.94377l-1.40625 1.375l0 2.5625l-2.90625 0l0 -13.84375l2.90625 0l0 7.84375l4.25 -4.03125l3.484375 0l-4.1875 4.25l4.546875 5.78125l-3.515625 0l-3.171875 -3.9375zm13.671661 -3.8125q1.71875 0.28125 2.625 1.28125q0.921875 1.0 0.921875 2.46875q0 1.140625 -0.609375 2.109375q-0.59375 0.953125 -1.8125 1.53125q-1.21875 0.578125 -2.984375 0.578125q-1.390625 0 -2.71875 -0.359375q-1.328125 -0.359375 -2.265625 -1.03125l1.171875 -2.3125q0.75 0.5625 1.71875 0.875q0.984375 0.296875 2.015625 0.296875q1.140625 0 1.78125 -0.4375q0.65625 -0.4375 0.65625 -1.25q0 -1.59375 -2.4375 -1.59375l-1.390625 0l0 -2.0l2.6875 -3.046875l-5.546875 0l0 -2.421875l9.140625 0l0 1.96875l-2.953125 3.34375z" fill-rule="nonzero"/><path fill="#93c47d" d="m105.13941 229.69829l0 0c0 -2.8643951 2.322052 -5.186447 5.186455 -5.186447l37.942047 0c1.375534 0 2.6947327 0.5464325 3.6673737 1.5190735c0.97265625 0.97265625 1.5190887 2.2918549 1.5190887 3.6673737l0 20.745209c0 2.8643951 -2.3220673 5.186447 -5.1864624 5.186447l-37.942047 0c-2.8644028 0 -5.186455 -2.322052 -5.186455 -5.186447z" fill-rule="evenodd"/><path stroke="#000000" stroke-width="1.0" stroke-linejoin="round" stroke-linecap="butt" d="m105.13941 229.69829l0 0c0 -2.8643951 2.322052 -5.186447 5.186455 -5.186447l37.942047 0c1.375534 0 2.6947327 0.5464325 3.6673737 1.5190735c0.97265625 0.97265625 1.5190887 2.2918549 1.5190887 3.6673737l0 20.745209c0 2.8643951 -2.3220673 5.186447 -5.1864624 5.186447l-37.942047 0c-2.8644028 0 -5.186455 -2.322052 -5.186455 -5.186447z" fill-rule="evenodd"/><path fill="#000000" d="m129.48093 236.95964l-4.2343826 10.03125l-3.015625 0l-4.21875 -10.03125l3.015625 0l2.78125 6.828125l2.859375 -6.828125l2.8125076 0zm6.728058 2.28125q1.71875 0.28125 2.625 1.28125q0.921875 1.0 0.921875 2.46875q0 1.140625 -0.609375 2.109375q-0.59375 0.953125 -1.8125 1.53125q-1.21875 0.578125 -2.984375 0.578125q-1.390625 0 -2.71875 -0.359375q-1.328125 -0.359375 -2.265625 -1.03125l1.171875 -2.3125q0.75 0.5625 1.71875 0.875q0.984375 0.296875 2.015625 0.296875q1.140625 0 1.78125 -0.4375q0.65625 -0.4375 0.65625 -1.25q0 -1.59375 -2.4375 -1.59375l-1.390625 0l0 -2.0l2.6875 -3.046875l-5.546875 0l0 -2.421875l9.140625 0l0 1.96875l-2.953125 3.34375z" fill-rule="nonzero"/><path fill="#cfe2f3" d="m153.45525 198.97491l0 0c0 -2.8644104 2.322052 -5.1864624 5.1864624 -5.1864624l37.942047 0c1.375534 0 2.6947327 0.5464325 3.6673737 1.5190735c0.97265625 0.97265625 1.5190735 2.2918549 1.5190735 3.667389l0 20.745193c0 2.8643951 -2.322052 5.1864624 -5.186447 5.1864624l-37.942047 0c-2.8644104 0 -5.1864624 -2.3220673 -5.1864624 -5.1864624z" fill-rule="evenodd"/><path stroke="#000000" stroke-width="1.0" stroke-linejoin="round" stroke-linecap="butt" d="m153.45525 198.97491l0 0c0 -2.8644104 2.322052 -5.1864624 5.1864624 -5.1864624l37.942047 0c1.375534 0 2.6947327 0.5464325 3.6673737 1.5190735c0.97265625 0.97265625 1.5190735 2.2918549 1.5190735 3.667389l0 20.745193c0 2.8643951 -2.322052 5.1864624 -5.186447 5.1864624l-37.942047 0c-2.8644104 0 -5.1864624 -2.3220673 -5.1864624 -5.1864624z" fill-rule="evenodd"/><path fill="#000000" d="m170.96533 212.33l-1.40625 1.375l0 2.5625l-2.90625 0l0 -13.84375l2.90625 0l0 7.84375l4.25 -4.03125l3.484375 0l-4.1875 4.25l4.546875 5.78125l-3.515625 0l-3.171875 -3.9375zm18.784378 1.1875l-2.125 0l0 2.75l-2.953125 0l0 -2.75l-7.03125 0l0 -2.03125l6.15625 -8.28125l3.171875 0l-5.703125 7.859375l3.5 0l0 -2.453125l2.859375 0l0 2.453125l2.125 0l0 2.453125z" fill-rule="nonzero"/><path fill="#93c47d" d="m153.45438 229.69829l0 0c0 -2.8643951 2.322052 -5.186447 5.186447 -5.186447l37.942047 0c1.375534 0 2.6947327 0.5464325 3.667389 1.5190735c0.972641 0.97265625 1.5190735 2.2918549 1.5190735 3.6673737l0 20.745209c0 2.8643951 -2.322052 5.186447 -5.1864624 5.186447l-37.942047 0c-2.8643951 0 -5.186447 -2.322052 -5.186447 -5.186447z" fill-rule="evenodd"/><path stroke="#000000" stroke-width="1.0" stroke-linejoin="round" stroke-linecap="butt" d="m153.45438 229.69829l0 0c0 -2.8643951 2.322052 -5.186447 5.186447 -5.186447l37.942047 0c1.375534 0 2.6947327 0.5464325 3.667389 1.5190735c0.972641 0.97265625 1.5190735 2.2918549 1.5190735 3.6673737l0 20.745209c0 2.8643951 -2.322052 5.186447 -5.1864624 5.186447l-37.942047 0c-2.8643951 0 -5.186447 -2.322052 -5.186447 -5.186447z" fill-rule="evenodd"/><path fill="#000000" d="m177.22705 236.95964l-4.234375 10.03125l-3.015625 0l-4.21875 -10.03125l3.015625 0l2.78125 6.828125l2.859375 -6.828125l2.8125 0zm11.915436 7.28125l-2.125 0l0 2.75l-2.953125 0l0 -2.75l-7.03125 0l0 -2.03125l6.15625 -8.28125l3.171875 0l-5.703125 7.859375l3.5 0l0 -2.453125l2.859375 0l0 2.453125l2.125 0l0 2.453125z" fill-rule="nonzero"/><path fill="#cfe2f3" d="m363.90057 198.58458l0 0c0 -2.8643951 2.322052 -5.186447 5.1864624 -5.186447l37.942047 0c1.3755188 0 2.6947327 0.5464325 3.6673584 1.5190735c0.97265625 0.97265625 1.5190735 2.2918396 1.5190735 3.6673737l0 20.745209c0 2.8643951 -2.322052 5.186447 -5.186432 5.186447l-37.942047 0c-2.8644104 0 -5.1864624 -2.322052 -5.1864624 -5.186447z" fill-rule="evenodd"/><path stroke="#666666" stroke-width="1.0" stroke-linejoin="round" stroke-linecap="butt" d="m363.90057 198.58458l0 0c0 -2.8643951 2.322052 -5.186447 5.1864624 -5.186447l37.942047 0c1.3755188 0 2.6947327 0.5464325 3.6673584 1.5190735c0.97265625 0.97265625 1.5190735 2.2918396 1.5190735 3.6673737l0 20.745209c0 2.8643951 -2.322052 5.186447 -5.186432 5.186447l-37.942047 0c-2.8644104 0 -5.1864624 -2.322052 -5.1864624 -5.186447z" fill-rule="evenodd"/><path fill="#000000" d="m381.70905 211.93968l-1.40625 1.375l0 2.5625l-2.90625 0l0 -13.84375l2.90625 0l0 7.84375l4.25 -4.03125l3.484375 0l-4.1875 4.25l4.546875 5.78125l-3.515625 0l-3.171875 -3.9375zm13.48584 -4.25q1.25 0 2.265625 0.5q1.03125 0.5 1.625 1.4375q0.609375 0.921875 0.609375 2.125q0 1.3125 -0.65625 2.296875q-0.65625 0.984375 -1.78125 1.515625q-1.125 0.53125 -2.515625 0.53125q-2.734375 0 -4.28125 -1.671875q-1.546875 -1.6875 -1.546875 -4.796875q0 -2.21875 0.828125 -3.796875q0.84375 -1.59375 2.34375 -2.40625q1.5 -0.828125 3.484375 -0.828125q1.046875 0 2.0 0.234375q0.96875 0.234375 1.640625 0.65625l-1.125 2.21875q-0.96875 -0.65625 -2.4375 -0.65625q-1.671875 0 -2.640625 0.984375q-0.96875 0.96875 -1.046875 2.8125q1.15625 -1.15625 3.234375 -1.15625zm-0.609375 6.15625q0.96875 0 1.5625 -0.515625q0.609375 -0.53125 0.609375 -1.421875q0 -0.90625 -0.609375 -1.4375q-0.59375 -0.53125 -1.609375 -0.53125q-0.984375 0 -1.625 0.5625q-0.625 0.546875 -0.625 1.40625q0 0.859375 0.609375 1.40625q0.609375 0.53125 1.6875 0.53125z" fill-rule="nonzero"/><path fill="#93c47d" d="m363.8997 229.69713l0 0c0 -2.8643951 2.322052 -5.186447 5.1864624 -5.186447l37.942047 0c1.3755188 0 2.6947327 0.5464325 3.667389 1.5190735c0.97262573 0.97265625 1.5190735 2.2918396 1.5190735 3.6673737l0 20.745209c0 2.8643951 -2.322052 5.186447 -5.1864624 5.186447l-37.942047 0c-2.8644104 0 -5.1864624 -2.322052 -5.1864624 -5.186447z" fill-rule="evenodd"/><path stroke="#000000" stroke-width="1.0" stroke-linejoin="round" stroke-linecap="butt" d="m363.8997 229.69713l0 0c0 -2.8643951 2.322052 -5.186447 5.1864624 -5.186447l37.942047 0c1.3755188 0 2.6947327 0.5464325 3.667389 1.5190735c0.97262573 0.97265625 1.5190735 2.2918396 1.5190735 3.6673737l0 20.745209c0 2.8643951 -2.322052 5.186447 -5.1864624 5.186447l-37.942047 0c-2.8644104 0 -5.1864624 -2.322052 -5.1864624 -5.186447z" fill-rule="evenodd"/><path fill="#000000" d="m387.8121 236.95848l-4.234375 10.03125l-3.015625 0l-4.21875 -10.03125l3.015625 0l2.78125 6.828125l2.859375 -6.828125l2.8125 0zm6.9342346 1.84375q1.25 0 2.265625 0.5q1.03125 0.5 1.625 1.4375q0.609375 0.921875 0.609375 2.125q0 1.3125 -0.65625 2.296875q-0.65625 0.984375 -1.78125 1.515625q-1.125 0.53125 -2.515625 0.53125q-2.734375 0 -4.28125 -1.671875q-1.546875 -1.6875 -1.546875 -4.796875q0 -2.21875 0.828125 -3.796875q0.84375 -1.59375 2.34375 -2.40625q1.5 -0.828125 3.484375 -0.828125q1.046875 0 2.0 0.234375q0.96875 0.234375 1.640625 0.65625l-1.125 2.21875q-0.96875 -0.65625 -2.4375 -0.65625q-1.671875 0 -2.640625 0.984375q-0.96875 0.96875 -1.046875 2.8125q1.15625 -1.15625 3.234375 -1.15625zm-0.609375 6.15625q0.96875 0 1.5625 -0.515625q0.609375 -0.53125 0.609375 -1.421875q0 -0.90625 -0.609375 -1.4375q-0.59375 -0.53125 -1.609375 -0.53125q-0.984375 0 -1.625 0.5625q-0.625 0.546875 -0.625 1.40625q0 0.859375 0.609375 1.40625q0.609375 0.53125 1.6875 0.53125z" fill-rule="nonzero"/><path fill="#cfe2f3" d="m412.2164 198.58458l0 0c0 -2.8643951 2.322052 -5.186447 5.1864624 -5.186447l37.942047 0c1.3755188 0 2.6947327 0.5464325 3.667389 1.5190735c0.97262573 0.97265625 1.5190735 2.2918396 1.5190735 3.6673737l0 20.745209c0 2.8643951 -2.322052 5.186447 -5.1864624 5.186447l-37.942047 0c-2.8644104 0 -5.1864624 -2.322052 -5.1864624 -5.186447z" fill-rule="evenodd"/><path stroke="#000000" stroke-width="1.0" stroke-linejoin="round" stroke-linecap="butt" d="m412.2164 198.58458l0 0c0 -2.8643951 2.322052 -5.186447 5.1864624 -5.186447l37.942047 0c1.3755188 0 2.6947327 0.5464325 3.667389 1.5190735c0.97262573 0.97265625 1.5190735 2.2918396 1.5190735 3.6673737l0 20.745209c0 2.8643951 -2.322052 5.186447 -5.1864624 5.186447l-37.942047 0c-2.8644104 0 -5.1864624 -2.322052 -5.1864624 -5.186447z" fill-rule="evenodd"/><path fill="#000000" d="m430.06213 211.93968l-1.40625 1.375l0 2.5625l-2.90625 0l0 -13.84375l2.90625 0l0 7.84375l4.25 -4.03125l3.484375 0l-4.1875 4.25l4.546875 5.78125l-3.515625 0l-3.171875 -3.9375zm17.665985 -9.125l0 1.96875l-4.859375 11.09375l-3.28125 0l4.6875 -10.59375l-4.328125 0l0 2.125l-2.6875 0l0 -4.59375l10.46875 0z" fill-rule="nonzero"/><path fill="#93c47d" d="m412.2155 229.69421l0 0c0 -2.8644104 2.322052 -5.1864624 5.1864624 -5.1864624l37.942047 0c1.3755493 0 2.6947327 0.5464325 3.667389 1.5190735c0.97265625 0.97265625 1.5190735 2.2918549 1.5190735 3.667389l0 20.745193c0 2.8643951 -2.322052 5.1864624 -5.1864624 5.1864624l-37.942047 0c-2.8644104 0 -5.1864624 -2.3220673 -5.1864624 -5.1864624z" fill-rule="evenodd"/><path stroke="#000000" stroke-width="1.0" stroke-linejoin="round" stroke-linecap="butt" d="m412.2155 229.69421l0 0c0 -2.8644104 2.322052 -5.1864624 5.1864624 -5.1864624l37.942047 0c1.3755493 0 2.6947327 0.5464325 3.667389 1.5190735c0.97265625 0.97265625 1.5190735 2.2918549 1.5190735 3.667389l0 20.745193c0 2.8643951 -2.322052 5.1864624 -5.1864624 5.1864624l-37.942047 0c-2.8644104 0 -5.1864624 -2.3220673 -5.1864624 -5.1864624z" fill-rule="evenodd"/><path fill="#000000" d="m436.18384 236.95555l-4.234375 10.03125l-3.015625 0l-4.21875 -10.03125l3.015625 0l2.78125 6.828125l2.859375 -6.828125l2.8125 0zm11.077057 -3.03125l0 1.96875l-4.859375 11.09375l-3.28125 0l4.6875 -10.59375l-4.328125 0l0 2.125l-2.6875 0l0 -4.59375l10.46875 0z" fill-rule="nonzero"/><path fill="#cfe2f3" d="m460.53137 198.58458l0 0c0 -2.8643951 2.322052 -5.186447 5.186432 -5.186447l37.942078 0c1.3755188 0 2.6947021 0.5464325 3.6673584 1.5190735c0.97265625 0.97265625 1.5190735 2.2918396 1.5190735 3.6673737l0 20.745209c0 2.8643951 -2.322052 5.186447 -5.186432 5.186447l-37.942078 0c-2.86438 0 -5.186432 -2.322052 -5.186432 -5.186447z" fill-rule="evenodd"/><path stroke="#000000" stroke-width="1.0" stroke-linejoin="round" stroke-linecap="butt" d="m460.53137 198.58458l0 0c0 -2.8643951 2.322052 -5.186447 5.186432 -5.186447l37.942078 0c1.3755188 0 2.6947021 0.5464325 3.6673584 1.5190735c0.97265625 0.97265625 1.5190735 2.2918396 1.5190735 3.6673737l0 20.745209c0 2.8643951 -2.322052 5.186447 -5.186432 5.186447l-37.942078 0c-2.86438 0 -5.186432 -2.322052 -5.186432 -5.186447z" fill-rule="evenodd"/><path fill="#000000" d="m478.13464 211.93968l-1.40625 1.375l0 2.5625l-2.90625 0l0 -13.84375l2.90625 0l0 7.84375l4.25 -4.03125l3.484375 0l-4.1875 4.25l4.546875 5.78125l-3.515625 0l-3.171875 -3.9375zm16.107788 -2.921875q0.984375 0.484375 1.484375 1.265625q0.515625 0.78125 0.515625 1.8125q0 1.203125 -0.6875 2.109375q-0.6875 0.90625 -1.9375 1.40625q-1.25 0.484375 -2.890625 0.484375q-1.640625 0 -2.890625 -0.484375q-1.234375 -0.5 -1.921875 -1.40625q-0.671875 -0.90625 -0.671875 -2.109375q0 -1.03125 0.5 -1.8125q0.515625 -0.78125 1.46875 -1.265625q-0.71875 -0.453125 -1.109375 -1.125q-0.390625 -0.6875 -0.390625 -1.5625q0 -1.140625 0.625 -1.984375q0.640625 -0.84375 1.78125 -1.296875q1.140625 -0.453125 2.609375 -0.453125q1.484375 0 2.625 0.453125q1.15625 0.453125 1.78125 1.296875q0.640625 0.84375 0.640625 1.984375q0 0.875 -0.390625 1.5625q-0.390625 0.671875 -1.140625 1.125zm-3.515625 -4.203125q-0.921875 0 -1.46875 0.4375q-0.546875 0.4375 -0.546875 1.203125q0 0.75 0.53125 1.1875q0.546875 0.421875 1.484375 0.421875q0.9375 0 1.484375 -0.421875q0.5625 -0.4375 0.5625 -1.1875q0 -0.765625 -0.5625 -1.203125q-0.546875 -0.4375 -1.484375 -0.4375zm0 9.0625q1.140625 0 1.796875 -0.5q0.65625 -0.515625 0.65625 -1.375q0 -0.859375 -0.65625 -1.359375q-0.65625 -0.515625 -1.796875 -0.515625q-1.125 0 -1.78125 0.515625q-0.640625 0.5 -0.640625 1.359375q0 0.875 0.640625 1.375q0.65625 0.5 1.78125 0.5z" fill-rule="nonzero"/><path fill="#93c47d" d="m460.5305 229.69421l0 0c0 -2.8644104 2.322052 -5.1864624 5.1864624 -5.1864624l37.942047 0c1.3755188 0 2.6947327 0.5464325 3.6673584 1.5190735c0.97265625 0.97265625 1.519104 2.2918549 1.519104 3.667389l0 20.745193c0 2.8643951 -2.322052 5.1864624 -5.1864624 5.1864624l-37.942047 0c-2.8644104 0 -5.1864624 -2.3220673 -5.1864624 -5.1864624z" fill-rule="evenodd"/><path stroke="#000000" stroke-width="1.0" stroke-linejoin="round" stroke-linecap="butt" d="m460.5305 229.69421l0 0c0 -2.8644104 2.322052 -5.1864624 5.1864624 -5.1864624l37.942047 0c1.3755188 0 2.6947327 0.5464325 3.6673584 1.5190735c0.97265625 0.97265625 1.519104 2.2918549 1.519104 3.667389l0 20.745193c0 2.8643951 -2.322052 5.1864624 -5.1864624 5.1864624l-37.942047 0c-2.8644104 0 -5.1864624 -2.3220673 -5.1864624 -5.1864624z" fill-rule="evenodd"/><path fill="#000000" d="m484.22836 236.95555l-4.234375 10.03125l-3.015625 0l-4.21875 -10.03125l3.015625 0l2.78125 6.828125l2.859375 -6.828125l2.8125 0zm9.574829 3.171875q0.984375 0.484375 1.484375 1.265625q0.515625 0.78125 0.515625 1.8125q0 1.203125 -0.6875 2.109375q-0.6875 0.90625 -1.9375 1.40625q-1.25 0.484375 -2.890625 0.484375q-1.640625 0 -2.890625 -0.484375q-1.234375 -0.5 -1.921875 -1.40625q-0.671875 -0.90625 -0.671875 -2.109375q0 -1.03125 0.5 -1.8125q0.515625 -0.78125 1.46875 -1.265625q-0.71875 -0.453125 -1.109375 -1.125q-0.390625 -0.6875 -0.390625 -1.5625q0 -1.140625 0.625 -1.984375q0.640625 -0.84375 1.78125 -1.296875q1.140625 -0.453125 2.609375 -0.453125q1.484375 0 2.625 0.453125q1.15625 0.453125 1.78125 1.296875q0.640625 0.84375 0.640625 1.984375q0 0.875 -0.390625 1.5625q-0.390625 0.671875 -1.140625 1.125zm-3.515625 -4.203125q-0.921875 0 -1.46875 0.4375q-0.546875 0.4375 -0.546875 1.203125q0 0.75 0.53125 1.1875q0.546875 0.421875 1.484375 0.421875q0.9375 0 1.484375 -0.421875q0.5625 -0.4375 0.5625 -1.1875q0 -0.765625 -0.5625 -1.203125q-0.546875 -0.4375 -1.484375 -0.4375zm0 9.0625q1.140625 0 1.796875 -0.5q0.65625 -0.515625 0.65625 -1.375q0 -0.859375 -0.65625 -1.359375q-0.65625 -0.515625 -1.796875 -0.515625q-1.125 0 -1.78125 0.515625q-0.640625 0.5 -0.640625 1.359375q0 0.875 0.640625 1.375q0.65625 0.5 1.78125 0.5z" fill-rule="nonzero"/><path fill="#cfe2f3" d="m508.8463 198.58458l0 0c0 -2.8643951 2.322052 -5.186447 5.1864624 -5.186447l37.942078 0c1.3754883 0 2.6947021 0.5464325 3.6673584 1.5190735c0.97265625 0.97265625 1.519043 2.2918396 1.519043 3.6673737l0 20.745209c0 2.8643951 -2.3220215 5.186447 -5.1864014 5.186447l-37.942078 0c-2.8644104 0 -5.1864624 -2.322052 -5.1864624 -5.186447z" fill-rule="evenodd"/><path stroke="#000000" stroke-width="1.0" stroke-linejoin="round" stroke-linecap="butt" d="m508.8463 198.58458l0 0c0 -2.8643951 2.322052 -5.186447 5.1864624 -5.186447l37.942078 0c1.3754883 0 2.6947021 0.5464325 3.6673584 1.5190735c0.97265625 0.97265625 1.519043 2.2918396 1.519043 3.6673737l0 20.745209c0 2.8643951 -2.3220215 5.186447 -5.1864014 5.186447l-37.942078 0c-2.8644104 0 -5.1864624 -2.322052 -5.1864624 -5.186447z" fill-rule="evenodd"/><path fill="#000000" d="m526.46814 211.93968l-1.40625 1.375l0 2.5625l-2.90625 0l0 -13.84375l2.90625 0l0 7.84375l4.25 -4.03125l3.484375 0l-4.1875 4.25l4.546875 5.78125l-3.515625 0l-3.171875 -3.9375zm12.156067 -9.34375q2.75 0 4.296875 1.671875q1.546875 1.671875 1.546875 4.796875q0 2.21875 -0.828125 3.8125q-0.828125 1.578125 -2.34375 2.40625q-1.515625 0.8125 -3.484375 0.8125q-1.046875 0 -2.0 -0.234375q-0.953125 -0.234375 -1.625 -0.65625l1.125 -2.21875q0.953125 0.65625 2.4375 0.65625q1.65625 0 2.625 -0.984375q0.984375 -0.984375 1.046875 -2.828125q-1.171875 1.171875 -3.234375 1.171875q-1.25 0 -2.28125 -0.5q-1.03125 -0.5 -1.625 -1.421875q-0.59375 -0.921875 -0.59375 -2.140625q0 -1.3125 0.640625 -2.296875q0.65625 -0.984375 1.78125 -1.515625q1.140625 -0.53125 2.515625 -0.53125zm0.234375 6.15625q0.984375 0 1.609375 -0.546875q0.625 -0.5625 0.625 -1.40625q0 -0.859375 -0.609375 -1.40625q-0.609375 -0.546875 -1.671875 -0.546875q-0.96875 0 -1.578125 0.53125q-0.59375 0.515625 -0.59375 1.421875q0 0.890625 0.59375 1.421875q0.609375 0.53125 1.625 0.53125z" fill-rule="nonzero"/><path fill="#93c47d" d="m508.84546 229.69421l0 0c0 -2.8644104 2.322052 -5.1864624 5.1864624 -5.1864624l37.942017 0c1.3755493 0 2.6947632 0.5464325 3.6674194 1.5190735c0.9725952 0.97265625 1.519043 2.2918549 1.519043 3.667389l0 20.745193c0 2.8643951 -2.3220215 5.1864624 -5.1864624 5.1864624l-37.942017 0c-2.8644104 0 -5.1864624 -2.3220673 -5.1864624 -5.1864624z" fill-rule="evenodd"/><path stroke="#000000" stroke-width="1.0" stroke-linejoin="round" stroke-linecap="butt" d="m508.84546 229.69421l0 0c0 -2.8644104 2.322052 -5.1864624 5.1864624 -5.1864624l37.942017 0c1.3755493 0 2.6947632 0.5464325 3.6674194 1.5190735c0.9725952 0.97265625 1.519043 2.2918549 1.519043 3.667389l0 20.745193c0 2.8643951 -2.3220215 5.1864624 -5.1864624 5.1864624l-37.942017 0c-2.8644104 0 -5.1864624 -2.3220673 -5.1864624 -5.1864624z" fill-rule="evenodd"/><path fill="#000000" d="m532.5152 236.95555l-4.234375 10.03125l-3.015625 0l-4.21875 -10.03125l3.015625 0l2.78125 6.828125l2.859375 -6.828125l2.8125 0zm5.7164307 -3.25q2.75 0 4.296875 1.671875q1.546875 1.671875 1.546875 4.796875q0 2.21875 -0.828125 3.8125q-0.828125 1.578125 -2.34375 2.40625q-1.515625 0.8125 -3.484375 0.8125q-1.046875 0 -2.0 -0.234375q-0.953125 -0.234375 -1.625 -0.65625l1.125 -2.21875q0.953125 0.65625 2.4375 0.65625q1.65625 0 2.625 -0.984375q0.984375 -0.984375 1.046875 -2.828125q-1.171875 1.171875 -3.234375 1.171875q-1.25 0 -2.28125 -0.5q-1.03125 -0.5 -1.625 -1.421875q-0.59375 -0.921875 -0.59375 -2.140625q0 -1.3125 0.640625 -2.296875q0.65625 -0.984375 1.78125 -1.515625q1.140625 -0.53125 2.515625 -0.53125zm0.234375 6.15625q0.984375 0 1.609375 -0.546875q0.625 -0.5625 0.625 -1.40625q0 -0.859375 -0.609375 -1.40625q-0.609375 -0.546875 -1.671875 -0.546875q-0.96875 0 -1.578125 0.53125q-0.59375 0.515625 -0.59375 1.421875q0 0.890625 0.59375 1.421875q0.609375 0.53125 1.625 0.53125z" fill-rule="nonzero"/><path fill="#000000" fill-opacity="0.0" d="m308.76196 -0.0011225722l-51.307068 49.889763" fill-rule="evenodd"/><path stroke="#000000" stroke-width="1.0" stroke-linejoin="round" stroke-linecap="butt" d="m308.76196 -0.0011225722l-47.005432 45.706955" fill-rule="evenodd"/><path fill="#000000" stroke="#000000" stroke-width="1.0" stroke-linecap="butt" d="m260.60504 44.521637l-2.1020508 4.3478622l4.4050293 -1.9794731z" fill-rule="evenodd"/><path fill="#000000" fill-opacity="0.0" d="m4.7454066 49.889763l214.86613 0l0 31.11811l-214.86613 0z" fill-rule="evenodd"/><path fill="#000000" d="m15.151657 62.361637l1.328125 0l0 9.328129l-1.328125 0l0 -9.328129zm7.7098236 2.2031288q1.34375 0 2.140625 0.78125q0.796875 0.765625 0.796875 2.28125l0 4.0625l-1.28125 0l0 -3.921875q0 -1.015625 -0.5 -1.53125q-0.484375 -0.53125 -1.40625 -0.53125q-1.046875 0 -1.640625 0.609375q-0.59375 0.609375 -0.59375 1.734375l0 3.640625l-1.28125 0l0 -7.0625l1.21875 0l0 1.0625q0.390625 -0.546875 1.046875 -0.828125q0.65625 -0.296875 1.5 -0.296875zm9.279541 6.71875q-0.28125 0.234375 -0.703125 0.359375q-0.40625 0.125 -0.84375 0.125q-1.0625 0 -1.65625 -0.5625q-0.578125 -0.578125 -0.578125 -1.640625l0 -3.890625l-1.203125 0l0 -1.046875l1.203125 0l0 -1.5468788l1.265625 0l0 1.5468788l2.03125 0l0 1.046875l-2.03125 0l0 3.828125q0 0.578125 0.28125 0.890625q0.296875 0.296875 0.828125 0.296875q0.59375 0 1.0 -0.328125l0.40625 0.921875zm7.684067 -3.078125q0 0.140625 -0.015625 0.375l-5.734375 0q0.109375 0.9375 0.8125 1.5q0.703125 0.5625 1.734375 0.5625q1.28125 0 2.046875 -0.84375l0.703125 0.828125q-0.484375 0.5625 -1.203125 0.859375q-0.703125 0.28125 -1.578125 0.28125q-1.125 0 -2.0 -0.453125q-0.859375 -0.46875 -1.328125 -1.296875q-0.46875 -0.828125 -0.46875 -1.859375q0 -1.03125 0.453125 -1.84375q0.46875 -0.828125 1.265625 -1.28125q0.8125 -0.46875 1.828125 -0.46875q1.015625 0 1.796875 0.46875q0.796875 0.453125 1.234375 1.28125q0.453125 0.8125 0.453125 1.890625zm-3.484375 -2.5625q-0.921875 0 -1.546875 0.5625q-0.609375 0.546875 -0.71875 1.453125l4.53125 0q-0.109375 -0.890625 -0.734375 -1.453125q-0.609375 -0.5625 -1.53125 -0.5625zm6.484909 0.171875q0.328125 -0.609375 0.984375 -0.921875q0.65625 -0.328125 1.59375 -0.328125l0 1.234375q-0.109375 -0.015625 -0.296875 -0.015625q-1.046875 0 -1.640625 0.625q-0.578125 0.609375 -0.578125 1.765625l0 3.515625l-1.28125 0l0 -7.0625l1.21875 0l0 1.1875zm7.918045 -1.25q1.34375 0 2.140625 0.78125q0.796875 0.765625 0.796875 2.28125l0 4.0625l-1.28125 0l0 -3.921875q0 -1.015625 -0.5 -1.53125q-0.484375 -0.53125 -1.40625 -0.53125q-1.046875 0 -1.640625 0.609375q-0.59375 0.609375 -0.59375 1.734375l0 3.640625l-1.28125 0l0 -7.0625l1.21875 0l0 1.0625q0.390625 -0.546875 1.046875 -0.828125q0.65625 -0.296875 1.5 -0.296875zm7.873291 0q1.46875 0 2.25 0.71875q0.78125 0.71875 0.78125 2.140625l0 4.265625l-1.21875 0l0 -0.9375q-0.3125 0.5 -0.90625 0.765625q-0.59375 0.25 -1.40625 0.25q-1.1875 0 -1.90625 -0.5625q-0.703125 -0.578125 -0.703125 -1.515625q0 -0.9375 0.671875 -1.5q0.6875 -0.5625 2.15625 -0.5625l2.03125 0l0 -0.25q0 -0.828125 -0.484375 -1.265625q-0.46875 -0.453125 -1.40625 -0.453125q-0.625 0 -1.234375 0.21875q-0.59375 0.203125 -1.0 0.546875l-0.546875 -0.953125q0.546875 -0.4375 1.3125 -0.671875q0.765625 -0.234375 1.609375 -0.234375zm-0.296875 6.21875q0.734375 0 1.265625 -0.328125q0.546875 -0.328125 0.78125 -0.921875l0 -0.984375l-1.96875 0q-1.625 0 -1.625 1.09375q0 0.53125 0.40625 0.84375q0.421875 0.296875 1.140625 0.296875zm5.7045593 -8.984379l1.28125 0l0 9.890629l-1.28125 0l0 -9.890629zm11.069412 2.7656288q1.34375 0 2.140625 0.78125q0.796875 0.765625 0.796875 2.28125l0 4.0625l-1.28125 0l0 -3.921875q0 -1.015625 -0.5 -1.53125q-0.484375 -0.53125 -1.40625 -0.53125q-1.046875 0 -1.640625 0.609375q-0.59375 0.609375 -0.59375 1.734375l0 3.640625l-1.28125 0l0 -7.0625l1.21875 0l0 1.0625q0.390625 -0.546875 1.046875 -0.828125q0.65625 -0.296875 1.5 -0.296875zm8.366409 7.203125q-1.046875 0 -1.890625 -0.46875q-0.84375 -0.46875 -1.3125 -1.28125q-0.46875 -0.828125 -0.46875 -1.859375q0 -1.046875 0.46875 -1.859375q0.46875 -0.8125 1.3125 -1.265625q0.84375 -0.46875 1.890625 -0.46875q1.0625 0 1.890625 0.46875q0.828125 0.453125 1.296875 1.265625q0.484375 0.8125 0.484375 1.859375q0 1.03125 -0.484375 1.859375q-0.46875 0.8125 -1.296875 1.28125q-0.828125 0.46875 -1.890625 0.46875zm0 -1.125q0.6875 0 1.21875 -0.3125q0.546875 -0.3125 0.84375 -0.875q0.3125 -0.5625 0.3125 -1.296875q0 -0.734375 -0.3125 -1.296875q-0.296875 -0.5625 -0.84375 -0.875q-0.53125 -0.3125 -1.21875 -0.3125q-0.671875 0 -1.21875 0.3125q-0.53125 0.3125 -0.84375 0.875q-0.3125 0.5625 -0.3125 1.296875q0 0.734375 0.3125 1.296875q0.3125 0.5625 0.84375 0.875q0.546875 0.3125 1.21875 0.3125zm12.103958 -8.843754l0 9.890629l-1.21875 0l0 -1.125q-0.4375 0.59375 -1.09375 0.90625q-0.640625 0.296875 -1.4375 0.296875q-1.015625 0 -1.828125 -0.453125q-0.8125 -0.453125 -1.28125 -1.265625q-0.453125 -0.828125 -0.453125 -1.890625q0 -1.0625 0.453125 -1.875q0.46875 -0.8125 1.28125 -1.265625q0.8125 -0.453125 1.828125 -0.453125q0.765625 0 1.40625 0.28125q0.640625 0.28125 1.0625 0.84375l0 -3.8906288l1.28125 0zm-3.640625 8.843754q0.671875 0 1.21875 -0.3125q0.546875 -0.3125 0.84375 -0.875q0.3125 -0.5625 0.3125 -1.296875q0 -0.734375 -0.3125 -1.296875q-0.296875 -0.5625 -0.84375 -0.875q-0.546875 -0.3125 -1.21875 -0.3125q-0.671875 0 -1.21875 0.3125q-0.53125 0.3125 -0.84375 0.875q-0.3125 0.5625 -0.3125 1.296875q0 0.734375 0.3125 1.296875q0.3125 0.5625 0.84375 0.875q0.546875 0.3125 1.21875 0.3125zm12.449127 -2.4375q0 0.140625 -0.015625 0.375l-5.734375 0q0.109375 0.9375 0.8125 1.5q0.703125 0.5625 1.734375 0.5625q1.28125 0 2.046875 -0.84375l0.703125 0.828125q-0.484375 0.5625 -1.203125 0.859375q-0.703125 0.28125 -1.578125 0.28125q-1.125 0 -2.0 -0.453125q-0.859375 -0.46875 -1.328125 -1.296875q-0.46875 -0.828125 -0.46875 -1.859375q0 -1.03125 0.453125 -1.84375q0.46875 -0.828125 1.265625 -1.28125q0.8125 -0.46875 1.828125 -0.46875q1.015625 0 1.796875 0.46875q0.796875 0.453125 1.234375 1.28125q0.453125 0.8125 0.453125 1.890625zm-3.484375 -2.5625q-0.921875 0 -1.546875 0.5625q-0.609375 0.546875 -0.71875 1.453125l4.53125 0q-0.109375 -0.890625 -0.734375 -1.453125q-0.609375 -0.5625 -1.53125 -0.5625zm8.398285 1.828125l3.578125 0l0 1.109375l-3.578125 0l0 -1.109375zm15.596161 -0.625q0.8125 0.234375 1.28125 0.828125q0.46875 0.59375 0.46875 1.5q0 1.203125 -0.921875 1.859375q-0.90625 0.65625 -2.65625 0.65625l-4.4375 0l0 -9.328129l4.171875 0q1.609375 0 2.484375 0.640625q0.875 0.640625 0.875 1.7656288q0 0.734375 -0.34375 1.265625q-0.34375 0.53125 -0.921875 0.8125zm-4.9375 -3.4062538l0 2.9843788l2.734375 0q1.015625 0 1.5625 -0.375q0.5625 -0.390625 0.5625 -1.109375q0 -0.734375 -0.5625 -1.1093788q-0.546875 -0.390625 -1.5625 -0.390625l-2.734375 0zm3.0625 7.171879q1.140625 0 1.703125 -0.375q0.578125 -0.375 0.578125 -1.171875q0 -1.5625 -2.28125 -1.5625l-3.0625 0l0 3.109375l3.0625 0zm6.7299805 -4.796875q0.328125 -0.609375 0.984375 -0.921875q0.65625 -0.328125 1.59375 -0.328125l0 1.234375q-0.109375 -0.015625 -0.296875 -0.015625q-1.046875 0 -1.640625 0.625q-0.578125 0.609375 -0.578125 1.765625l0 3.515625l-1.28125 0l0 -7.0625l1.21875 0l0 1.1875zm6.701584 -1.25q1.46875 0 2.25 0.71875q0.78125 0.71875 0.78125 2.140625l0 4.265625l-1.21875 0l0 -0.9375q-0.3125 0.5 -0.90625 0.765625q-0.59375 0.25 -1.40625 0.25q-1.1875 0 -1.90625 -0.5625q-0.703125 -0.578125 -0.703125 -1.515625q0 -0.9375 0.671875 -1.5q0.6875 -0.5625 2.15625 -0.5625l2.03125 0l0 -0.25q0 -0.828125 -0.484375 -1.265625q-0.46875 -0.453125 -1.40625 -0.453125q-0.625 0 -1.234375 0.21875q-0.59375 0.203125 -1.0 0.546875l-0.546875 -0.953125q0.546875 -0.4375 1.3125 -0.671875q0.765625 -0.234375 1.609375 -0.234375zm-0.296875 6.21875q0.734375 0 1.265625 -0.328125q0.546875 -0.328125 0.78125 -0.921875l0 -0.984375l-1.96875 0q-1.625 0 -1.625 1.09375q0 0.53125 0.40625 0.84375q0.421875 0.296875 1.140625 0.296875zm9.470184 -6.21875q1.34375 0 2.140625 0.78125q0.796875 0.765625 0.796875 2.28125l0 4.0625l-1.28125 0l0 -3.921875q0 -1.015625 -0.5 -1.53125q-0.484375 -0.53125 -1.40625 -0.53125q-1.046875 0 -1.640625 0.609375q-0.59375 0.609375 -0.59375 1.734375l0 3.640625l-1.28125 0l0 -7.0625l1.21875 0l0 1.0625q0.390625 -0.546875 1.046875 -0.828125q0.65625 -0.296875 1.5 -0.296875zm8.428909 7.203125q-1.078125 0 -1.9375 -0.46875q-0.84375 -0.46875 -1.328125 -1.28125q-0.46875 -0.828125 -0.46875 -1.859375q0 -1.046875 0.46875 -1.859375q0.484375 -0.8125 1.328125 -1.265625q0.859375 -0.46875 1.9375 -0.46875q0.953125 0 1.703125 0.390625q0.75 0.375 1.171875 1.109375l-0.96875 0.625q-0.34375 -0.5 -0.84375 -0.75q-0.484375 -0.265625 -1.078125 -0.265625q-0.703125 0 -1.25 0.3125q-0.546875 0.3125 -0.859375 0.875q-0.3125 0.5625 -0.3125 1.296875q0 0.75 0.3125 1.3125q0.3125 0.5625 0.859375 0.875q0.546875 0.296875 1.25 0.296875q0.59375 0 1.078125 -0.25q0.5 -0.25 0.84375 -0.75l0.96875 0.609375q-0.421875 0.734375 -1.171875 1.125q-0.75 0.390625 -1.703125 0.390625zm8.204498 -7.203125q1.34375 0 2.140625 0.78125q0.796875 0.765625 0.796875 2.28125l0 4.0625l-1.28125 0l0 -3.921875q0 -1.015625 -0.5 -1.53125q-0.484375 -0.53125 -1.40625 -0.53125q-1.046875 0 -1.640625 0.609375q-0.59375 0.609375 -0.59375 1.734375l0 3.640625l-1.28125 0l0 -9.890629l1.28125 0l0 3.8281288q0.390625 -0.515625 1.03125 -0.78125q0.65625 -0.28125 1.453125 -0.28125zm17.099167 -2.2031288l0 9.328129l-1.09375 0l-5.59375 -6.953125l0 6.953125l-1.328125 0l0 -9.328129l1.09375 0l5.59375 6.953129l0 -6.953129l1.328125 0zm5.634903 9.406254q-1.046875 0 -1.890625 -0.46875q-0.84375 -0.46875 -1.3125 -1.28125q-0.46875 -0.828125 -0.46875 -1.859375q0 -1.046875 0.46875 -1.859375q0.46875 -0.8125 1.3125 -1.265625q0.84375 -0.46875 1.890625 -0.46875q1.0625 0 1.890625 0.46875q0.828125 0.453125 1.296875 1.265625q0.484375 0.8125 0.484375 1.859375q0 1.03125 -0.484375 1.859375q-0.46875 0.8125 -1.296875 1.28125q-0.828125 0.46875 -1.890625 0.46875zm0 -1.125q0.6875 0 1.21875 -0.3125q0.546875 -0.3125 0.84375 -0.875q0.3125 -0.5625 0.3125 -1.296875q0 -0.734375 -0.3125 -1.296875q-0.296875 -0.5625 -0.84375 -0.875q-0.53125 -0.3125 -1.21875 -0.3125q-0.671875 0 -1.21875 0.3125q-0.53125 0.3125 -0.84375 0.875q-0.3125 0.5625 -0.3125 1.296875q0 0.734375 0.3125 1.296875q0.3125 0.5625 0.84375 0.875q0.546875 0.3125 1.21875 0.3125zm12.103958 -8.843754l0 9.890629l-1.21875 0l0 -1.125q-0.4375 0.59375 -1.09375 0.90625q-0.640625 0.296875 -1.4375 0.296875q-1.015625 0 -1.828125 -0.453125q-0.8125 -0.453125 -1.28125 -1.265625q-0.453125 -0.828125 -0.453125 -1.890625q0 -1.0625 0.453125 -1.875q0.46875 -0.8125 1.28125 -1.265625q0.8125 -0.453125 1.828125 -0.453125q0.765625 0 1.40625 0.28125q0.640625 0.28125 1.0625 0.84375l0 -3.8906288l1.28125 0zm-3.640625 8.843754q0.671875 0 1.21875 -0.3125q0.546875 -0.3125 0.84375 -0.875q0.3125 -0.5625 0.3125 -1.296875q0 -0.734375 -0.3125 -1.296875q-0.296875 -0.5625 -0.84375 -0.875q-0.546875 -0.3125 -1.21875 -0.3125q-0.671875 0 -1.21875 0.3125q-0.53125 0.3125 -0.84375 0.875q-0.3125 0.5625 -0.3125 1.296875q0 0.734375 0.3125 1.296875q0.3125 0.5625 0.84375 0.875q0.546875 0.3125 1.21875 0.3125zm12.449127 -2.4375q0 0.140625 -0.015625 0.375l-5.734375 0q0.109375 0.9375 0.8125 1.5q0.703125 0.5625 1.734375 0.5625q1.28125 0 2.046875 -0.84375l0.703125 0.828125q-0.484375 0.5625 -1.203125 0.859375q-0.703125 0.28125 -1.578125 0.28125q-1.125 0 -2.0 -0.453125q-0.859375 -0.46875 -1.328125 -1.296875q-0.46875 -0.828125 -0.46875 -1.859375q0 -1.03125 0.453125 -1.84375q0.46875 -0.828125 1.265625 -1.28125q0.8125 -0.46875 1.828125 -0.46875q1.015625 0 1.796875 0.46875q0.796875 0.453125 1.234375 1.28125q0.453125 0.8125 0.453125 1.890625zm-3.484375 -2.5625q-0.921875 0 -1.546875 0.5625q-0.609375 0.546875 -0.71875 1.453125l4.53125 0q-0.109375 -0.890625 -0.734375 -1.453125q-0.609375 -0.5625 -1.53125 -0.5625z" fill-rule="nonzero"/><path fill="#cfe2f3" d="m463.12598 14.308293l0 0c0 -1.3481236 1.092865 -2.4409933 2.4410095 -2.4409933l43.432953 0c0.6473999 0 1.26828 0.25717545 1.7260437 0.71495056c0.4577942 0.45777512 0.7149658 1.0786514 0.7149658 1.7260427l0 9.763682c0 1.3481236 -1.092865 2.4409943 -2.4410095 2.4409943l-43.432953 0c-1.3481445 0 -2.4410095 -1.0928707 -2.4410095 -2.4409943z" fill-rule="evenodd"/><path stroke="#000000" stroke-width="1.0" stroke-linejoin="round" stroke-linecap="butt" d="m463.12598 14.308293l0 0c0 -1.3481236 1.092865 -2.4409933 2.4410095 -2.4409933l43.432953 0c0.6473999 0 1.26828 0.25717545 1.7260437 0.71495056c0.4577942 0.45777512 0.7149658 1.0786514 0.7149658 1.7260427l0 9.763682c0 1.3481236 -1.092865 2.4409943 -2.4410095 2.4409943l-43.432953 0c-1.3481445 0 -2.4410095 -1.0928707 -2.4410095 -2.4409943z" fill-rule="evenodd"/><path fill="#93c47d" d="m463.12598 44.500603l0 0c0 -1.3481255 1.092865 -2.4409943 2.4410095 -2.4409943l43.432953 0c0.6473999 0 1.26828 0.25717545 1.7260437 0.71495056c0.4577942 0.45777512 0.7149658 1.0786514 0.7149658 1.7260437l0 9.763683c0 1.3481216 -1.092865 2.4409904 -2.4410095 2.4409904l-43.432953 0c-1.3481445 0 -2.4410095 -1.0928688 -2.4410095 -2.4409904z" fill-rule="evenodd"/><path stroke="#000000" stroke-width="1.0" stroke-linejoin="round" stroke-linecap="butt" d="m463.12598 44.500603l0 0c0 -1.3481255 1.092865 -2.4409943 2.4410095 -2.4409943l43.432953 0c0.6473999 0 1.26828 0.25717545 1.7260437 0.71495056c0.4577942 0.45777512 0.7149658 1.0786514 0.7149658 1.7260437l0 9.763683c0 1.3481216 -1.092865 2.4409904 -2.4410095 2.4409904l-43.432953 0c-1.3481445 0 -2.4410095 -1.0928688 -2.4410095 -2.4409904z" fill-rule="evenodd"/><path fill="#ff9900" d="m463.12598 74.694374l0 0c0 -1.3481216 1.092865 -2.4409943 2.4410095 -2.4409943l43.432953 0c0.6473999 0 1.26828 0.25717926 1.7260437 0.71495056c0.4577942 0.45777893 0.7149658 1.0786514 0.7149658 1.7260437l0 9.7636795c0 1.3481293 -1.092865 2.4409943 -2.4410095 2.4409943l-43.432953 0c-1.3481445 0 -2.4410095 -1.092865 -2.4410095 -2.4409943z" fill-rule="evenodd"/><path stroke="#000000" stroke-width="1.0" stroke-linejoin="round" stroke-linecap="butt" d="m463.12598 74.694374l0 0c0 -1.3481216 1.092865 -2.4409943 2.4410095 -2.4409943l43.432953 0c0.6473999 0 1.26828 0.25717926 1.7260437 0.71495056c0.4577942 0.45777893 0.7149658 1.0786514 0.7149658 1.7260437l0 9.7636795c0 1.3481293 -1.092865 2.4409943 -2.4410095 2.4409943l-43.432953 0c-1.3481445 0 -2.4410095 -1.092865 -2.4410095 -2.4409943z" fill-rule="evenodd"/><path fill="#000000" fill-opacity="0.0" d="m519.6037 -7.047244E-4l54.614136 0l0 38.362206l-54.614136 0z" fill-rule="evenodd"/><path fill="#000000" d="m536.9056 19.454296l-1.625 1.5l0 2.125l-1.40625 0l0 -10.875001l1.40625 0l0 6.968751l4.234375 -3.859376l1.703125 0l-3.265625 3.203126l3.59375 4.5625l-1.734375 0l-2.90625 -3.625zm12.705627 -0.21875q0 0.171875 -0.03125 0.421875l-6.3125 0q0.140625 1.03125 0.90625 1.65625q0.765625 0.625 1.921875 0.625q1.390625 0 2.234375 -0.9375l0.78125 0.90625q-0.53125 0.609375 -1.3125 0.9375q-0.78125 0.328125 -1.75 0.328125q-1.234375 0 -2.1875 -0.5q-0.953125 -0.515625 -1.484375 -1.421875q-0.515625 -0.90625 -0.515625 -2.0625q0 -1.125 0.5 -2.03125q0.515625 -0.90625 1.40625 -1.406251q0.890625 -0.515625 2.0 -0.515625q1.109375 0 1.984375 0.515625q0.875 0.50000095 1.359375 1.406251q0.5 0.90625 0.5 2.078125zm-3.84375 -2.8125q-1.015625 0 -1.703125 0.625q-0.671875 0.609375 -0.796875 1.609375l4.984375 0q-0.109375 -0.984375 -0.796875 -1.609375q-0.671875 -0.625 -1.6875 -0.625zm12.510498 -1.109376l-3.765625 8.546876q-0.5 1.1875 -1.171875 1.671875q-0.65625 0.484375 -1.59375 0.484375q-0.578125 0 -1.109375 -0.1875q-0.53125 -0.1875 -0.890625 -0.53125l0.609375 -1.0625q0.59375 0.578125 1.390625 0.578125q0.515625 0 0.859375 -0.28125q0.34375 -0.265625 0.625 -0.921875l0.25 -0.546875l-3.4375 -7.750001l1.46875 0l2.703125 6.218751l2.6875 -6.218751l1.375 0z" fill-rule="nonzero"/><path fill="#000000" fill-opacity="0.0" d="m519.6037 30.193068l67.62201 0l0 38.362206l-67.62201 0z" fill-rule="evenodd"/><path fill="#000000" d="m540.7493 45.507442l-3.390625 7.765625l-1.4375 0l-3.40625 -7.765625l1.46875 0l2.671875 6.234375l2.71875 -6.234375l1.375 0zm3.8966675 -0.078125q1.625 0 2.46875 0.796875q0.859375 0.78125 0.859375 2.359375l0 4.6875l-1.328125 0l0 -1.03125q-0.359375 0.546875 -1.015625 0.84375q-0.640625 0.28125 -1.53125 0.28125q-1.3125 0 -2.09375 -0.625q-0.78125 -0.640625 -0.78125 -1.671875q0 -1.015625 0.75 -1.640625q0.75 -0.625 2.375 -0.625l2.21875 0l0 -0.28125q0 -0.90625 -0.53125 -1.390625q-0.515625 -0.484375 -1.546875 -0.484375q-0.6875 0 -1.34375 0.234375q-0.65625 0.21875 -1.125 0.59375l-0.578125 -1.046875q0.59375 -0.484375 1.421875 -0.734375q0.84375 -0.265625 1.78125 -0.265625zm-0.3125 6.84375q0.796875 0 1.375 -0.359375q0.59375 -0.359375 0.859375 -1.015625l0 -1.078125l-2.171875 0q-1.78125 0 -1.78125 1.203125q0 0.578125 0.453125 0.921875q0.453125 0.328125 1.265625 0.328125zm6.2488403 -9.875l1.40625 0l0 10.875l-1.40625 0l0 -10.875zm11.339111 3.109375l0 7.765625l-1.34375 0l0 -1.171875q-0.421875 0.59375 -1.125 0.9375q-0.6875 0.328125 -1.5 0.328125q-1.5625 0 -2.453125 -0.859375q-0.890625 -0.859375 -0.890625 -2.53125l0 -4.46875l1.40625 0l0 4.3125q0 1.125 0.53125 1.703125q0.546875 0.578125 1.5625 0.578125q1.109375 0 1.75 -0.671875q0.65625 -0.671875 0.65625 -1.90625l0 -4.015625l1.40625 0zm9.703613 3.921875q0 0.171875 -0.03125 0.421875l-6.3125 0q0.140625 1.03125 0.90625 1.65625q0.765625 0.625 1.921875 0.625q1.390625 0 2.234375 -0.9375l0.78125 0.90625q-0.53125 0.609375 -1.3125 0.9375q-0.78125 0.328125 -1.75 0.328125q-1.234375 0 -2.1875 -0.5q-0.953125 -0.515625 -1.484375 -1.421875q-0.515625 -0.90625 -0.515625 -2.0625q0 -1.125 0.5 -2.03125q0.515625 -0.90625 1.40625 -1.40625q0.890625 -0.515625 2.0 -0.515625q1.109375 0 1.984375 0.515625q0.875 0.5 1.359375 1.40625q0.5 0.90625 0.5 2.078125zm-3.84375 -2.8125q-1.015625 0 -1.703125 0.625q-0.671875 0.609375 -0.796875 1.609375l4.984375 0q-0.109375 -0.984375 -0.796875 -1.609375q-0.671875 -0.625 -1.6875 -0.625z" fill-rule="nonzero"/><path fill="#000000" fill-opacity="0.0" d="m519.6037 60.38684l147.27557 0l0 38.362206l-147.27557 0z" fill-rule="evenodd"/><path fill="#000000" d="m534.0881 75.62309q1.484375 0 2.34375 0.859375q0.875 0.859375 0.875 2.515625l0 4.46875l-1.40625 0l0 -4.3125q0 -1.125 -0.546875 -1.6875q-0.53125 -0.578125 -1.546875 -0.578125q-1.140625 0 -1.8125 0.671875q-0.65625 0.65625 -0.65625 1.90625l0 4.0l-1.40625 0l0 -7.765625l1.359375 0l0 1.171875q0.421875 -0.609375 1.140625 -0.921875q0.734375 -0.328125 1.65625 -0.328125zm9.196777 7.9375q-1.15625 0 -2.078125 -0.515625q-0.921875 -0.515625 -1.453125 -1.40625q-0.515625 -0.90625 -0.515625 -2.0625q0 -1.140625 0.515625 -2.03125q0.53125 -0.90625 1.453125 -1.40625q0.921875 -0.515625 2.078125 -0.515625q1.15625 0 2.078125 0.515625q0.921875 0.5 1.4375 1.40625q0.515625 0.890625 0.515625 2.03125q0 1.15625 -0.515625 2.0625q-0.515625 0.890625 -1.4375 1.40625q-0.921875 0.515625 -2.078125 0.515625zm0 -1.234375q0.75 0 1.34375 -0.34375q0.59375 -0.34375 0.921875 -0.96875q0.34375 -0.625 0.34375 -1.4375q0 -0.796875 -0.34375 -1.421875q-0.328125 -0.625 -0.921875 -0.953125q-0.59375 -0.34375 -1.34375 -0.34375q-0.75 0 -1.34375 0.34375q-0.59375 0.328125 -0.9375 0.953125q-0.34375 0.625 -0.34375 1.421875q0 0.8125 0.34375 1.4375q0.34375 0.625 0.9375 0.96875q0.59375 0.34375 1.34375 0.34375zm13.306763 -9.734375l0 10.875l-1.34375 0l0 -1.234375q-0.46875 0.640625 -1.1875 0.984375q-0.71875 0.34375 -1.578125 0.34375q-1.125 0 -2.03125 -0.5q-0.890625 -0.5 -1.40625 -1.40625q-0.5 -0.90625 -0.5 -2.078125q0 -1.171875 0.5 -2.0625q0.515625 -0.890625 1.40625 -1.390625q0.90625 -0.5 2.03125 -0.5q0.828125 0 1.53125 0.328125q0.703125 0.3125 1.171875 0.921875l0 -4.28125l1.40625 0zm-4.0 9.734375q0.734375 0 1.328125 -0.34375q0.609375 -0.34375 0.9375 -0.96875q0.34375 -0.625 0.34375 -1.4375q0 -0.796875 -0.34375 -1.421875q-0.328125 -0.625 -0.9375 -0.953125q-0.59375 -0.34375 -1.328125 -0.34375q-0.75 0 -1.34375 0.34375q-0.59375 0.328125 -0.9375 0.953125q-0.34375 0.625 -0.34375 1.421875q0 0.8125 0.34375 1.4375q0.34375 0.625 0.9375 0.96875q0.59375 0.34375 1.34375 0.34375zm13.69873 -2.703125q0 0.171875 -0.03125 0.421875l-6.3125 0q0.140625 1.03125 0.90625 1.65625q0.765625 0.625 1.921875 0.625q1.390625 0 2.234375 -0.9375l0.78125 0.90625q-0.53125 0.609375 -1.3125 0.9375q-0.78125 0.328125 -1.75 0.328125q-1.234375 0 -2.1875 -0.5q-0.953125 -0.515625 -1.484375 -1.421875q-0.515625 -0.90625 -0.515625 -2.0625q0 -1.125 0.5 -2.03125q0.515625 -0.90625 1.40625 -1.40625q0.890625 -0.515625 2.0 -0.515625q1.109375 0 1.984375 0.515625q0.875 0.5 1.359375 1.40625q0.5 0.90625 0.5 2.078125zm-3.84375 -2.8125q-1.015625 0 -1.703125 0.625q-0.671875 0.609375 -0.796875 1.609375l4.984375 0q-0.109375 -0.984375 -0.796875 -1.609375q-0.671875 -0.625 -1.6875 -0.625zm11.084106 0.1875q0.359375 -0.671875 1.078125 -1.015625q0.71875 -0.359375 1.75 -0.359375l0 1.359375q-0.125 -0.015625 -0.328125 -0.015625q-1.140625 0 -1.796875 0.6875q-0.65625 0.6875 -0.65625 1.9375l0 3.875l-1.40625 0l0 -7.765625l1.359375 0l0 1.296875zm11.504944 2.625q0 0.171875 -0.03125 0.421875l-6.3125 0q0.140625 1.03125 0.90625 1.65625q0.765625 0.625 1.921875 0.625q1.390625 0 2.234375 -0.9375l0.78125 0.90625q-0.53125 0.609375 -1.3125 0.9375q-0.78125 0.328125 -1.75 0.328125q-1.234375 0 -2.1875 -0.5q-0.953125 -0.515625 -1.484375 -1.421875q-0.515625 -0.90625 -0.515625 -2.0625q0 -1.125 0.5 -2.03125q0.515625 -0.90625 1.40625 -1.40625q0.890625 -0.515625 2.0 -0.515625q1.109375 0 1.984375 0.515625q0.875 0.5 1.359375 1.40625q0.5 0.90625 0.5 2.078125zm-3.84375 -2.8125q-1.015625 0 -1.703125 0.625q-0.671875 0.609375 -0.796875 1.609375l4.984375 0q-0.109375 -0.984375 -0.796875 -1.609375q-0.671875 -0.625 -1.6875 -0.625zm8.625916 -3.15625q-1.25 0 -1.25 1.375l0 0.671875l2.25 0l0 1.15625l-2.21875 0l0 6.609375l-1.421875 0l0 -6.609375l-1.3125 0l0 -1.15625l1.3125 0l0 -0.6875q0 -1.15625 0.671875 -1.828125q0.6875 -0.6875 1.90625 -0.6875q0.46875 0 0.875 0.125q0.40625 0.109375 0.703125 0.328125l-0.421875 1.078125q-0.484375 -0.375 -1.09375 -0.375zm9.243835 5.96875q0 0.171875 -0.03125 0.421875l-6.3125 0q0.140625 1.03125 0.90625 1.65625q0.765625 0.625 1.921875 0.625q1.390625 0 2.234375 -0.9375l0.78125 0.90625q-0.53125 0.609375 -1.3125 0.9375q-0.78125 0.328125 -1.75 0.328125q-1.234375 0 -2.1875 -0.5q-0.953125 -0.515625 -1.484375 -1.421875q-0.515625 -0.90625 -0.515625 -2.0625q0 -1.125 0.5 -2.03125q0.515625 -0.90625 1.40625 -1.40625q0.890625 -0.515625 2.0 -0.515625q1.109375 0 1.984375 0.515625q0.875 0.5 1.359375 1.40625q0.5 0.90625 0.5 2.078125zm-3.84375 -2.8125q-1.015625 0 -1.703125 0.625q-0.671875 0.609375 -0.796875 1.609375l4.984375 0q-0.109375 -0.984375 -0.796875 -1.609375q-0.671875 -0.625 -1.6875 -0.625zm7.1415405 0.1875q0.359375 -0.671875 1.078125 -1.015625q0.71875 -0.359375 1.75 -0.359375l0 1.359375q-0.125 -0.015625 -0.328125 -0.015625q-1.140625 0 -1.796875 0.6875q-0.65625 0.6875 -0.65625 1.9375l0 3.875l-1.40625 0l0 -7.765625l1.359375 0l0 1.296875zm11.504944 2.625q0 0.171875 -0.03125 0.421875l-6.3125 0q0.140625 1.03125 0.90625 1.65625q0.765625 0.625 1.921875 0.625q1.390625 0 2.234375 -0.9375l0.78125 0.90625q-0.53125 0.609375 -1.3125 0.9375q-0.78125 0.328125 -1.75 0.328125q-1.234375 0 -2.1875 -0.5q-0.953125 -0.515625 -1.484375 -1.421875q-0.515625 -0.90625 -0.515625 -2.0625q0 -1.125 0.5 -2.03125q0.515625 -0.90625 1.40625 -1.40625q0.890625 -0.515625 2.0 -0.515625q1.109375 0 1.984375 0.515625q0.875 0.5 1.359375 1.40625q0.5 0.90625 0.5 2.078125zm-3.84375 -2.8125q-1.015625 0 -1.703125 0.625q-0.671875 0.609375 -0.796875 1.609375l4.984375 0q-0.109375 -0.984375 -0.796875 -1.609375q-0.671875 -0.625 -1.6875 -0.625zm9.938416 -1.1875q1.484375 0 2.34375 0.859375q0.875 0.859375 0.875 2.515625l0 4.46875l-1.40625 0l0 -4.3125q0 -1.125 -0.546875 -1.6875q-0.53125 -0.578125 -1.546875 -0.578125q-1.140625 0 -1.8125 0.671875q-0.65625 0.65625 -0.65625 1.90625l0 4.0l-1.40625 0l0 -7.765625l1.359375 0l0 1.171875q0.421875 -0.609375 1.140625 -0.921875q0.734375 -0.328125 1.65625 -0.328125zm9.259338 7.9375q-1.1875 0 -2.125 -0.515625q-0.921875 -0.515625 -1.453125 -1.40625q-0.53125 -0.90625 -0.53125 -2.0625q0 -1.140625 0.53125 -2.03125q0.53125 -0.90625 1.453125 -1.40625q0.9375 -0.515625 2.125 -0.515625q1.0625 0 1.890625 0.4375q0.828125 0.421875 1.28125 1.21875l-1.078125 0.6875q-0.359375 -0.546875 -0.90625 -0.828125q-0.546875 -0.28125 -1.203125 -0.28125q-0.765625 0 -1.375 0.34375q-0.609375 0.328125 -0.953125 0.953125q-0.34375 0.625 -0.34375 1.421875q0 0.828125 0.34375 1.453125q0.34375 0.625 0.953125 0.96875q0.609375 0.328125 1.375 0.328125q0.65625 0 1.203125 -0.28125q0.546875 -0.28125 0.90625 -0.828125l1.078125 0.671875q-0.453125 0.796875 -1.28125 1.234375q-0.828125 0.4375 -1.890625 0.4375zm11.892029 -3.9375q0 0.171875 -0.03125 0.421875l-6.3125 0q0.140625 1.03125 0.90625 1.65625q0.765625 0.625 1.921875 0.625q1.390625 0 2.234375 -0.9375l0.78125 0.90625q-0.53125 0.609375 -1.3125 0.9375q-0.78125 0.328125 -1.75 0.328125q-1.234375 0 -2.1875 -0.5q-0.953125 -0.515625 -1.484375 -1.421875q-0.515625 -0.90625 -0.515625 -2.0625q0 -1.125 0.5 -2.03125q0.515625 -0.90625 1.40625 -1.40625q0.890625 -0.515625 2.0 -0.515625q1.109375 0 1.984375 0.515625q0.875 0.5 1.359375 1.40625q0.5 0.90625 0.5 2.078125zm-3.84375 -2.8125q-1.015625 0 -1.703125 0.625q-0.671875 0.609375 -0.796875 1.609375l4.984375 0q-0.109375 -0.984375 -0.796875 -1.609375q-0.671875 -0.625 -1.6875 -0.625z" fill-rule="nonzero"/></g></svg>