<svg version="1.1" viewBox="0.0 0.0 636.6456692913385 259.1364829396326" fill="none" stroke="none" stroke-linecap="square" stroke-miterlimit="10" xmlns:xlink="http://www.w3.org/1999/xlink" xmlns="http://www.w3.org/2000/svg"><clipPath id="p.0"><path d="m0 0l636.6457 0l0 259.13647l-636.6457 0l0 -259.13647z" clip-rule="nonzero"/></clipPath><g clip-path="url(#p.0)"><path fill="#000000" fill-opacity="0.0" d="m0 0l636.6457 0l0 259.13647l-636.6457 0z" fill-rule="evenodd"/><path fill="#cfe2f3" d="m440.38583 14.308293l0 0c0 -1.3481236 1.092865 -2.4409933 2.440979 -2.4409933l43.432983 0c0.6473999 0 1.26828 0.25717545 1.7260437 0.71495056c0.45776367 0.45777512 0.7149353 1.0786514 0.7149353 1.7260427l0 9.763682c0 1.3481236 -1.092865 2.4409943 -2.440979 2.4409943l-43.432983 0c-1.348114 0 -2.440979 -1.0928707 -2.440979 -2.4409943z" fill-rule="evenodd"/><path stroke="#000000" stroke-width="1.0" stroke-linejoin="round" stroke-linecap="butt" d="m440.38583 14.308293l0 0c0 -1.3481236 1.092865 -2.4409933 2.440979 -2.4409933l43.432983 0c0.6473999 0 1.26828 0.25717545 1.7260437 0.71495056c0.45776367 0.45777512 0.7149353 1.0786514 0.7149353 1.7260427l0 9.763682c0 1.3481236 -1.092865 2.4409943 -2.440979 2.4409943l-43.432983 0c-1.348114 0 -2.440979 -1.0928707 -2.440979 -2.4409943z" fill-rule="evenodd"/><path fill="#93c47d" d="m440.38583 44.500603l0 0c0 -1.3481255 1.092865 -2.4409943 2.440979 -2.4409943l43.432983 0c0.6473999 0 1.26828 0.25717545 1.7260437 0.71495056c0.45776367 0.45777512 0.7149353 1.0786514 0.7149353 1.7260437l0 9.763683c0 1.3481216 -1.092865 2.4409904 -2.440979 2.4409904l-43.432983 0c-1.348114 0 -2.440979 -1.0928688 -2.440979 -2.4409904z" fill-rule="evenodd"/><path stroke="#000000" stroke-width="1.0" stroke-linejoin="round" stroke-linecap="butt" d="m440.38583 44.500603l0 0c0 -1.3481255 1.092865 -2.4409943 2.440979 -2.4409943l43.432983 0c0.6473999 0 1.26828 0.25717545 1.7260437 0.71495056c0.45776367 0.45777512 0.7149353 1.0786514 0.7149353 1.7260437l0 9.763683c0 1.3481216 -1.092865 2.4409904 -2.440979 2.4409904l-43.432983 0c-1.348114 0 -2.440979 -1.0928688 -2.440979 -2.4409904z" fill-rule="evenodd"/><path fill="#ff9900" d="m440.38583 74.694374l0 0c0 -1.3481216 1.092865 -2.4409943 2.440979 -2.4409943l43.432983 0c0.6473999 0 1.26828 0.25717926 1.7260437 0.71495056c0.45776367 0.45777893 0.7149353 1.0786514 0.7149353 1.7260437l0 9.7636795c0 1.3481293 -1.092865 2.4409943 -2.440979 2.4409943l-43.432983 0c-1.348114 0 -2.440979 -1.092865 -2.440979 -2.4409943z" fill-rule="evenodd"/><path stroke="#000000" stroke-width="1.0" stroke-linejoin="round" stroke-linecap="butt" d="m440.38583 74.694374l0 0c0 -1.3481216 1.092865 -2.4409943 2.440979 -2.4409943l43.432983 0c0.6473999 0 1.26828 0.25717926 1.7260437 0.71495056c0.45776367 0.45777893 0.7149353 1.0786514 0.7149353 1.7260437l0 9.7636795c0 1.3481293 -1.092865 2.4409943 -2.440979 2.4409943l-43.432983 0c-1.348114 0 -2.440979 -1.092865 -2.440979 -2.4409943z" fill-rule="evenodd"/><path fill="#000000" fill-opacity="0.0" d="m496.86353 -7.047244E-4l54.614136 0l0 38.362206l-54.614136 0z" fill-rule="evenodd"/><path fill="#000000" d="m514.16547 19.454296l-1.625 1.5l0 2.125l-1.4062805 0l0 -10.875001l1.4062805 0l0 6.968751l4.234375 -3.859376l1.703125 0l-3.265625 3.203126l3.59375 4.5625l-1.734375 0l-2.90625 -3.625zm12.705627 -0.21875q0 0.171875 -0.03125 0.421875l-6.3125 0q0.140625 1.03125 0.90625 1.65625q0.765625 0.625 1.921875 0.625q1.390625 0 2.234375 -0.9375l0.78125 0.90625q-0.53125 0.609375 -1.3125 0.9375q-0.78125 0.328125 -1.75 0.328125q-1.234375 0 -2.1875 -0.5q-0.953125 -0.515625 -1.484375 -1.421875q-0.515625 -0.90625 -0.515625 -2.0625q0 -1.125 0.5 -2.03125q0.515625 -0.90625 1.40625 -1.406251q0.890625 -0.515625 2.0 -0.515625q1.109375 0 1.984375 0.515625q0.875 0.50000095 1.359375 1.406251q0.5 0.90625 0.5 2.078125zm-3.84375 -2.8125q-1.015625 0 -1.703125 0.625q-0.671875 0.609375 -0.796875 1.609375l4.984375 0q-0.109375 -0.984375 -0.796875 -1.609375q-0.671875 -0.625 -1.6875 -0.625zm12.510498 -1.109376l-3.765625 8.546876q-0.5 1.1875 -1.171875 1.671875q-0.65625 0.484375 -1.59375 0.484375q-0.578125 0 -1.109375 -0.1875q-0.53125 -0.1875 -0.890625 -0.53125l0.609375 -1.0625q0.59375 0.578125 1.390625 0.578125q0.515625 0 0.859375 -0.28125q0.34375 -0.265625 0.625 -0.921875l0.25 -0.546875l-3.4375 -7.750001l1.46875 0l2.703125 6.218751l2.6875 -6.218751l1.375 0z" fill-rule="nonzero"/><path fill="#000000" fill-opacity="0.0" d="m496.86353 30.193068l67.62201 0l0 38.362206l-67.62201 0z" fill-rule="evenodd"/><path fill="#000000" d="m518.0092 45.507442l-3.390625 7.765625l-1.4375 0l-3.4062805 -7.765625l1.46875 0l2.6719055 6.234375l2.71875 -6.234375l1.375 0zm3.8966675 -0.078125q1.625 0 2.46875 0.796875q0.859375 0.78125 0.859375 2.359375l0 4.6875l-1.328125 0l0 -1.03125q-0.359375 0.546875 -1.015625 0.84375q-0.640625 0.28125 -1.53125 0.28125q-1.3125 0 -2.09375 -0.625q-0.78125 -0.640625 -0.78125 -1.671875q0 -1.015625 0.75 -1.640625q0.75 -0.625 2.375 -0.625l2.21875 0l0 -0.28125q0 -0.90625 -0.53125 -1.390625q-0.515625 -0.484375 -1.546875 -0.484375q-0.6875 0 -1.34375 0.234375q-0.65625 0.21875 -1.125 0.59375l-0.578125 -1.046875q0.59375 -0.484375 1.421875 -0.734375q0.84375 -0.265625 1.78125 -0.265625zm-0.3125 6.84375q0.796875 0 1.375 -0.359375q0.59375 -0.359375 0.859375 -1.015625l0 -1.078125l-2.171875 0q-1.78125 0 -1.78125 1.203125q0 0.578125 0.453125 0.921875q0.453125 0.328125 1.265625 0.328125zm6.2488403 -9.875l1.40625 0l0 10.875l-1.40625 0l0 -10.875zm11.339111 3.109375l0 7.765625l-1.34375 0l0 -1.171875q-0.421875 0.59375 -1.125 0.9375q-0.6875 0.328125 -1.5 0.328125q-1.5625 0 -2.453125 -0.859375q-0.890625 -0.859375 -0.890625 -2.53125l0 -4.46875l1.40625 0l0 4.3125q0 1.125 0.53125 1.703125q0.546875 0.578125 1.5625 0.578125q1.109375 0 1.75 -0.671875q0.65625 -0.671875 0.65625 -1.90625l0 -4.015625l1.40625 0zm9.703552 3.921875q0 0.171875 -0.03125 0.421875l-6.3125 0q0.140625 1.03125 0.90625 1.65625q0.765625 0.625 1.921875 0.625q1.390625 0 2.234375 -0.9375l0.78125 0.90625q-0.53125 0.609375 -1.3125 0.9375q-0.78125 0.328125 -1.75 0.328125q-1.234375 0 -2.1875 -0.5q-0.953125 -0.515625 -1.484375 -1.421875q-0.515625 -0.90625 -0.515625 -2.0625q0 -1.125 0.5 -2.03125q0.515625 -0.90625 1.40625 -1.40625q0.890625 -0.515625 2.0 -0.515625q1.109375 0 1.984375 0.515625q0.875 0.5 1.359375 1.40625q0.5 0.90625 0.5 2.078125zm-3.84375 -2.8125q-1.015625 0 -1.703125 0.625q-0.671875 0.609375 -0.796875 1.609375l4.984375 0q-0.109375 -0.984375 -0.796875 -1.609375q-0.671875 -0.625 -1.6875 -0.625z" fill-rule="nonzero"/><path fill="#000000" fill-opacity="0.0" d="m496.86353 60.38684l147.27557 0l0 38.362206l-147.27557 0z" fill-rule="evenodd"/><path fill="#000000" d="m511.3479 75.62309q1.484375 0 2.34375 0.859375q0.875 0.859375 0.875 2.515625l0 4.46875l-1.40625 0l0 -4.3125q0 -1.125 -0.546875 -1.6875q-0.53125 -0.578125 -1.546875 -0.578125q-1.140625 0 -1.8125 0.671875q-0.65625 0.65625 -0.65625 1.90625l0 4.0l-1.40625 0l0 -7.765625l1.359375 0l0 1.171875q0.421875 -0.609375 1.140625 -0.921875q0.734375 -0.328125 1.65625 -0.328125zm9.196838 7.9375q-1.15625 0 -2.078125 -0.515625q-0.921875 -0.515625 -1.453125 -1.40625q-0.515625 -0.90625 -0.515625 -2.0625q0 -1.140625 0.515625 -2.03125q0.53125 -0.90625 1.453125 -1.40625q0.921875 -0.515625 2.078125 -0.515625q1.15625 0 2.078125 0.515625q0.921875 0.5 1.4375 1.40625q0.515625 0.890625 0.515625 2.03125q0 1.15625 -0.515625 2.0625q-0.515625 0.890625 -1.4375 1.40625q-0.921875 0.515625 -2.078125 0.515625zm0 -1.234375q0.75 0 1.34375 -0.34375q0.59375 -0.34375 0.921875 -0.96875q0.34375 -0.625 0.34375 -1.4375q0 -0.796875 -0.34375 -1.421875q-0.328125 -0.625 -0.921875 -0.953125q-0.59375 -0.34375 -1.34375 -0.34375q-0.75 0 -1.34375 0.34375q-0.59375 0.328125 -0.9375 0.953125q-0.34375 0.625 -0.34375 1.421875q0 0.8125 0.34375 1.4375q0.34375 0.625 0.9375 0.96875q0.59375 0.34375 1.34375 0.34375zm13.306702 -9.734375l0 10.875l-1.34375 0l0 -1.234375q-0.46875 0.640625 -1.1875 0.984375q-0.71875 0.34375 -1.578125 0.34375q-1.125 0 -2.03125 -0.5q-0.890625 -0.5 -1.40625 -1.40625q-0.5 -0.90625 -0.5 -2.078125q0 -1.171875 0.5 -2.0625q0.515625 -0.890625 1.40625 -1.390625q0.90625 -0.5 2.03125 -0.5q0.828125 0 1.53125 0.328125q0.703125 0.3125 1.171875 0.921875l0 -4.28125l1.40625 0zm-4.0 9.734375q0.734375 0 1.328125 -0.34375q0.609375 -0.34375 0.9375 -0.96875q0.34375 -0.625 0.34375 -1.4375q0 -0.796875 -0.34375 -1.421875q-0.328125 -0.625 -0.9375 -0.953125q-0.59375 -0.34375 -1.328125 -0.34375q-0.75 0 -1.34375 0.34375q-0.59375 0.328125 -0.9375 0.953125q-0.34375 0.625 -0.34375 1.421875q0 0.8125 0.34375 1.4375q0.34375 0.625 0.9375 0.96875q0.59375 0.34375 1.34375 0.34375zm13.69873 -2.703125q0 0.171875 -0.03125 0.421875l-6.3125 0q0.140625 1.03125 0.90625 1.65625q0.765625 0.625 1.921875 0.625q1.390625 0 2.234375 -0.9375l0.78125 0.90625q-0.53125 0.609375 -1.3125 0.9375q-0.78125 0.328125 -1.75 0.328125q-1.234375 0 -2.1875 -0.5q-0.953125 -0.515625 -1.484375 -1.421875q-0.515625 -0.90625 -0.515625 -2.0625q0 -1.125 0.5 -2.03125q0.515625 -0.90625 1.40625 -1.40625q0.890625 -0.515625 2.0 -0.515625q1.109375 0 1.984375 0.515625q0.875 0.5 1.359375 1.40625q0.5 0.90625 0.5 2.078125zm-3.84375 -2.8125q-1.015625 0 -1.703125 0.625q-0.671875 0.609375 -0.796875 1.609375l4.984375 0q-0.109375 -0.984375 -0.796875 -1.609375q-0.671875 -0.625 -1.6875 -0.625zm11.084106 0.1875q0.359375 -0.671875 1.078125 -1.015625q0.71875 -0.359375 1.75 -0.359375l0 1.359375q-0.125 -0.015625 -0.328125 -0.015625q-1.140625 0 -1.796875 0.6875q-0.65625 0.6875 -0.65625 1.9375l0 3.875l-1.40625 0l0 -7.765625l1.359375 0l0 1.296875zm11.504944 2.625q0 0.171875 -0.03125 0.421875l-6.3125 0q0.140625 1.03125 0.90625 1.65625q0.765625 0.625 1.921875 0.625q1.390625 0 2.234375 -0.9375l0.78125 0.90625q-0.53125 0.609375 -1.3125 0.9375q-0.78125 0.328125 -1.75 0.328125q-1.234375 0 -2.1875 -0.5q-0.953125 -0.515625 -1.484375 -1.421875q-0.515625 -0.90625 -0.515625 -2.0625q0 -1.125 0.5 -2.03125q0.515625 -0.90625 1.40625 -1.40625q0.890625 -0.515625 2.0 -0.515625q1.109375 0 1.984375 0.515625q0.875 0.5 1.359375 1.40625q0.5 0.90625 0.5 2.078125zm-3.84375 -2.8125q-1.015625 0 -1.703125 0.625q-0.671875 0.609375 -0.796875 1.609375l4.984375 0q-0.109375 -0.984375 -0.796875 -1.609375q-0.671875 -0.625 -1.6875 -0.625zm8.625916 -3.15625q-1.25 0 -1.25 1.375l0 0.671875l2.25 0l0 1.15625l-2.21875 0l0 6.609375l-1.421875 0l0 -6.609375l-1.3125 0l0 -1.15625l1.3125 0l0 -0.6875q0 -1.15625 0.671875 -1.828125q0.6875 -0.6875 1.90625 -0.6875q0.46875 0 0.875 0.125q0.40625 0.109375 0.703125 0.328125l-0.421875 1.078125q-0.484375 -0.375 -1.09375 -0.375zm9.243835 5.96875q0 0.171875 -0.03125 0.421875l-6.3125 0q0.140625 1.03125 0.90625 1.65625q0.765625 0.625 1.921875 0.625q1.390625 0 2.234375 -0.9375l0.78125 0.90625q-0.53125 0.609375 -1.3125 0.9375q-0.78125 0.328125 -1.75 0.328125q-1.234375 0 -2.1875 -0.5q-0.953125 -0.515625 -1.484375 -1.421875q-0.515625 -0.90625 -0.515625 -2.0625q0 -1.125 0.5 -2.03125q0.515625 -0.90625 1.40625 -1.40625q0.890625 -0.515625 2.0 -0.515625q1.109375 0 1.984375 0.515625q0.875 0.5 1.359375 1.40625q0.5 0.90625 0.5 2.078125zm-3.84375 -2.8125q-1.015625 0 -1.703125 0.625q-0.671875 0.609375 -0.796875 1.609375l4.984375 0q-0.109375 -0.984375 -0.796875 -1.609375q-0.671875 -0.625 -1.6875 -0.625zm7.1415405 0.1875q0.359375 -0.671875 1.078125 -1.015625q0.71875 -0.359375 1.75 -0.359375l0 1.359375q-0.125 -0.015625 -0.328125 -0.015625q-1.140625 0 -1.796875 0.6875q-0.65625 0.6875 -0.65625 1.9375l0 3.875l-1.40625 0l0 -7.765625l1.359375 0l0 1.296875zm11.505005 2.625q0 0.171875 -0.03125 0.421875l-6.3125 0q0.140625 1.03125 0.90625 1.65625q0.765625 0.625 1.921875 0.625q1.390625 0 2.234375 -0.9375l0.78125 0.90625q-0.53125 0.609375 -1.3125 0.9375q-0.78125 0.328125 -1.75 0.328125q-1.234375 0 -2.1875 -0.5q-0.953125 -0.515625 -1.484375 -1.421875q-0.515625 -0.90625 -0.515625 -2.0625q0 -1.125 0.5 -2.03125q0.515625 -0.90625 1.40625 -1.40625q0.890625 -0.515625 2.0 -0.515625q1.109375 0 1.984375 0.515625q0.875 0.5 1.359375 1.40625q0.5 0.90625 0.5 2.078125zm-3.84375 -2.8125q-1.015625 0 -1.703125 0.625q-0.671875 0.609375 -0.796875 1.609375l4.984375 0q-0.109375 -0.984375 -0.796875 -1.609375q-0.671875 -0.625 -1.6875 -0.625zm9.938416 -1.1875q1.484375 0 2.34375 0.859375q0.875 0.859375 0.875 2.515625l0 4.46875l-1.40625 0l0 -4.3125q0 -1.125 -0.546875 -1.6875q-0.53125 -0.578125 -1.546875 -0.578125q-1.140625 0 -1.8125 0.671875q-0.65625 0.65625 -0.65625 1.90625l0 4.0l-1.40625 0l0 -7.765625l1.359375 0l0 1.171875q0.421875 -0.609375 1.140625 -0.921875q0.734375 -0.328125 1.65625 -0.328125zm9.259277 7.9375q-1.1875 0 -2.125 -0.515625q-0.921875 -0.515625 -1.453125 -1.40625q-0.53125 -0.90625 -0.53125 -2.0625q0 -1.140625 0.53125 -2.03125q0.53125 -0.90625 1.453125 -1.40625q0.9375 -0.515625 2.125 -0.515625q1.0625 0 1.890625 0.4375q0.828125 0.421875 1.28125 1.21875l-1.078125 0.6875q-0.359375 -0.546875 -0.90625 -0.828125q-0.546875 -0.28125 -1.203125 -0.28125q-0.765625 0 -1.375 0.34375q-0.609375 0.328125 -0.953125 0.953125q-0.34375 0.625 -0.34375 1.421875q0 0.828125 0.34375 1.453125q0.34375 0.625 0.953125 0.96875q0.609375 0.328125 1.375 0.328125q0.65625 0 1.203125 -0.28125q0.546875 -0.28125 0.90625 -0.828125l1.078125 0.671875q-0.453125 0.796875 -1.28125 1.234375q-0.828125 0.4375 -1.890625 0.4375zm11.892029 -3.9375q0 0.171875 -0.03125 0.421875l-6.3125 0q0.140625 1.03125 0.90625 1.65625q0.765625 0.625 1.921875 0.625q1.390625 0 2.234375 -0.9375l0.78125 0.90625q-0.53125 0.609375 -1.3125 0.9375q-0.78125 0.328125 -1.75 0.328125q-1.234375 0 -2.1875 -0.5q-0.953125 -0.515625 -1.484375 -1.421875q-0.515625 -0.90625 -0.515625 -2.0625q0 -1.125 0.5 -2.03125q0.515625 -0.90625 1.40625 -1.40625q0.890625 -0.515625 2.0 -0.515625q1.109375 0 1.984375 0.515625q0.875 0.5 1.359375 1.40625q0.5 0.90625 0.5 2.078125zm-3.84375 -2.8125q-1.015625 0 -1.703125 0.625q-0.671875 0.609375 -0.796875 1.609375l4.984375 0q-0.109375 -0.984375 -0.796875 -1.609375q-0.671875 -0.625 -1.6875 -0.625z" fill-rule="nonzero"/><path fill="#cfe2f3" d="m60.831013 111.1556l0 0c0 -2.8643951 2.3220558 -5.186455 5.1864586 -5.186455l37.942047 0c1.375534 0 2.6947327 0.5464325 3.6673813 1.5190811c0.9726486 0.9726486 1.5190735 2.2918396 1.5190735 3.6673737l0 20.745201c0 2.8643951 -2.322052 5.1864624 -5.186455 5.1864624l-37.942047 0c-2.8644028 0 -5.1864586 -2.3220673 -5.1864586 -5.1864624z" fill-rule="evenodd"/><path stroke="#666666" stroke-width="1.0" stroke-linejoin="round" stroke-linecap="butt" d="m60.831013 111.1556l0 0c0 -2.8643951 2.3220558 -5.186455 5.1864586 -5.186455l37.942047 0c1.375534 0 2.6947327 0.5464325 3.6673813 1.5190811c0.9726486 0.9726486 1.5190735 2.2918396 1.5190735 3.6673737l0 20.745201c0 2.8643951 -2.322052 5.1864624 -5.186455 5.1864624l-37.942047 0c-2.8644028 0 -5.1864586 -2.3220673 -5.1864586 -5.1864624z" fill-rule="evenodd"/><path fill="#000000" d="m80.71023 124.5107l-1.40625 1.375l0 2.5625l-2.90625 0l0 -13.84375l2.90625 0l0 7.84375l4.25 -4.03125l3.484375 0l-4.1875 4.25l4.546875 5.78125l-3.515625 0l-3.171875 -3.9375zm12.665161 -9.125l0 13.0625l-3.015625 0l0 -10.640625l-2.625 0l0 -2.421875l5.640625 0z" fill-rule="nonzero"/><path fill="#93c47d" d="m60.83014 142.26376l0 0c0 -2.8643951 2.3220558 -5.1864624 5.186455 -5.1864624l37.942047 0c1.375534 0 2.6947327 0.5464325 3.6673813 1.5190887c0.9726486 0.972641 1.5190735 2.2918396 1.5190735 3.6673737l0 20.745193c0 2.8644104 -2.322052 5.1864624 -5.186455 5.1864624l-37.942047 0c-2.864399 0 -5.186455 -2.322052 -5.186455 -5.1864624z" fill-rule="evenodd"/><path stroke="#000000" stroke-width="1.0" stroke-linejoin="round" stroke-linecap="butt" d="m60.83014 142.26376l0 0c0 -2.8643951 2.3220558 -5.1864624 5.186455 -5.1864624l37.942047 0c1.375534 0 2.6947327 0.5464325 3.6673813 1.5190887c0.9726486 0.972641 1.5190735 2.2918396 1.5190735 3.6673737l0 20.745193c0 2.8644104 -2.322052 5.1864624 -5.186455 5.1864624l-37.942047 0c-2.864399 0 -5.186455 -2.322052 -5.186455 -5.1864624z" fill-rule="evenodd"/><path fill="#000000" d="m86.87861 149.5251l-4.234375 10.03125l-3.015625 0l-4.21875 -10.03125l3.015625 0l2.78125 6.828125l2.859375 -6.828125l2.8125 0zm5.982895 -3.03125l0 13.0625l-3.015625 0l0 -10.640625l-2.625 0l0 -2.421875l5.640625 0z" fill-rule="nonzero"/><path fill="#cfe2f3" d="m109.1311 111.54184l0 0c0 -2.8644028 2.322052 -5.186455 5.186455 -5.186455l37.942055 0c1.3755188 0 2.6947174 0.54642487 3.6673737 1.5190735c0.972641 0.97265625 1.5190735 2.2918472 1.5190735 3.6673813l0 20.745193c0 2.8644104 -2.322052 5.1864624 -5.186447 5.1864624l-37.942055 0c-2.8644028 0 -5.186455 -2.322052 -5.186455 -5.1864624z" fill-rule="evenodd"/><path stroke="#000000" stroke-width="1.0" stroke-linejoin="round" stroke-linecap="butt" d="m109.1311 111.54184l0 0c0 -2.8644028 2.322052 -5.186455 5.186455 -5.186455l37.942055 0c1.3755188 0 2.6947174 0.54642487 3.6673737 1.5190735c0.972641 0.97265625 1.5190735 2.2918472 1.5190735 3.6673813l0 20.745193c0 2.8644104 -2.322052 5.1864624 -5.186447 5.1864624l-37.942055 0c-2.8644028 0 -5.186455 -2.322052 -5.186455 -5.1864624z" fill-rule="evenodd"/><path fill="#000000" d="m127.07001 124.896935l-1.40625 1.375l0 2.5625076l-2.90625 0l0 -13.843758l2.90625 0l0 7.84375l4.25 -4.03125l3.484375 0l-4.1875 4.25l4.546875 5.7812576l-3.515625 0l-3.171875 -3.9375076zm17.570587 1.46875l0 2.4687576l-9.875 0l0 -1.9531326l5.046875 -4.765625q0.796875 -0.765625 1.078125 -1.3125q0.28125 -0.546875 0.28125 -1.09375q0 -0.78125 -0.53125 -1.203125q-0.53125 -0.421875 -1.5625 -0.421875q-0.859375 0 -1.546875 0.328125q-0.6875 0.328125 -1.15625 0.984375l-2.203125 -1.421875q0.765625 -1.140625 2.109375 -1.78125q1.34375 -0.640625 3.078125 -0.640625q1.453125 0 2.546875 0.484375q1.09375 0.46875 1.703125 1.34375q0.609375 0.859375 0.609375 2.03125q0 1.0625 -0.453125 2.0q-0.453125 0.921875 -1.734375 2.125l-3.0 2.828125l5.609375 0z" fill-rule="nonzero"/><path fill="#93c47d" d="m109.130226 143.0377l0 0c0 -2.8644104 2.322052 -5.1864624 5.186455 -5.1864624l37.942047 0c1.375534 0 2.6947327 0.5464325 3.6673737 1.5190735c0.97265625 0.97265625 1.5190887 2.2918549 1.5190887 3.667389l0 20.745193c0 2.8643951 -2.3220673 5.1864624 -5.1864624 5.1864624l-37.942047 0c-2.8644028 0 -5.186455 -2.3220673 -5.186455 -5.1864624z" fill-rule="evenodd"/><path stroke="#000000" stroke-width="1.0" stroke-linejoin="round" stroke-linecap="butt" d="m109.130226 143.0377l0 0c0 -2.8644104 2.322052 -5.1864624 5.186455 -5.1864624l37.942047 0c1.375534 0 2.6947327 0.5464325 3.6673737 1.5190735c0.97265625 0.97265625 1.5190887 2.2918549 1.5190887 3.667389l0 20.745193c0 2.8643951 -2.3220673 5.1864624 -5.1864624 5.1864624l-37.942047 0c-2.8644028 0 -5.186455 -2.3220673 -5.186455 -5.1864624z" fill-rule="evenodd"/><path fill="#000000" d="m133.33173 150.29904l-4.234375 10.03125l-3.015625 0l-4.21875 -10.03125l3.015625 0l2.78125 6.828125l2.859375 -6.828125l2.8125 0zm10.701645 7.5625l0 2.46875l-9.875 0l0 -1.953125l5.046875 -4.765625q0.796875 -0.765625 1.078125 -1.3125q0.28125 -0.546875 0.28125 -1.09375q0 -0.78125 -0.53125 -1.203125q-0.53125 -0.421875 -1.5625 -0.421875q-0.859375 0 -1.546875 0.328125q-0.6875 0.328125 -1.15625 0.984375l-2.203125 -1.421875q0.765625 -1.140625 2.109375 -1.78125q1.34375 -0.640625 3.078125 -0.640625q1.453125 0 2.546875 0.484375q1.09375 0.46875 1.703125 1.34375q0.609375 0.859375 0.609375 2.03125q0 1.0625 -0.453125 2.0q-0.453125 0.921875 -1.734375 2.125l-3.0 2.828125l5.609375 0z" fill-rule="nonzero"/><path fill="#000000" fill-opacity="0.0" d="m12.872704 194.54593l517.51184 0l0 48.094498l-517.51184 0z" fill-rule="evenodd"/><path fill="#000000" d="m52.5306 212.40593q1.640625 0.15625 2.5 1.015625q0.875 0.859375 0.875 2.1875q0 0.953125 -0.484375 1.734375q-0.484375 0.78125 -1.4375 1.234375q-0.953125 0.453125 -2.328125 0.453125q-1.203125 0 -2.3125 -0.359375q-1.09375 -0.359375 -1.796875 -1.0l0.734375 -1.265625q0.578125 0.546875 1.46875 0.875q0.90625 0.328125 1.90625 0.328125q1.25 0 1.9375 -0.53125q0.703125 -0.53125 0.703125 -1.453125q0 -0.921875 -0.6875 -1.4375q-0.6875 -0.515625 -2.078125 -0.515625l-0.890625 0l0 -1.125l2.8125 -3.453125l-5.390625 0l0 -1.390625l7.390625 0l0 1.09375l-2.921875 3.609375z" fill-rule="nonzero"/><path fill="#000000" d="m84.51075 218.99968q-1.046875 0 -2.015625 -0.28125q-0.953125 -0.28125 -1.484375 -0.703125l0.640625 -1.21875q0.546875 0.390625 1.34375 0.640625q0.8125 0.234375 1.625 0.234375q2.015625 0 2.015625 -1.15625q0 -0.375 -0.28125 -0.59375q-0.265625 -0.234375 -0.671875 -0.328125q-0.40625 -0.109375 -1.15625 -0.234375q-1.03125 -0.171875 -1.6875 -0.375q-0.640625 -0.203125 -1.109375 -0.703125q-0.453125 -0.5 -0.453125 -1.390625q0 -1.15625 0.953125 -1.84375q0.96875 -0.703125 2.578125 -0.703125q0.859375 0 1.703125 0.21875q0.84375 0.203125 1.390625 0.546875l-0.65625 1.21875q-1.046875 -0.671875 -2.453125 -0.671875q-0.96875 0 -1.484375 0.328125q-0.515625 0.3125 -0.515625 0.84375q0 0.421875 0.28125 0.65625q0.296875 0.234375 0.71875 0.359375q0.421875 0.109375 1.203125 0.25q1.015625 0.171875 1.640625 0.375q0.640625 0.203125 1.078125 0.6875q0.453125 0.46875 0.453125 1.328125q0 1.15625 -0.984375 1.84375q-0.984375 0.671875 -2.671875 0.671875zm5.5785217 -8.578125l1.53125 0l0 8.484375l-1.53125 0l0 -8.484375zm0.78125 -1.625q-0.453125 0 -0.75 -0.28125q-0.296875 -0.296875 -0.296875 -0.71875q0 -0.40625 0.296875 -0.703125q0.296875 -0.296875 0.75 -0.296875q0.4375 0 0.734375 0.28125q0.296875 0.28125 0.296875 0.6875q0 0.4375 -0.296875 0.734375q-0.296875 0.296875 -0.734375 0.296875zm8.2140045 1.546875q1.609375 0 2.5625 0.9375q0.953125 0.9375 0.953125 2.75l0 4.875l-1.53125 0l0 -4.703125q0 -1.234375 -0.59375 -1.859375q-0.59375 -0.625 -1.6875 -0.625q-1.25 0 -1.984375 0.734375q-0.71875 0.71875 -0.71875 2.078125l0 4.375l-1.53125 0l0 -8.484375l1.46875 0l0 1.28125q0.46875 -0.65625 1.25 -1.0q0.796875 -0.359375 1.8125 -0.359375zm10.115906 8.65625q-1.296875 0 -2.3125 -0.5625q-1.015625 -0.5625 -1.59375 -1.53125q-0.578125 -0.984375 -0.578125 -2.234375q0 -1.25 0.578125 -2.234375q0.578125 -0.984375 1.59375 -1.53125q1.015625 -0.5625 2.3125 -0.5625q1.140625 0 2.046875 0.46875q0.90625 0.46875 1.40625 1.34375l-1.171875 0.75q-0.390625 -0.609375 -0.984375 -0.90625q-0.59375 -0.3125 -1.3125 -0.3125q-0.84375 0 -1.515625 0.375q-0.65625 0.359375 -1.03125 1.046875q-0.375 0.671875 -0.375 1.5625q0 0.890625 0.375 1.578125q0.375 0.671875 1.03125 1.046875q0.671875 0.359375 1.515625 0.359375q0.71875 0 1.3125 -0.296875q0.59375 -0.3125 0.984375 -0.921875l1.171875 0.734375q-0.5 0.890625 -1.40625 1.359375q-0.90625 0.46875 -2.046875 0.46875zm12.976761 -4.28125q0 0.171875 -0.03125 0.453125l-6.890625 0q0.15625 1.125 0.984375 1.8125q0.84375 0.671875 2.09375 0.671875q1.515625 0 2.453125 -1.015625l0.84375 0.984375q-0.578125 0.671875 -1.4375 1.03125q-0.859375 0.34375 -1.90625 0.34375q-1.34375 0 -2.390625 -0.546875q-1.03125 -0.5625 -1.609375 -1.546875q-0.5625 -0.984375 -0.5625 -2.234375q0 -1.234375 0.546875 -2.21875q0.5625 -1.0 1.53125 -1.546875q0.96875 -0.5625 2.171875 -0.5625q1.21875 0 2.171875 0.5625q0.953125 0.546875 1.484375 1.546875q0.546875 0.984375 0.546875 2.265625zm-4.203125 -3.078125q-1.09375 0 -1.84375 0.671875q-0.734375 0.671875 -0.875 1.765625l5.4375 0q-0.125 -1.078125 -0.875 -1.75q-0.734375 -0.6875 -1.84375 -0.6875zm15.392906 6.765625q-0.328125 0.296875 -0.828125 0.453125q-0.5 0.140625 -1.015625 0.140625q-1.28125 0 -1.984375 -0.6875q-0.703125 -0.6875 -0.703125 -1.96875l0 -4.65625l-1.4531174 0l0 -1.265625l1.4531174 0l0 -1.859375l1.53125 0l0 1.859375l2.421875 0l0 1.265625l-2.421875 0l0 4.59375q0 0.6875 0.34375 1.0625q0.34375 0.359375 0.984375 0.359375q0.703125 0 1.203125 -0.390625l0.46875 1.09375zm6.389633 -8.0625q1.609375 0 2.5625 0.9375q0.953125 0.9375 0.953125 2.75l0 4.875l-1.53125 0l0 -4.703125q0 -1.234375 -0.59375 -1.859375q-0.59375 -0.625 -1.6875 -0.625q-1.25 0 -1.984375 0.734375q-0.71875 0.71875 -0.71875 2.078125l0 4.375l-1.53125 0l0 -11.875l1.53125 0l0 4.59375q0.484375 -0.609375 1.265625 -0.9375q0.78125 -0.34375 1.734375 -0.34375zm14.084656 4.375q0 0.171875 -0.03125 0.453125l-6.890625 0q0.15625 1.125 0.984375 1.8125q0.84375 0.671875 2.09375 0.671875q1.515625 0 2.453125 -1.015625l0.84375 0.984375q-0.578125 0.671875 -1.4375 1.03125q-0.859375 0.34375 -1.90625 0.34375q-1.34375 0 -2.390625 -0.546875q-1.03125 -0.5625 -1.609375 -1.546875q-0.5625 -0.984375 -0.5625 -2.234375q0 -1.234375 0.546875 -2.21875q0.5625 -1.0 1.53125 -1.546875q0.96875 -0.5625 2.171875 -0.5625q1.21875 0 2.171875 0.5625q0.953125 0.546875 1.484375 1.546875q0.546875 0.984375 0.546875 2.265625zm-4.203125 -3.078125q-1.09375 0 -1.84375 0.671875q-0.734375 0.671875 -0.875 1.765625l5.4375 0q-0.125 -1.078125 -0.875 -1.75q-0.734375 -0.6875 -1.84375 -0.6875zm12.096039 0.203125q0.40625 -0.734375 1.1875 -1.109375q0.78125 -0.390625 1.90625 -0.390625l0 1.484375q-0.125 -0.015625 -0.359375 -0.015625q-1.234375 0 -1.953125 0.75q-0.71875 0.75 -0.71875 2.125l0 4.21875l-1.53125 0l0 -8.484375l1.46875 0l0 1.421875zm8.539886 7.15625q-1.265625 0 -2.28125 -0.5625q-1.0 -0.5625 -1.578125 -1.53125q-0.5625 -0.984375 -0.5625 -2.234375q0 -1.25 0.5625 -2.234375q0.578125 -0.984375 1.578125 -1.53125q1.015625 -0.5625 2.28125 -0.5625q1.265625 0 2.265625 0.5625q1.0 0.546875 1.5625 1.53125q0.5625 0.984375 0.5625 2.234375q0 1.25 -0.5625 2.234375q-0.5625 0.96875 -1.5625 1.53125q-1.0 0.5625 -2.265625 0.5625zm0 -1.34375q0.8125 0 1.453125 -0.375q0.65625 -0.375 1.015625 -1.046875q0.375 -0.6875 0.375 -1.5625q0 -0.890625 -0.375 -1.5625q-0.359375 -0.6875 -1.015625 -1.046875q-0.640625 -0.375 -1.453125 -0.375q-0.828125 0 -1.484375 0.375q-0.640625 0.359375 -1.015625 1.046875q-0.375 0.671875 -0.375 1.5625q0 0.875 0.375 1.5625q0.375 0.671875 1.015625 1.046875q0.65625 0.375 1.484375 0.375zm10.160019 1.34375q-1.265625 0 -2.28125 -0.5625q-1.0 -0.5625 -1.578125 -1.53125q-0.5625 -0.984375 -0.5625 -2.234375q0 -1.25 0.5625 -2.234375q0.578125 -0.984375 1.578125 -1.53125q1.015625 -0.5625 2.28125 -0.5625q1.265625 0 2.265625 0.5625q1.0 0.546875 1.5625 1.53125q0.5625 0.984375 0.5625 2.234375q0 1.25 -0.5625 2.234375q-0.5625 0.96875 -1.5625 1.53125q-1.0 0.5625 -2.265625 0.5625zm0 -1.34375q0.8125 0 1.453125 -0.375q0.65625 -0.375 1.015625 -1.046875q0.375 -0.6875 0.375 -1.5625q0 -0.890625 -0.375 -1.5625q-0.359375 -0.6875 -1.015625 -1.046875q-0.640625 -0.375 -1.453125 -0.375q-0.828125 0 -1.484375 0.375q-0.640625 0.359375 -1.015625 1.046875q-0.375 0.671875 -0.375 1.5625q0 0.875 0.375 1.5625q0.375 0.671875 1.015625 1.046875q0.65625 0.375 1.484375 0.375zm11.285019 0.75q-0.328125 0.296875 -0.828125 0.453125q-0.5 0.140625 -1.015625 0.140625q-1.28125 0 -1.984375 -0.6875q-0.703125 -0.6875 -0.703125 -1.96875l0 -4.65625l-1.453125 0l0 -1.265625l1.453125 0l0 -1.859375l1.53125 0l0 1.859375l2.421875 0l0 1.265625l-2.421875 0l0 4.59375q0 0.6875 0.34375 1.0625q0.34375 0.359375 0.984375 0.359375q0.703125 0 1.203125 -0.390625l0.46875 1.09375zm9.803024 0.59375q-1.265625 0 -2.28125 -0.5625q-1.0 -0.5625 -1.578125 -1.53125q-0.5625 -0.984375 -0.5625 -2.234375q0 -1.25 0.5625 -2.234375q0.578125 -0.984375 1.578125 -1.53125q1.015625 -0.5625 2.28125 -0.5625q1.265625 0 2.265625 0.5625q1.0 0.546875 1.5625 1.53125q0.5625 0.984375 0.5625 2.234375q0 1.25 -0.5625 2.234375q-0.5625 0.96875 -1.5625 1.53125q-1.0 0.5625 -2.265625 0.5625zm0 -1.34375q0.8125 0 1.453125 -0.375q0.65625 -0.375 1.015625 -1.046875q0.375 -0.6875 0.375 -1.5625q0 -0.890625 -0.375 -1.5625q-0.359375 -0.6875 -1.015625 -1.046875q-0.640625 -0.375 -1.453125 -0.375q-0.828125 0 -1.484375 0.375q-0.640625 0.359375 -1.015625 1.046875q-0.375 0.671875 -0.375 1.5625q0 0.875 0.375 1.5625q0.375 0.671875 1.015625 1.046875q0.65625 0.375 1.484375 0.375zm11.050644 -7.3125q1.609375 0 2.5625 0.9375q0.953125 0.9375 0.953125 2.75l0 4.875l-1.53125 0l0 -4.703125q0 -1.234375 -0.59375 -1.859375q-0.59375 -0.625 -1.6875 -0.625q-1.25 0 -1.984375 0.734375q-0.71875 0.71875 -0.71875 2.078125l0 4.375l-1.53125 0l0 -8.484375l1.46875 0l0 1.28125q0.46875 -0.65625 1.25 -1.0q0.796875 -0.359375 1.8125 -0.359375zm6.3647766 -3.3125l1.53125 0l0 11.875l-1.53125 0l0 -11.875zm11.9640045 3.390625l-4.109375 9.328125q-0.546875 1.296875 -1.28125 1.828125q-0.71875 0.53125 -1.734375 0.53125q-0.625 0 -1.21875 -0.203125q-0.578125 -0.203125 -0.96875 -0.578125l0.65625 -1.15625q0.65625 0.625 1.53125 0.625q0.5625 0 0.9375 -0.296875q0.375 -0.296875 0.671875 -1.015625l0.28125 -0.59375l-3.75 -8.46875l1.59375 0l2.96875 6.78125l2.921875 -6.78125l1.5 0zm9.451157 8.578125q-1.296875 0 -2.3125 -0.5625q-1.015625 -0.5625 -1.59375 -1.53125q-0.578125 -0.984375 -0.578125 -2.234375q0 -1.25 0.578125 -2.234375q0.578125 -0.984375 1.59375 -1.53125q1.015625 -0.5625 2.3125 -0.5625q1.140625 0 2.046875 0.46875q0.90625 0.46875 1.40625 1.34375l-1.171875 0.75q-0.390625 -0.609375 -0.984375 -0.90625q-0.59375 -0.3125 -1.3125 -0.3125q-0.84375 0 -1.515625 0.375q-0.65625 0.359375 -1.03125 1.046875q-0.375 0.671875 -0.375 1.5625q0 0.890625 0.375 1.578125q0.375 0.671875 1.03125 1.046875q0.671875 0.359375 1.515625 0.359375q0.71875 0 1.3125 -0.296875q0.59375 -0.3125 0.984375 -0.921875l1.171875 0.734375q-0.5 0.890625 -1.40625 1.359375q-0.90625 0.46875 -2.046875 0.46875zm8.945511 0q-1.265625 0 -2.28125 -0.5625q-1.0 -0.5625 -1.578125 -1.53125q-0.5625 -0.984375 -0.5625 -2.234375q0 -1.25 0.5625 -2.234375q0.578125 -0.984375 1.578125 -1.53125q1.015625 -0.5625 2.28125 -0.5625q1.265625 0 2.265625 0.5625q1.0 0.546875 1.5625 1.53125q0.5625 0.984375 0.5625 2.234375q0 1.25 -0.5625 2.234375q-0.5625 0.96875 -1.5625 1.53125q-1.0 0.5625 -2.265625 0.5625zm0 -1.34375q0.8125 0 1.453125 -0.375q0.65625 -0.375 1.015625 -1.046875q0.375 -0.6875 0.375 -1.5625q0 -0.890625 -0.375 -1.5625q-0.359375 -0.6875 -1.015625 -1.046875q-0.640625 -0.375 -1.453125 -0.375q-0.828125 0 -1.484375 0.375q-0.640625 0.359375 -1.015625 1.046875q-0.375 0.671875 -0.375 1.5625q0 0.875 0.375 1.5625q0.375 0.671875 1.015625 1.046875q0.65625 0.375 1.484375 0.375zm11.050659 -7.3125q1.609375 0 2.5625 0.9375q0.953125 0.9375 0.953125 2.75l0 4.875l-1.53125 0l0 -4.703125q0 -1.234375 -0.59375 -1.859375q-0.59375 -0.625 -1.6875 -0.625q-1.25 0 -1.984375 0.734375q-0.71875 0.71875 -0.71875 2.078125l0 4.375l-1.5312653 0l0 -8.484375l1.4687653 0l0 1.28125q0.46875 -0.65625 1.25 -1.0q0.796875 -0.359375 1.8125 -0.359375zm11.130402 8.0625q-0.328125 0.296875 -0.828125 0.453125q-0.5 0.140625 -1.015625 0.140625q-1.28125 0 -1.984375 -0.6875q-0.703125 -0.6875 -0.703125 -1.96875l0 -4.65625l-1.453125 0l0 -1.265625l1.453125 0l0 -1.859375l1.53125 0l0 1.859375l2.421875 0l0 1.265625l-2.421875 0l0 4.59375q0 0.6875 0.34375 1.0625q0.34375 0.359375 0.984375 0.359375q0.703125 0 1.203125 -0.390625l0.46875 1.09375zm4.9521484 -8.0625q1.75 0 2.6875 0.875q0.9375 0.859375 0.9375 2.5625l0 5.125l-1.453125 0l0 -1.125q-0.375 0.59375 -1.09375 0.90625q-0.71875 0.3125 -1.6875 0.3125q-1.421875 0 -2.28125 -0.6875q-0.859375 -0.6875 -0.859375 -1.8125q0 -1.109375 0.8125 -1.78125q0.828125 -0.6875 2.59375 -0.6875l2.4375 0l0 -0.3125q0 -0.984375 -0.578125 -1.515625q-0.578125 -0.53125 -1.6875 -0.53125q-0.765625 0 -1.484375 0.25q-0.71875 0.25 -1.203125 0.671875l-0.640625 -1.15625q0.65625 -0.53125 1.5625 -0.8125q0.90625 -0.28125 1.9375 -0.28125zm-0.359375 7.46875q0.890625 0 1.53125 -0.390625q0.640625 -0.390625 0.921875 -1.109375l0 -1.1875l-2.375 0q-1.953125 0 -1.953125 1.3125q0 0.640625 0.5 1.015625q0.5 0.359375 1.375 0.359375zm6.833618 -7.390625l1.53125 0l0 8.484375l-1.53125 0l0 -8.484375zm0.78125 -1.625q-0.453125 0 -0.75 -0.28125q-0.296875 -0.296875 -0.296875 -0.71875q0 -0.40625 0.296875 -0.703125q0.296875 -0.296875 0.75 -0.296875q0.4375 0 0.734375 0.28125q0.296875 0.28125 0.296875 0.6875q0 0.4375 -0.296875 0.734375q-0.296875 0.296875 -0.734375 0.296875zm8.21402 1.546875q1.609375 0 2.5625 0.9375q0.953125 0.9375 0.953125 2.75l0 4.875l-1.53125 0l0 -4.703125q0 -1.234375 -0.59375 -1.859375q-0.59375 -0.625 -1.6875 -0.625q-1.25 0 -1.984375 0.734375q-0.71875 0.71875 -0.71875 2.078125l0 4.375l-1.53125 0l0 -8.484375l1.46875 0l0 1.28125q0.46875 -0.65625 1.25 -1.0q0.796875 -0.359375 1.8125 -0.359375zm8.802277 8.65625q-1.046875 0 -2.015625 -0.28125q-0.953125 -0.28125 -1.484375 -0.703125l0.640625 -1.21875q0.546875 0.390625 1.34375 0.640625q0.8125 0.234375 1.625 0.234375q2.015625 0 2.015625 -1.15625q0 -0.375 -0.28125 -0.59375q-0.265625 -0.234375 -0.671875 -0.328125q-0.40625 -0.109375 -1.15625 -0.234375q-1.03125 -0.171875 -1.6875 -0.375q-0.640625 -0.203125 -1.109375 -0.703125q-0.453125 -0.5 -0.453125 -1.390625q0 -1.15625 0.953125 -1.84375q0.96875 -0.703125 2.578125 -0.703125q0.859375 0 1.703125 0.21875q0.84375 0.203125 1.390625 0.546875l-0.65625 1.21875q-1.046875 -0.671875 -2.453125 -0.671875q-0.96875 0 -1.484375 0.328125q-0.515625 0.3125 -0.515625 0.84375q0 0.421875 0.28125 0.65625q0.296875 0.234375 0.71875 0.359375q0.421875 0.109375 1.203125 0.25q1.015625 0.171875 1.640625 0.375q0.640625 0.203125 1.078125 0.6875q0.453125 0.46875 0.453125 1.328125q0 1.15625 -0.984375 1.84375q-0.984375 0.671875 -2.671875 0.671875zm13.523163 0q-1.265625 0 -2.28125 -0.5625q-1.0 -0.5625 -1.578125 -1.53125q-0.5625 -0.984375 -0.5625 -2.234375q0 -1.25 0.5625 -2.234375q0.578125 -0.984375 1.578125 -1.53125q1.015625 -0.5625 2.28125 -0.5625q1.265625 0 2.265625 0.5625q1.0 0.546875 1.5625 1.53125q0.5625 0.984375 0.5625 2.234375q0 1.25 -0.5625 2.234375q-0.5625 0.96875 -1.5625 1.53125q-1.0 0.5625 -2.265625 0.5625zm0 -1.34375q0.8125 0 1.453125 -0.375q0.65625 -0.375 1.015625 -1.046875q0.375 -0.6875 0.375 -1.5625q0 -0.890625 -0.375 -1.5625q-0.359375 -0.6875 -1.015625 -1.046875q-0.640625 -0.375 -1.453125 -0.375q-0.828125 0 -1.484375 0.375q-0.640625 0.359375 -1.015625 1.046875q-0.375 0.671875 -0.375 1.5625q0 0.875 0.375 1.5625q0.375 0.671875 1.015625 1.046875q0.65625 0.375 1.484375 0.375zm11.050629 -7.3125q1.609375 0 2.5625 0.9375q0.953125 0.9375 0.953125 2.75l0 4.875l-1.53125 0l0 -4.703125q0 -1.234375 -0.59375 -1.859375q-0.59375 -0.625 -1.6875 -0.625q-1.25 0 -1.984375 0.734375q-0.71875 0.71875 -0.71875 2.078125l0 4.375l-1.53125 0l0 -8.484375l1.46875 0l0 1.28125q0.46875 -0.65625 1.25 -1.0q0.796875 -0.359375 1.8125 -0.359375zm14.084656 4.375q0 0.171875 -0.03125 0.453125l-6.890625 0q0.15625 1.125 0.984375 1.8125q0.84375 0.671875 2.09375 0.671875q1.515625 0 2.453125 -1.015625l0.84375 0.984375q-0.578125 0.671875 -1.4375 1.03125q-0.859375 0.34375 -1.90625 0.34375q-1.34375 0 -2.390625 -0.546875q-1.03125 -0.5625 -1.609375 -1.546875q-0.5625 -0.984375 -0.5625 -2.234375q0 -1.234375 0.546875 -2.21875q0.5625 -1.0 1.53125 -1.546875q0.96875 -0.5625 2.171875 -0.5625q1.21875 0 2.171875 0.5625q0.953125 0.546875 1.484375 1.546875q0.546875 0.984375 0.546875 2.265625zm-4.203125 -3.078125q-1.09375 0 -1.84375 0.671875q-0.734375 0.671875 -0.875 1.765625l5.4375 0q-0.125 -1.078125 -0.875 -1.75q-0.734375 -0.6875 -1.84375 -0.6875zm13.924194 3.3125l-1.765625 1.640625l0 2.3125l-1.53125 0l0 -11.875l1.53125 0l0 7.625l4.625 -4.234375l1.859375 0l-3.5625 3.515625l3.921875 4.96875l-1.890625 0l-3.1875 -3.953125zm13.879028 -0.234375q0 0.171875 -0.03125 0.453125l-6.890625 0q0.15625 1.125 0.984375 1.8125q0.84375 0.671875 2.09375 0.671875q1.515625 0 2.453125 -1.015625l0.84375 0.984375q-0.578125 0.671875 -1.4375 1.03125q-0.859375 0.34375 -1.90625 0.34375q-1.34375 0 -2.390625 -0.546875q-1.03125 -0.5625 -1.609375 -1.546875q-0.5625 -0.984375 -0.5625 -2.234375q0 -1.234375 0.546875 -2.21875q0.5625 -1.0 1.53125 -1.546875q0.96875 -0.5625 2.171875 -0.5625q1.21875 0 2.171875 0.5625q0.953125 0.546875 1.484375 1.546875q0.546875 0.984375 0.546875 2.265625zm-4.203125 -3.078125q-1.09375 0 -1.84375 0.671875q-0.734375 0.671875 -0.875 1.765625l5.4375 0q-0.125 -1.078125 -0.875 -1.75q-0.734375 -0.6875 -1.84375 -0.6875zm13.663269 -1.21875l-4.109375 9.328125q-0.546875 1.296875 -1.28125 1.828125q-0.71875 0.53125 -1.734375 0.53125q-0.625 0 -1.21875 -0.203125q-0.578125 -0.203125 -0.96875 -0.578125l0.65625 -1.15625q0.65625 0.625 1.53125 0.625q0.5625 0 0.9375 -0.296875q0.375 -0.296875 0.671875 -1.015625l0.28125 -0.59375l-3.75 -8.46875l1.59375 0l2.96875 6.78125l2.921875 -6.78125l1.5 0zm1.3066406 6.390625q0.4375 0 0.734375 0.3125q0.296875 0.3125 0.296875 0.765625q0 0.25 -0.0625 0.484375q-0.046875 0.21875 -0.203125 0.671875l-0.75 2.234375l-1.015625 0l0.59375 -2.390625q-0.296875 -0.109375 -0.484375 -0.375q-0.1875 -0.265625 -0.1875 -0.625q0 -0.46875 0.296875 -0.765625q0.3125 -0.3125 0.78125 -0.3125zm9.01416 -4.96875q0.40625 -0.734375 1.1875 -1.109375q0.78125 -0.390625 1.90625 -0.390625l0 1.484375q-0.125 -0.015625 -0.359375 -0.015625q-1.234375 0 -1.953125 0.75q-0.71875 0.75 -0.71875 2.125l0 4.21875l-1.53125 0l0 -8.484375l1.46875 0l0 1.421875zm12.571106 2.875q0 0.171875 -0.03125 0.453125l-6.890625 0q0.15625 1.125 0.984375 1.8125q0.84375 0.671875 2.09375 0.671875q1.515625 0 2.453125 -1.015625l0.84375 0.984375q-0.578125 0.671875 -1.4375 1.03125q-0.859375 0.34375 -1.90625 0.34375q-1.34375 0 -2.390625 -0.546875q-1.03125 -0.5625 -1.609375 -1.546875q-0.5625 -0.984375 -0.5625 -2.234375q0 -1.234375 0.546875 -2.21875q0.5625 -1.0 1.53125 -1.546875q0.96875 -0.5625 2.171875 -0.5625q1.21875 0 2.171875 0.5625q0.953125 0.546875 1.484375 1.546875q0.546875 0.984375 0.546875 2.265625zm-4.203125 -3.078125q-1.09375 0 -1.84375 0.671875q-0.734375 0.671875 -0.875 1.765625l5.4375 0q-0.125 -1.078125 -0.875 -1.75q-0.734375 -0.6875 -1.84375 -0.6875zm16.932678 -1.296875q1.59375 0 2.53125 0.9375q0.9375 0.921875 0.9375 2.75l0 4.875l-1.53125 0l0 -4.703125q0 -1.234375 -0.578125 -1.859375q-0.5625 -0.625 -1.609375 -0.625q-1.171875 0 -1.859375 0.734375q-0.6875 0.71875 -0.6875 2.078125l0 4.375l-1.53125 0l0 -4.703125q0 -1.234375 -0.578125 -1.859375q-0.5625 -0.625 -1.625 -0.625q-1.15625 0 -1.859375 0.734375q-0.6875 0.71875 -0.6875 2.078125l0 4.375l-1.53125 0l0 -8.484375l1.46875 0l0 1.265625q0.46875 -0.65625 1.21875 -1.0q0.75 -0.34375 1.71875 -0.34375q0.984375 0 1.75 0.40625q0.78125 0.390625 1.1875 1.171875q0.484375 -0.75 1.328125 -1.15625q0.859375 -0.421875 1.9375 -0.421875zm9.991272 8.65625q-1.265625 0 -2.28125 -0.5625q-1.0 -0.5625 -1.578125 -1.53125q-0.5625 -0.984375 -0.5625 -2.234375q0 -1.25 0.5625 -2.234375q0.578125 -0.984375 1.578125 -1.53125q1.015625 -0.5625 2.28125 -0.5625q1.265625 0 2.265625 0.5625q1.0 0.546875 1.5625 1.53125q0.5625 0.984375 0.5625 2.234375q0 1.25 -0.5625 2.234375q-0.5625 0.96875 -1.5625 1.53125q-1.0 0.5625 -2.265625 0.5625zm0 -1.34375q0.8125 0 1.453125 -0.375q0.65625 -0.375 1.015625 -1.046875q0.375 -0.6875 0.375 -1.5625q0 -0.890625 -0.375 -1.5625q-0.359375 -0.6875 -1.015625 -1.046875q-0.640625 -0.375 -1.453125 -0.375q-0.828125 0 -1.484375 0.375q-0.640625 0.359375 -1.015625 1.046875q-0.375 0.671875 -0.375 1.5625q0 0.875 0.375 1.5625q0.375 0.671875 1.015625 1.046875q0.65625 0.375 1.484375 0.375zm13.779358 -7.234375l-3.703125 8.484375l-1.5625 0l-3.71875 -8.484375l1.59375 0l2.921875 6.796875l2.96875 -6.796875l1.5 0zm8.875916 4.296875q0 0.171875 -0.03125 0.453125l-6.890625 0q0.15625 1.125 0.984375 1.8125q0.84375 0.671875 2.09375 0.671875q1.515625 0 2.453125 -1.015625l0.84375 0.984375q-0.578125 0.671875 -1.4375 1.03125q-0.859375 0.34375 -1.90625 0.34375q-1.34375 0 -2.390625 -0.546875q-1.03125 -0.5625 -1.609375 -1.546875q-0.5625 -0.984375 -0.5625 -2.234375q0 -1.234375 0.546875 -2.21875q0.5625 -1.0 1.53125 -1.546875q0.96875 -0.5625 2.171875 -0.5625q1.21875 0 2.171875 0.5625q0.953125 0.546875 1.484375 1.546875q0.546875 0.984375 0.546875 2.265625zm-4.203125 -3.078125q-1.09375 0 -1.84375 0.671875q-0.734375 0.671875 -0.875 1.765625l5.4375 0q-0.125 -1.078125 -0.875 -1.75q-0.734375 -0.6875 -1.84375 -0.6875zm15.392883 6.765625q-0.328125 0.296875 -0.828125 0.453125q-0.5 0.140625 -1.015625 0.140625q-1.28125 0 -1.984375 -0.6875q-0.703125 -0.6875 -0.703125 -1.96875l0 -4.65625l-1.453125 0l0 -1.265625l1.453125 0l0 -1.859375l1.53125 0l0 1.859375l2.421875 0l0 1.265625l-2.421875 0l0 4.59375q0 0.6875 0.34375 1.0625q0.34375 0.359375 0.984375 0.359375q0.703125 0 1.203125 -0.390625l0.46875 1.09375zm6.3896484 -8.0625q1.609375 0 2.5625 0.9375q0.953125 0.9375 0.953125 2.75l0 4.875l-1.53125 0l0 -4.703125q0 -1.234375 -0.59375 -1.859375q-0.59375 -0.625 -1.6875 -0.625q-1.25 0 -1.984375 0.734375q-0.71875 0.71875 -0.71875 2.078125l0 4.375l-1.53125 0l0 -11.875l1.53125 0l0 4.59375q0.484375 -0.609375 1.265625 -0.9375q0.78125 -0.34375 1.734375 -0.34375zm14.084656 4.375q0 0.171875 -0.03125 0.453125l-6.890625 0q0.15625 1.125 0.984375 1.8125q0.84375 0.671875 2.09375 0.671875q1.515625 0 2.453125 -1.015625l0.84375 0.984375q-0.578125 0.671875 -1.4375 1.03125q-0.859375 0.34375 -1.90625 0.34375q-1.34375 0 -2.390625 -0.546875q-1.03125 -0.5625 -1.609375 -1.546875q-0.5625 -0.984375 -0.5625 -2.234375q0 -1.234375 0.546875 -2.21875q0.5625 -1.0 1.53125 -1.546875q0.96875 -0.5625 2.171875 -0.5625q1.21875 0 2.171875 0.5625q0.953125 0.546875 1.484375 1.546875q0.546875 0.984375 0.546875 2.265625zm-4.203125 -3.078125q-1.09375 0 -1.84375 0.671875q-0.734375 0.671875 -0.875 1.765625l5.4375 0q-0.125 -1.078125 -0.875 -1.75q-0.734375 -0.6875 -1.84375 -0.6875zm12.096008 0.203125q0.40625 -0.734375 1.1875 -1.109375q0.78125 -0.390625 1.90625 -0.390625l0 1.484375q-0.125 -0.015625 -0.359375 -0.015625q-1.234375 0 -1.953125 0.75q-0.71875 0.75 -0.71875 2.125l0 4.21875l-1.53125 0l0 -8.484375l1.46875 0l0 1.421875zm8.539917 7.15625q-1.265625 0 -2.28125 -0.5625q-1.0 -0.5625 -1.578125 -1.53125q-0.5625 -0.984375 -0.5625 -2.234375q0 -1.25 0.5625 -2.234375q0.578125 -0.984375 1.578125 -1.53125q1.015625 -0.5625 2.28125 -0.5625q1.265625 0 2.265625 0.5625q1.0 0.546875 1.5625 1.53125q0.5625 0.984375 0.5625 2.234375q0 1.25 -0.5625 2.234375q-0.5625 0.96875 -1.5625 1.53125q-1.0 0.5625 -2.265625 0.5625zm0 -1.34375q0.8125 0 1.453125 -0.375q0.65625 -0.375 1.015625 -1.046875q0.375 -0.6875 0.375 -1.5625q0 -0.890625 -0.375 -1.5625q-0.359375 -0.6875 -1.015625 -1.046875q-0.640625 -0.375 -1.453125 -0.375q-0.828125 0 -1.484375 0.375q-0.640625 0.359375 -1.015625 1.046875q-0.375 0.671875 -0.375 1.5625q0 0.875 0.375 1.5625q0.375 0.671875 1.015625 1.046875q0.65625 0.375 1.484375 0.375zm10.160034 1.34375q-1.265625 0 -2.28125 -0.5625q-1.0 -0.5625 -1.578125 -1.53125q-0.5625 -0.984375 -0.5625 -2.234375q0 -1.25 0.5625 -2.234375q0.578125 -0.984375 1.578125 -1.53125q1.015625 -0.5625 2.28125 -0.5625q1.265625 0 2.265625 0.5625q1.0 0.546875 1.5625 1.53125q0.5625 0.984375 0.5625 2.234375q0 1.25 -0.5625 2.234375q-0.5625 0.96875 -1.5625 1.53125q-1.0 0.5625 -2.265625 0.5625zm0 -1.34375q0.8125 0 1.453125 -0.375q0.65625 -0.375 1.015625 -1.046875q0.375 -0.6875 0.375 -1.5625q0 -0.890625 -0.375 -1.5625q-0.359375 -0.6875 -1.015625 -1.046875q-0.640625 -0.375 -1.453125 -0.375q-0.828125 0 -1.484375 0.375q-0.640625 0.359375 -1.015625 1.046875q-0.375 0.671875 -0.375 1.5625q0 0.875 0.375 1.5625q0.375 0.671875 1.015625 1.046875q0.65625 0.375 1.484375 0.375zm11.285034 0.75q-0.328125 0.296875 -0.828125 0.453125q-0.5 0.140625 -1.015625 0.140625q-1.28125 0 -1.984375 -0.6875q-0.703125 -0.6875 -0.703125 -1.96875l0 -4.65625l-1.453125 0l0 -1.265625l1.453125 0l0 -1.859375l1.53125 0l0 1.859375l2.421875 0l0 1.265625l-2.421875 0l0 4.59375q0 0.6875 0.34375 1.0625q0.34375 0.359375 0.984375 0.359375q0.703125 0 1.203125 -0.390625l0.46875 1.09375z" fill-rule="nonzero"/><path fill="#000000" d="m151.47662 229.34343q1.609375 0 2.5625 0.9375q0.953125 0.9375 0.953125 2.75l0 4.875l-1.53125 0l0 -4.703125q0 -1.234375 -0.59375 -1.859375q-0.59375 -0.625 -1.6875 -0.625q-1.25 0 -1.984375 0.734375q-0.71875 0.71875 -0.71875 2.078125l0 4.375l-1.53125 0l0 -8.484375l1.46875 0l0 1.28125q0.46875 -0.65625 1.25 -1.0q0.796875 -0.359375 1.8125 -0.359375zm10.053406 8.65625q-1.265625 0 -2.28125 -0.5625q-1.0 -0.5625 -1.578125 -1.53125q-0.5625 -0.984375 -0.5625 -2.234375q0 -1.25 0.5625 -2.234375q0.578125 -0.984375 1.578125 -1.53125q1.015625 -0.5625 2.28125 -0.5625q1.265625 0 2.265625 0.5625q1.0 0.546875 1.5625 1.53125q0.5625 0.984375 0.5625 2.234375q0 1.25 -0.5625 2.234375q-0.5625 0.96875 -1.5625 1.53125q-1.0 0.5625 -2.265625 0.5625zm0 -1.34375q0.8125 0 1.453125 -0.375q0.65625 -0.375 1.015625 -1.046875q0.375 -0.6875 0.375 -1.5625q0 -0.890625 -0.375 -1.5625q-0.359375 -0.6875 -1.015625 -1.046875q-0.640625 -0.375 -1.453125 -0.375q-0.828125 0 -1.484375 0.375q-0.640625 0.359375 -1.015625 1.046875q-0.375 0.671875 -0.375 1.5625q0 0.875 0.375 1.5625q0.375 0.671875 1.015625 1.046875q0.65625 0.375 1.484375 0.375zm14.519394 -10.625l0 11.875l-1.46875 0l0 -1.34375q-0.515625 0.703125 -1.296875 1.078125q-0.78125 0.359375 -1.734375 0.359375q-1.21875 0 -2.203125 -0.53125q-0.96875 -0.546875 -1.53125 -1.53125q-0.546875 -0.984375 -0.546875 -2.265625q0 -1.28125 0.546875 -2.25q0.5625 -0.984375 1.53125 -1.53125q0.984375 -0.546875 2.203125 -0.546875q0.921875 0 1.6875 0.34375q0.765625 0.34375 1.28125 1.015625l0 -4.671875l1.53125 0zm-4.359375 10.625q0.796875 0 1.453125 -0.375q0.65625 -0.375 1.015625 -1.046875q0.375 -0.6875 0.375 -1.5625q0 -0.890625 -0.375 -1.5625q-0.359375 -0.6875 -1.015625 -1.046875q-0.65625 -0.375 -1.453125 -0.375q-0.828125 0 -1.484375 0.375q-0.640625 0.359375 -1.015625 1.046875q-0.375 0.671875 -0.375 1.5625q0 0.875 0.375 1.5625q0.375 0.671875 1.015625 1.046875q0.65625 0.375 1.484375 0.375zm14.943268 -2.9375q0 0.171875 -0.03125 0.453125l-6.890625 0q0.15625 1.125 0.984375 1.8125q0.84375 0.671875 2.09375 0.671875q1.515625 0 2.453125 -1.015625l0.84375 0.984375q-0.578125 0.671875 -1.4375 1.03125q-0.859375 0.34375 -1.90625 0.34375q-1.34375 0 -2.390625 -0.546875q-1.03125 -0.5625 -1.609375 -1.546875q-0.5625 -0.984375 -0.5625 -2.234375q0 -1.234375 0.546875 -2.21875q0.5625 -1.0 1.53125 -1.546875q0.96875 -0.5625 2.171875 -0.5625q1.21875 0 2.171875 0.5625q0.953125 0.546875 1.484375 1.546875q0.546875 0.984375 0.546875 2.265625zm-4.203125 -3.078125q-1.09375 0 -1.84375 0.671875q-0.734375 0.671875 -0.875 1.765625l5.4375 0q-0.125 -1.078125 -0.875 -1.75q-0.734375 -0.6875 -1.84375 -0.6875zm13.721039 -1.296875q1.75 0 2.6875 0.875q0.9375 0.859375 0.9375 2.5625l0 5.125l-1.453125 0l0 -1.125q-0.375 0.59375 -1.09375 0.90625q-0.71875 0.3125 -1.6875 0.3125q-1.421875 0 -2.28125 -0.6875q-0.859375 -0.6875 -0.859375 -1.8125q0 -1.109375 0.8125 -1.78125q0.828125 -0.6875 2.59375 -0.6875l2.4375 0l0 -0.3125q0 -0.984375 -0.578125 -1.515625q-0.578125 -0.53125 -1.6875 -0.53125q-0.765625 0 -1.484375 0.25q-0.71875 0.25 -1.203125 0.671875l-0.640625 -1.15625q0.65625 -0.53125 1.5625 -0.8125q0.90625 -0.28125 1.9375 -0.28125zm-0.359375 7.46875q0.890625 0 1.53125 -0.390625q0.640625 -0.390625 0.921875 -1.109375l0 -1.1875l-2.375 0q-1.953125 0 -1.953125 1.3125q0 0.640625 0.5 1.015625q0.5 0.359375 1.375 0.359375zm11.364899 -7.46875q1.609375 0 2.5625 0.9375q0.953125 0.9375 0.953125 2.75l0 4.875l-1.53125 0l0 -4.703125q0 -1.234375 -0.59375 -1.859375q-0.59375 -0.625 -1.6875 -0.625q-1.25 0 -1.984375 0.734375q-0.71875 0.71875 -0.71875 2.078125l0 4.375l-1.53125 0l0 -8.484375l1.46875 0l0 1.28125q0.46875 -0.65625 1.25 -1.0q0.796875 -0.359375 1.8125 -0.359375zm14.412781 -3.3125l0 11.875l-1.46875 0l0 -1.34375q-0.515625 0.703125 -1.296875 1.078125q-0.78125 0.359375 -1.734375 0.359375q-1.21875 0 -2.203125 -0.53125q-0.96875 -0.546875 -1.53125 -1.53125q-0.546875 -0.984375 -0.546875 -2.265625q0 -1.28125 0.546875 -2.25q0.5625 -0.984375 1.53125 -1.53125q0.984375 -0.546875 2.203125 -0.546875q0.921875 0 1.6875 0.34375q0.765625 0.34375 1.28125 1.015625l0 -4.671875l1.53125 0zm-4.359375 10.625q0.796875 0 1.453125 -0.375q0.65625 -0.375 1.015625 -1.046875q0.375 -0.6875 0.375 -1.5625q0 -0.890625 -0.375 -1.5625q-0.359375 -0.6875 -1.015625 -1.046875q-0.65625 -0.375 -1.453125 -0.375q-0.828125 0 -1.484375 0.375q-0.640625 0.359375 -1.015625 1.046875q-0.375 0.671875 -0.375 1.5625q0 0.875 0.375 1.5625q0.375 0.671875 1.015625 1.046875q0.65625 0.375 1.484375 0.375zm11.575409 -10.625l1.53125 0l0 11.875l-1.53125 0l0 -11.875zm12.1358795 7.6875q0 0.171875 -0.03125 0.453125l-6.890625 0q0.15625 1.125 0.984375 1.8125q0.84375 0.671875 2.09375 0.671875q1.515625 0 2.453125 -1.015625l0.84375 0.984375q-0.578125 0.671875 -1.4375 1.03125q-0.859375 0.34375 -1.90625 0.34375q-1.34375 0 -2.390625 -0.546875q-1.03125 -0.5625 -1.609375 -1.546875q-0.5625 -0.984375 -0.5625 -2.234375q0 -1.234375 0.546875 -2.21875q0.5625 -1.0 1.53125 -1.546875q0.96875 -0.5625 2.171875 -0.5625q1.21875 0 2.171875 0.5625q0.953125 0.546875 1.484375 1.546875q0.546875 0.984375 0.546875 2.265625zm-4.203125 -3.078125q-1.09375 0 -1.84375 0.671875q-0.734375 0.671875 -0.875 1.765625l5.4375 0q-0.125 -1.078125 -0.875 -1.75q-0.734375 -0.6875 -1.84375 -0.6875zm11.088898 6.765625q-0.328125 0.296875 -0.828125 0.453125q-0.5 0.140625 -1.015625 0.140625q-1.28125 0 -1.984375 -0.6875q-0.703125 -0.6875 -0.703125 -1.96875l0 -4.65625l-1.453125 0l0 -1.265625l1.453125 0l0 -1.859375l1.53125 0l0 1.859375l2.421875 0l0 1.265625l-2.421875 0l0 4.59375q0 0.6875 0.34375 1.0625q0.34375 0.359375 0.984375 0.359375q0.703125 0 1.203125 -0.390625l0.46875 1.09375zm6.1623993 -11.375l1.53125 0l0 11.875l-1.53125 0l0 -11.875zm12.1358795 7.6875q0 0.171875 -0.03125 0.453125l-6.890625 0q0.15625 1.125 0.984375 1.8125q0.84375 0.671875 2.09375 0.671875q1.515625 0 2.453125 -1.015625l0.84375 0.984375q-0.578125 0.671875 -1.4375 1.03125q-0.859375 0.34375 -1.90625 0.34375q-1.34375 0 -2.390625 -0.546875q-1.03125 -0.5625 -1.609375 -1.546875q-0.5625 -0.984375 -0.5625 -2.234375q0 -1.234375 0.546875 -2.21875q0.5625 -1.0 1.53125 -1.546875q0.96875 -0.5625 2.171875 -0.5625q1.21875 0 2.171875 0.5625q0.953125 0.546875 1.484375 1.546875q0.546875 0.984375 0.546875 2.265625zm-4.203125 -3.078125q-1.09375 0 -1.84375 0.671875q-0.734375 0.671875 -0.875 1.765625l5.4375 0q-0.125 -1.078125 -0.875 -1.75q-0.734375 -0.6875 -1.84375 -0.6875zm9.177032 -1.296875q1.75 0 2.6875 0.875q0.9375 0.859375 0.9375 2.5625l0 5.125l-1.453125 0l0 -1.125q-0.375 0.59375 -1.09375 0.90625q-0.71875 0.3125 -1.6875 0.3125q-1.421875 0 -2.28125 -0.6875q-0.859375 -0.6875 -0.859375 -1.8125q0 -1.109375 0.8125 -1.78125q0.828125 -0.6875 2.59375 -0.6875l2.4375 0l0 -0.3125q0 -0.984375 -0.578125 -1.515625q-0.578125 -0.53125 -1.6875 -0.53125q-0.765625 0 -1.484375 0.25q-0.71875 0.25 -1.203125 0.671875l-0.640625 -1.15625q0.65625 -0.53125 1.5625 -0.8125q0.90625 -0.28125 1.9375 -0.28125zm-0.359375 7.46875q0.890625 0 1.53125 -0.390625q0.640625 -0.390625 0.921875 -1.109375l0 -1.1875l-2.375 0q-1.953125 0 -1.953125 1.3125q0 0.640625 0.5 1.015625q0.5 0.359375 1.375 0.359375zm9.943024 -9.609375q-1.375 0 -1.375 1.484375l0 0.734375l2.453125 0l0 1.265625l-2.421875 0l0 7.21875l-1.53125 0l0 -7.21875l-1.453125 0l0 -1.265625l1.453125 0l0 -0.75q0 -1.265625 0.734375 -2.0q0.734375 -0.734375 2.0625 -0.734375q0.5 0 0.953125 0.125q0.453125 0.125 0.765625 0.375l-0.453125 1.171875q-0.53125 -0.40625 -1.1875 -0.40625zm11.373901 2.140625q1.609375 0 2.5625 0.9375q0.953125 0.9375 0.953125 2.75l0 4.875l-1.53125 0l0 -4.703125q0 -1.234375 -0.59375 -1.859375q-0.59375 -0.625 -1.6875 -0.625q-1.25 0 -1.984375 0.734375q-0.71875 0.71875 -0.71875 2.078125l0 4.375l-1.53125 0l0 -8.484375l1.46875 0l0 1.28125q0.46875 -0.65625 1.25 -1.0q0.796875 -0.359375 1.8125 -0.359375zm10.053406 8.65625q-1.265625 0 -2.28125 -0.5625q-1.0 -0.5625 -1.578125 -1.53125q-0.5625 -0.984375 -0.5625 -2.234375q0 -1.25 0.5625 -2.234375q0.578125 -0.984375 1.578125 -1.53125q1.015625 -0.5625 2.28125 -0.5625q1.265625 0 2.265625 0.5625q1.0 0.546875 1.5625 1.53125q0.5625 0.984375 0.5625 2.234375q0 1.25 -0.5625 2.234375q-0.5625 0.96875 -1.5625 1.53125q-1.0 0.5625 -2.265625 0.5625zm0 -1.34375q0.8125 0 1.453125 -0.375q0.65625 -0.375 1.015625 -1.046875q0.375 -0.6875 0.375 -1.5625q0 -0.890625 -0.375 -1.5625q-0.359375 -0.6875 -1.015625 -1.046875q-0.640625 -0.375 -1.453125 -0.375q-0.828125 0 -1.484375 0.375q-0.640625 0.359375 -1.015625 1.046875q-0.375 0.671875 -0.375 1.5625q0 0.875 0.375 1.5625q0.375 0.671875 1.015625 1.046875q0.65625 0.375 1.484375 0.375zm14.519409 -10.625l0 11.875l-1.46875 0l0 -1.34375q-0.515625 0.703125 -1.296875 1.078125q-0.78125 0.359375 -1.734375 0.359375q-1.21875 0 -2.203125 -0.53125q-0.96875 -0.546875 -1.53125 -1.53125q-0.546875 -0.984375 -0.546875 -2.265625q0 -1.28125 0.546875 -2.25q0.5625 -0.984375 1.53125 -1.53125q0.984375 -0.546875 2.203125 -0.546875q0.921875 0 1.6875 0.34375q0.765625 0.34375 1.28125 1.015625l0 -4.671875l1.53125 0zm-4.359375 10.625q0.796875 0 1.453125 -0.375q0.65625 -0.375 1.015625 -1.046875q0.375 -0.6875 0.375 -1.5625q0 -0.890625 -0.375 -1.5625q-0.359375 -0.6875 -1.015625 -1.046875q-0.65625 -0.375 -1.453125 -0.375q-0.828125 0 -1.484375 0.375q-0.640625 0.359375 -1.015625 1.046875q-0.375 0.671875 -0.375 1.5625q0 0.875 0.375 1.5625q0.375 0.671875 1.015625 1.046875q0.65625 0.375 1.484375 0.375zm14.943237 -2.9375q0 0.171875 -0.03125 0.453125l-6.890625 0q0.15625 1.125 0.984375 1.8125q0.84375 0.671875 2.09375 0.671875q1.515625 0 2.453125 -1.015625l0.84375 0.984375q-0.578125 0.671875 -1.4375 1.03125q-0.859375 0.34375 -1.90625 0.34375q-1.34375 0 -2.390625 -0.546875q-1.03125 -0.5625 -1.609375 -1.546875q-0.5625 -0.984375 -0.5625 -2.234375q0 -1.234375 0.546875 -2.21875q0.5625 -1.0 1.53125 -1.546875q0.96875 -0.5625 2.171875 -0.5625q1.21875 0 2.171875 0.5625q0.953125 0.546875 1.484375 1.546875q0.546875 0.984375 0.546875 2.265625zm-4.203125 -3.078125q-1.09375 0 -1.84375 0.671875q-0.734375 0.671875 -0.875 1.765625l5.4375 0q-0.125 -1.078125 -0.875 -1.75q-0.734375 -0.6875 -1.84375 -0.6875zm10.861694 -3.9375l1.59375 0l0 9.8125l6.0625 0l0 1.390625l-7.65625 0l0 -11.203125zm11.458862 0l0 11.203125l-1.578125 0l0 -9.8125l-2.53125 0l0 -1.390625l4.109375 0zm10.53656 2.640625q1.75 0 2.6875 0.875q0.9375 0.859375 0.9375 2.5625l0 5.125l-1.453125 0l0 -1.125q-0.375 0.59375 -1.09375 0.90625q-0.71875 0.3125 -1.6875 0.3125q-1.421875 0 -2.28125 -0.6875q-0.859375 -0.6875 -0.859375 -1.8125q0 -1.109375 0.8125 -1.78125q0.828125 -0.6875 2.59375 -0.6875l2.4375 0l0 -0.3125q0 -0.984375 -0.578125 -1.515625q-0.578125 -0.53125 -1.6875 -0.53125q-0.765625 0 -1.484375 0.25q-0.71875 0.25 -1.203125 0.671875l-0.640625 -1.15625q0.65625 -0.53125 1.5625 -0.8125q0.90625 -0.28125 1.9375 -0.28125zm-0.359375 7.46875q0.890625 0 1.53125 -0.390625q0.640625 -0.390625 0.921875 -1.109375l0 -1.1875l-2.375 0q-1.953125 0 -1.953125 1.3125q0 0.640625 0.5 1.015625q0.5 0.359375 1.375 0.359375zm9.271118 1.1875q-1.046875 0 -2.015625 -0.28125q-0.953125 -0.28125 -1.484375 -0.703125l0.640625 -1.21875q0.546875 0.390625 1.34375 0.640625q0.8125 0.234375 1.625 0.234375q2.015625 0 2.015625 -1.15625q0 -0.375 -0.28125 -0.59375q-0.265625 -0.234375 -0.671875 -0.328125q-0.40625 -0.109375 -1.15625 -0.234375q-1.03125 -0.171875 -1.6875 -0.375q-0.640625 -0.203125 -1.109375 -0.703125q-0.453125 -0.5 -0.453125 -1.390625q0 -1.15625 0.953125 -1.84375q0.96875 -0.703125 2.578125 -0.703125q0.859375 0 1.703125 0.21875q0.84375 0.203125 1.390625 0.546875l-0.65625 1.21875q-1.046875 -0.671875 -2.453125 -0.671875q-0.96875 0 -1.484375 0.328125q-0.515625 0.3125 -0.515625 0.84375q0 0.421875 0.28125 0.65625q0.296875 0.234375 0.71875 0.359375q0.421875 0.109375 1.203125 0.25q1.015625 0.171875 1.640625 0.375q0.640625 0.203125 1.078125 0.6875q0.453125 0.46875 0.453125 1.328125q0 1.15625 -0.984375 1.84375q-0.984375 0.671875 -2.671875 0.671875zm14.413818 -8.65625q1.609375 0 2.5625 0.9375q0.953125 0.9375 0.953125 2.75l0 4.875l-1.53125 0l0 -4.703125q0 -1.234375 -0.59375 -1.859375q-0.59375 -0.625 -1.6875 -0.625q-1.25 0 -1.984375 0.734375q-0.71875 0.71875 -0.71875 2.078125l0 4.375l-1.53125 0l0 -8.484375l1.46875 0l0 1.28125q0.46875 -0.65625 1.25 -1.0q0.796875 -0.359375 1.8125 -0.359375zm14.084656 4.375q0 0.171875 -0.03125 0.453125l-6.890625 0q0.15625 1.125 0.984375 1.8125q0.84375 0.671875 2.09375 0.671875q1.515625 0 2.453125 -1.015625l0.84375 0.984375q-0.578125 0.671875 -1.4375 1.03125q-0.859375 0.34375 -1.90625 0.34375q-1.34375 0 -2.390625 -0.546875q-1.03125 -0.5625 -1.609375 -1.546875q-0.5625 -0.984375 -0.5625 -2.234375q0 -1.234375 0.546875 -2.21875q0.5625 -1.0 1.53125 -1.546875q0.96875 -0.5625 2.171875 -0.5625q1.21875 0 2.171875 0.5625q0.953125 0.546875 1.484375 1.546875q0.546875 0.984375 0.546875 2.265625zm-4.203125 -3.078125q-1.09375 0 -1.84375 0.671875q-0.734375 0.671875 -0.875 1.765625l5.4375 0q-0.125 -1.078125 -0.875 -1.75q-0.734375 -0.6875 -1.84375 -0.6875zm18.991394 -1.21875l-3.15625 8.484375l-1.484375 0l-2.4375 -6.4375l-2.484375 6.4375l-1.46875 0l-3.15625 -8.484375l1.453125 0l2.46875 6.75l2.5625 -6.75l1.296875 0l2.515625 6.78125l2.515625 -6.78125l1.375 0zm7.3286743 1.421875q0.40625 -0.734375 1.1875 -1.109375q0.78125 -0.390625 1.90625 -0.390625l0 1.484375q-0.125 -0.015625 -0.359375 -0.015625q-1.234375 0 -1.953125 0.75q-0.71875 0.75 -0.71875 2.125l0 4.21875l-1.53125 0l0 -8.484375l1.46875 0l0 1.421875zm8.539856 7.15625q-1.265625 0 -2.28125 -0.5625q-1.0 -0.5625 -1.578125 -1.53125q-0.5625 -0.984375 -0.5625 -2.234375q0 -1.25 0.5625 -2.234375q0.578125 -0.984375 1.578125 -1.53125q1.015625 -0.5625 2.28125 -0.5625q1.265625 0 2.265625 0.5625q1.0 0.546875 1.5625 1.53125q0.5625 0.984375 0.5625 2.234375q0 1.25 -0.5625 2.234375q-0.5625 0.96875 -1.5625 1.53125q-1.0 0.5625 -2.265625 0.5625zm0 -1.34375q0.8125 0 1.453125 -0.375q0.65625 -0.375 1.015625 -1.046875q0.375 -0.6875 0.375 -1.5625q0 -0.890625 -0.375 -1.5625q-0.359375 -0.6875 -1.015625 -1.046875q-0.640625 -0.375 -1.453125 -0.375q-0.828125 0 -1.484375 0.375q-0.640625 0.359375 -1.015625 1.046875q-0.375 0.671875 -0.375 1.5625q0 0.875 0.375 1.5625q0.375 0.671875 1.015625 1.046875q0.65625 0.375 1.484375 0.375zm10.160034 1.34375q-1.265625 0 -2.28125 -0.5625q-1.0 -0.5625 -1.578125 -1.53125q-0.5625 -0.984375 -0.5625 -2.234375q0 -1.25 0.5625 -2.234375q0.578125 -0.984375 1.578125 -1.53125q1.015625 -0.5625 2.28125 -0.5625q1.265625 0 2.265625 0.5625q1.0 0.546875 1.5625 1.53125q0.5625 0.984375 0.5625 2.234375q0 1.25 -0.5625 2.234375q-0.5625 0.96875 -1.5625 1.53125q-1.0 0.5625 -2.265625 0.5625zm0 -1.34375q0.8125 0 1.453125 -0.375q0.65625 -0.375 1.015625 -1.046875q0.375 -0.6875 0.375 -1.5625q0 -0.890625 -0.375 -1.5625q-0.359375 -0.6875 -1.015625 -1.046875q-0.640625 -0.375 -1.453125 -0.375q-0.828125 0 -1.484375 0.375q-0.640625 0.359375 -1.015625 1.046875q-0.375 0.671875 -0.375 1.5625q0 0.875 0.375 1.5625q0.375 0.671875 1.015625 1.046875q0.65625 0.375 1.484375 0.375zm11.285034 0.75q-0.328125 0.296875 -0.828125 0.453125q-0.5 0.140625 -1.015625 0.140625q-1.28125 0 -1.984375 -0.6875q-0.703125 -0.6875 -0.703125 -1.96875l0 -4.65625l-1.453125 0l0 -1.265625l1.453125 0l0 -1.859375l1.53125 0l0 1.859375l2.421875 0l0 1.265625l-2.421875 0l0 4.59375q0 0.6875 0.34375 1.0625q0.34375 0.359375 0.984375 0.359375q0.703125 0 1.203125 -0.390625l0.46875 1.09375z" fill-rule="nonzero"/><path fill="#000000" fill-opacity="0.0" d="m-0.001312336 122.7955l37.51181 0l0 31.118103l-37.51181 0z" fill-rule="evenodd"/><path fill="#000000" d="m10.951813 136.653l1.875 0l0 11.4375l7.0625 0l0 1.625l-8.9375 0l0 -13.0625zm13.375519 0l0 13.0625l-1.84375 0l0 -11.4375l-2.9375 0l0 -1.625l4.78125 0z" fill-rule="nonzero"/><path fill="#cfe2f3" d="m157.44519 112.424484l0 0c0 -2.8644028 2.322052 -5.186455 5.186447 -5.186455l37.942062 0c1.3755188 0 2.6947174 0.54642487 3.6673737 1.5190735c0.972641 0.9726486 1.5190735 2.2918472 1.5190735 3.6673813l0 20.745193c0 2.8644104 -2.322052 5.1864624 -5.186447 5.1864624l-37.942062 0c-2.8643951 0 -5.186447 -2.322052 -5.186447 -5.1864624z" fill-rule="evenodd"/><path stroke="#666666" stroke-width="1.0" stroke-linejoin="round" stroke-linecap="butt" d="m157.44519 112.424484l0 0c0 -2.8644028 2.322052 -5.186455 5.186447 -5.186455l37.942062 0c1.3755188 0 2.6947174 0.54642487 3.6673737 1.5190735c0.972641 0.9726486 1.5190735 2.2918472 1.5190735 3.6673813l0 20.745193c0 2.8644104 -2.322052 5.1864624 -5.186447 5.1864624l-37.942062 0c-2.8643951 0 -5.186447 -2.322052 -5.186447 -5.1864624z" fill-rule="evenodd"/><path fill="#000000" d="m175.25366 125.77958l-1.40625 1.375l0 2.5624924l-2.90625 0l0 -13.843742l2.90625 0l0 7.84375l4.25 -4.03125l3.484375 0l-4.1875 4.25l4.546875 5.7812424l-3.515625 0l-3.171875 -3.9374924zm13.48584 -4.25q1.25 0 2.265625 0.5q1.03125 0.5 1.625 1.4375q0.609375 0.921875 0.609375 2.125q0 1.3125 -0.65625 2.296875q-0.65625 0.9843674 -1.78125 1.5156174q-1.125 0.53125 -2.515625 0.53125q-2.734375 0 -4.28125 -1.671875q-1.546875 -1.6874924 -1.546875 -4.7968674q0 -2.21875 0.828125 -3.796875q0.84375 -1.59375 2.34375 -2.40625q1.5 -0.828125 3.484375 -0.828125q1.046875 0 2.0 0.234375q0.96875 0.234375 1.640625 0.65625l-1.125 2.21875q-0.96875 -0.65625 -2.4375 -0.65625q-1.671875 0 -2.640625 0.984375q-0.96875 0.96875 -1.046875 2.8125q1.15625 -1.15625 3.234375 -1.15625zm-0.609375 6.15625q0.96875 0 1.5625 -0.515625q0.609375 -0.53125 0.609375 -1.421875q0 -0.90625 -0.609375 -1.4375q-0.59375 -0.53125 -1.609375 -0.53125q-0.984375 0 -1.625 0.5625q-0.625 0.546875 -0.625 1.40625q0 0.859375 0.609375 1.40625q0.609375 0.53125 1.6875 0.53125z" fill-rule="nonzero"/><path fill="#93c47d" d="m157.4443 143.53703l0 0c0 -2.8644104 2.3220673 -5.1864624 5.1864624 -5.1864624l37.942047 0c1.375534 0 2.6947327 0.5464325 3.6673737 1.5190735c0.97265625 0.97265625 1.5190887 2.2918549 1.5190887 3.667389l0 20.745193c0 2.8643951 -2.3220673 5.1864624 -5.1864624 5.1864624l-37.942047 0c-2.8643951 0 -5.1864624 -2.3220673 -5.1864624 -5.1864624z" fill-rule="evenodd"/><path stroke="#000000" stroke-width="1.0" stroke-linejoin="round" stroke-linecap="butt" d="m157.4443 143.53703l0 0c0 -2.8644104 2.3220673 -5.1864624 5.1864624 -5.1864624l37.942047 0c1.375534 0 2.6947327 0.5464325 3.6673737 1.5190735c0.97265625 0.97265625 1.5190887 2.2918549 1.5190887 3.667389l0 20.745193c0 2.8643951 -2.3220673 5.1864624 -5.1864624 5.1864624l-37.942047 0c-2.8643951 0 -5.1864624 -2.3220673 -5.1864624 -5.1864624z" fill-rule="evenodd"/><path fill="#000000" d="m181.35674 150.79837l-4.234375 10.03125l-3.015625 0l-4.21875 -10.03125l3.015625 0l2.78125 6.828125l2.859375 -6.828125l2.8125 0zm6.9342194 1.84375q1.25 0 2.265625 0.5q1.03125 0.5 1.625 1.4375q0.609375 0.921875 0.609375 2.125q0 1.3125 -0.65625 2.296875q-0.65625 0.984375 -1.78125 1.515625q-1.125 0.53125 -2.515625 0.53125q-2.734375 0 -4.28125 -1.671875q-1.546875 -1.6875 -1.546875 -4.796875q0 -2.21875 0.828125 -3.796875q0.84375 -1.59375 2.34375 -2.40625q1.5 -0.828125 3.484375 -0.828125q1.046875 0 2.0 0.234375q0.96875 0.234375 1.640625 0.65625l-1.125 2.21875q-0.96875 -0.65625 -2.4375 -0.65625q-1.671875 0 -2.640625 0.984375q-0.96875 0.96875 -1.046875 2.8125q1.15625 -1.15625 3.234375 -1.15625zm-0.609375 6.15625q0.96875 0 1.5625 -0.515625q0.609375 -0.53125 0.609375 -1.421875q0 -0.90625 -0.609375 -1.4375q-0.59375 -0.53125 -1.609375 -0.53125q-0.984375 0 -1.625 0.5625q-0.625 0.546875 -0.625 1.40625q0 0.859375 0.609375 1.40625q0.609375 0.53125 1.6875 0.53125z" fill-rule="nonzero"/><path fill="#cfe2f3" d="m205.76102 112.424484l0 0c0 -2.8644028 2.3220673 -5.186455 5.1864624 -5.186455l37.942047 0c1.375534 0 2.6947327 0.54642487 3.6673737 1.5190735c0.97265625 0.9726486 1.5190887 2.2918472 1.5190887 3.6673813l0 20.745193c0 2.8644104 -2.3220673 5.1864624 -5.1864624 5.1864624l-37.942047 0c-2.8643951 0 -5.1864624 -2.322052 -5.1864624 -5.1864624z" fill-rule="evenodd"/><path stroke="#000000" stroke-width="1.0" stroke-linejoin="round" stroke-linecap="butt" d="m205.76102 112.424484l0 0c0 -2.8644028 2.3220673 -5.186455 5.1864624 -5.186455l37.942047 0c1.375534 0 2.6947327 0.54642487 3.6673737 1.5190735c0.97265625 0.9726486 1.5190887 2.2918472 1.5190887 3.6673813l0 20.745193c0 2.8644104 -2.3220673 5.1864624 -5.1864624 5.1864624l-37.942047 0c-2.8643951 0 -5.1864624 -2.322052 -5.1864624 -5.1864624z" fill-rule="evenodd"/><path fill="#000000" d="m223.60675 125.77958l-1.40625 1.375l0 2.5624924l-2.90625 0l0 -13.843742l2.90625 0l0 7.84375l4.25 -4.03125l3.484375 0l-4.1875 4.25l4.546875 5.7812424l-3.515625 0l-3.171875 -3.9374924zm17.666 -9.125l0 1.96875l-4.859375 11.093742l-3.28125 0l4.6875 -10.593742l-4.328125 0l0 2.125l-2.6875 0l0 -4.59375l10.46875 0z" fill-rule="nonzero"/><path fill="#93c47d" d="m205.76015 143.5341l0 0c0 -2.8643951 2.322052 -5.1864624 5.186447 -5.1864624l37.942062 0c1.375534 0 2.6947174 0.5464325 3.6673737 1.5190887c0.972641 0.972641 1.5190735 2.2918396 1.5190735 3.6673737l0 20.745193c0 2.8644104 -2.322052 5.1864624 -5.186447 5.1864624l-37.942062 0c-2.8643951 0 -5.186447 -2.322052 -5.186447 -5.1864624z" fill-rule="evenodd"/><path stroke="#000000" stroke-width="1.0" stroke-linejoin="round" stroke-linecap="butt" d="m205.76015 143.5341l0 0c0 -2.8643951 2.322052 -5.1864624 5.186447 -5.1864624l37.942062 0c1.375534 0 2.6947174 0.5464325 3.6673737 1.5190887c0.972641 0.972641 1.5190735 2.2918396 1.5190735 3.6673737l0 20.745193c0 2.8644104 -2.322052 5.1864624 -5.186447 5.1864624l-37.942062 0c-2.8643951 0 -5.186447 -2.322052 -5.186447 -5.1864624z" fill-rule="evenodd"/><path fill="#000000" d="m229.72847 150.79546l-4.234375 10.03125l-3.015625 0l-4.21875 -10.03125l3.015625 0l2.78125 6.828125l2.859375 -6.828125l2.8125 0zm11.077057 -3.03125l0 1.96875l-4.859375 11.09375l-3.28125 0l4.6875 -10.59375l-4.328125 0l0 2.125l-2.6875 0l0 -4.59375l10.46875 0z" fill-rule="nonzero"/><path fill="#cfe2f3" d="m254.07599 112.424484l0 0c0 -2.8644028 2.322052 -5.186455 5.1864624 -5.186455l37.942047 0c1.3755188 0 2.6947327 0.54642487 3.6673584 1.5190735c0.97265625 0.9726486 1.5190735 2.2918472 1.5190735 3.6673813l0 20.745193c0 2.8644104 -2.322052 5.1864624 -5.186432 5.1864624l-37.942047 0c-2.8644104 0 -5.1864624 -2.322052 -5.1864624 -5.1864624z" fill-rule="evenodd"/><path stroke="#000000" stroke-width="1.0" stroke-linejoin="round" stroke-linecap="butt" d="m254.07599 112.424484l0 0c0 -2.8644028 2.322052 -5.186455 5.1864624 -5.186455l37.942047 0c1.3755188 0 2.6947327 0.54642487 3.6673584 1.5190735c0.97265625 0.9726486 1.5190735 2.2918472 1.5190735 3.6673813l0 20.745193c0 2.8644104 -2.322052 5.1864624 -5.186432 5.1864624l-37.942047 0c-2.8644104 0 -5.1864624 -2.322052 -5.1864624 -5.1864624z" fill-rule="evenodd"/><path fill="#000000" d="m271.67926 125.77958l-1.40625 1.375l0 2.5624924l-2.90625 0l0 -13.843742l2.90625 0l0 7.84375l4.25 -4.03125l3.484375 0l-4.1875 4.25l4.546875 5.7812424l-3.515625 0l-3.171875 -3.9374924zm16.107788 -2.921875q0.984375 0.484375 1.484375 1.265625q0.515625 0.78125 0.515625 1.8125q0 1.203125 -0.6875 2.1093674q-0.6875 0.90625 -1.9375 1.40625q-1.25 0.484375 -2.890625 0.484375q-1.640625 0 -2.890625 -0.484375q-1.234375 -0.5 -1.921875 -1.40625q-0.671875 -0.9062424 -0.671875 -2.1093674q0 -1.03125 0.5 -1.8125q0.515625 -0.78125 1.46875 -1.265625q-0.71875 -0.453125 -1.109375 -1.125q-0.390625 -0.6875 -0.390625 -1.5625q0 -1.140625 0.625 -1.984375q0.640625 -0.84375 1.78125 -1.296875q1.140625 -0.453125 2.609375 -0.453125q1.484375 0 2.625 0.453125q1.15625 0.453125 1.78125 1.296875q0.640625 0.84375 0.640625 1.984375q0 0.875 -0.390625 1.5625q-0.390625 0.671875 -1.140625 1.125zm-3.515625 -4.203125q-0.921875 0 -1.46875 0.4375q-0.546875 0.4375 -0.546875 1.203125q0 0.75 0.53125 1.1875q0.546875 0.421875 1.484375 0.421875q0.9375 0 1.484375 -0.421875q0.5625 -0.4375 0.5625 -1.1875q0 -0.765625 -0.5625 -1.203125q-0.546875 -0.4375 -1.484375 -0.4375zm0 9.0625q1.140625 0 1.796875 -0.5q0.65625 -0.515625 0.65625 -1.375q0 -0.859375 -0.65625 -1.359375q-0.65625 -0.515625 -1.796875 -0.515625q-1.125 0 -1.78125 0.515625q-0.640625 0.5 -0.640625 1.359375q0 0.875 0.640625 1.375q0.65625 0.5 1.78125 0.5z" fill-rule="nonzero"/><path fill="#93c47d" d="m254.0751 143.5341l0 0c0 -2.8643951 2.322052 -5.1864624 5.1864624 -5.1864624l37.942047 0c1.3755188 0 2.6947327 0.5464325 3.667389 1.5190887c0.97262573 0.972641 1.5190735 2.2918396 1.5190735 3.6673737l0 20.745193c0 2.8644104 -2.322052 5.1864624 -5.1864624 5.1864624l-37.942047 0c-2.8644104 0 -5.1864624 -2.322052 -5.1864624 -5.1864624z" fill-rule="evenodd"/><path stroke="#000000" stroke-width="1.0" stroke-linejoin="round" stroke-linecap="butt" d="m254.0751 143.5341l0 0c0 -2.8643951 2.322052 -5.1864624 5.1864624 -5.1864624l37.942047 0c1.3755188 0 2.6947327 0.5464325 3.667389 1.5190887c0.97262573 0.972641 1.5190735 2.2918396 1.5190735 3.6673737l0 20.745193c0 2.8644104 -2.322052 5.1864624 -5.1864624 5.1864624l-37.942047 0c-2.8644104 0 -5.1864624 -2.322052 -5.1864624 -5.1864624z" fill-rule="evenodd"/><path fill="#000000" d="m277.77298 150.79546l-4.234375 10.03125l-3.015625 0l-4.21875 -10.03125l3.015625 0l2.78125 6.828125l2.859375 -6.828125l2.8125 0zm9.574829 3.171875q0.984375 0.484375 1.484375 1.265625q0.515625 0.78125 0.515625 1.8125q0 1.203125 -0.6875 2.109375q-0.6875 0.90625 -1.9375 1.40625q-1.25 0.484375 -2.890625 0.484375q-1.640625 0 -2.890625 -0.484375q-1.234375 -0.5 -1.921875 -1.40625q-0.671875 -0.90625 -0.671875 -2.109375q0 -1.03125 0.5 -1.8125q0.515625 -0.78125 1.46875 -1.265625q-0.71875 -0.453125 -1.109375 -1.125q-0.390625 -0.6875 -0.390625 -1.5625q0 -1.140625 0.625 -1.984375q0.640625 -0.84375 1.78125 -1.296875q1.140625 -0.453125 2.609375 -0.453125q1.484375 0 2.625 0.453125q1.15625 0.453125 1.78125 1.296875q0.640625 0.84375 0.640625 1.984375q0 0.875 -0.390625 1.5625q-0.390625 0.671875 -1.140625 1.125zm-3.515625 -4.203125q-0.921875 0 -1.46875 0.4375q-0.546875 0.4375 -0.546875 1.203125q0 0.75 0.53125 1.1875q0.546875 0.421875 1.484375 0.421875q0.9375 0 1.484375 -0.421875q0.5625 -0.4375 0.5625 -1.1875q0 -0.765625 -0.5625 -1.203125q-0.546875 -0.4375 -1.484375 -0.4375zm0 9.0625q1.140625 0 1.796875 -0.5q0.65625 -0.515625 0.65625 -1.375q0 -0.859375 -0.65625 -1.359375q-0.65625 -0.515625 -1.796875 -0.515625q-1.125 0 -1.78125 0.515625q-0.640625 0.5 -0.640625 1.359375q0 0.875 0.640625 1.375q0.65625 0.5 1.78125 0.5z" fill-rule="nonzero"/><path fill="#cfe2f3" d="m302.39093 112.424484l0 0c0 -2.8644028 2.3220825 -5.186455 5.1864624 -5.186455l37.942047 0c1.3755493 0 2.6947327 0.54642487 3.667389 1.5190735c0.97265625 0.9726486 1.5190735 2.2918472 1.5190735 3.6673813l0 20.745193c0 2.8644104 -2.322052 5.1864624 -5.1864624 5.1864624l-37.942047 0c-2.86438 0 -5.1864624 -2.322052 -5.1864624 -5.1864624z" fill-rule="evenodd"/><path stroke="#000000" stroke-width="1.0" stroke-linejoin="round" stroke-linecap="butt" d="m302.39093 112.424484l0 0c0 -2.8644028 2.3220825 -5.186455 5.1864624 -5.186455l37.942047 0c1.3755493 0 2.6947327 0.54642487 3.667389 1.5190735c0.97265625 0.9726486 1.5190735 2.2918472 1.5190735 3.6673813l0 20.745193c0 2.8644104 -2.322052 5.1864624 -5.1864624 5.1864624l-37.942047 0c-2.86438 0 -5.1864624 -2.322052 -5.1864624 -5.1864624z" fill-rule="evenodd"/><path fill="#000000" d="m320.01276 125.77958l-1.40625 1.375l0 2.5624924l-2.90625 0l0 -13.843742l2.90625 0l0 7.84375l4.25 -4.03125l3.484375 0l-4.1875 4.25l4.546875 5.7812424l-3.515625 0l-3.171875 -3.9374924zm12.156036 -9.34375q2.75 0 4.296875 1.671875q1.546875 1.671875 1.546875 4.796875q0 2.21875 -0.828125 3.8125q-0.828125 1.5781174 -2.34375 2.4062424q-1.515625 0.8125 -3.484375 0.8125q-1.046875 0 -2.0 -0.234375q-0.953125 -0.234375 -1.625 -0.65625l1.125 -2.2187424q0.953125 0.65625 2.4375 0.65625q1.65625 0 2.625 -0.984375q0.984375 -0.984375 1.046875 -2.828125q-1.171875 1.171875 -3.234375 1.171875q-1.25 0 -2.28125 -0.5q-1.03125 -0.5 -1.625 -1.421875q-0.59375 -0.921875 -0.59375 -2.140625q0 -1.3125 0.640625 -2.296875q0.65625 -0.984375 1.78125 -1.515625q1.140625 -0.53125 2.515625 -0.53125zm0.234375 6.15625q0.984375 0 1.609375 -0.546875q0.625 -0.5625 0.625 -1.40625q0 -0.859375 -0.609375 -1.40625q-0.609375 -0.546875 -1.671875 -0.546875q-0.96875 0 -1.578125 0.53125q-0.59375 0.515625 -0.59375 1.421875q0 0.890625 0.59375 1.421875q0.609375 0.53125 1.625 0.53125z" fill-rule="nonzero"/><path fill="#93c47d" d="m302.39008 143.5341l0 0c0 -2.8643951 2.322052 -5.1864624 5.186432 -5.1864624l37.942078 0c1.3755188 0 2.6947021 0.5464325 3.6673584 1.5190887c0.97265625 0.972641 1.5190735 2.2918396 1.5190735 3.6673737l0 20.745193c0 2.8644104 -2.322052 5.1864624 -5.186432 5.1864624l-37.942078 0c-2.86438 0 -5.186432 -2.322052 -5.186432 -5.1864624z" fill-rule="evenodd"/><path stroke="#000000" stroke-width="1.0" stroke-linejoin="round" stroke-linecap="butt" d="m302.39008 143.5341l0 0c0 -2.8643951 2.322052 -5.1864624 5.186432 -5.1864624l37.942078 0c1.3755188 0 2.6947021 0.5464325 3.6673584 1.5190887c0.97265625 0.972641 1.5190735 2.2918396 1.5190735 3.6673737l0 20.745193c0 2.8644104 -2.322052 5.1864624 -5.186432 5.1864624l-37.942078 0c-2.86438 0 -5.186432 -2.322052 -5.186432 -5.1864624z" fill-rule="evenodd"/><path fill="#000000" d="m326.0598 150.79546l-4.234375 10.03125l-3.015625 0l-4.21875 -10.03125l3.015625 0l2.78125 6.828125l2.859375 -6.828125l2.8125 0zm5.7164307 -3.25q2.75 0 4.296875 1.671875q1.546875 1.671875 1.546875 4.796875q0 2.21875 -0.828125 3.8125q-0.828125 1.578125 -2.34375 2.40625q-1.515625 0.8125 -3.484375 0.8125q-1.046875 0 -2.0 -0.234375q-0.953125 -0.234375 -1.625 -0.65625l1.125 -2.21875q0.953125 0.65625 2.4375 0.65625q1.65625 0 2.625 -0.984375q0.984375 -0.984375 1.046875 -2.828125q-1.171875 1.171875 -3.234375 1.171875q-1.25 0 -2.28125 -0.5q-1.03125 -0.5 -1.625 -1.421875q-0.59375 -0.921875 -0.59375 -2.140625q0 -1.3125 0.640625 -2.296875q0.65625 -0.984375 1.78125 -1.515625q1.140625 -0.53125 2.515625 -0.53125zm0.234375 6.15625q0.984375 0 1.609375 -0.546875q0.625 -0.5625 0.625 -1.40625q0 -0.859375 -0.609375 -1.40625q-0.609375 -0.546875 -1.671875 -0.546875q-0.96875 0 -1.578125 0.53125q-0.59375 0.515625 -0.59375 1.421875q0 0.890625 0.59375 1.421875q0.609375 0.53125 1.625 0.53125z" fill-rule="nonzero"/><path fill="#000000" fill-opacity="0.0" d="m144.57086 109.08428l0 0c0 -8.082939 6.5525208 -14.63546 14.635468 -14.63546l188.1149 0c3.8815613 0 7.6041565 1.5419464 10.348846 4.286621c2.7446594 2.7446823 4.286621 6.46727 4.286621 10.348839l0 58.540092c0 8.082947 -6.5525208 14.635468 -14.635468 14.635468l-188.1149 0l0 0c-8.082947 0 -14.635468 -6.5525208 -14.635468 -14.635468z" fill-rule="evenodd"/><path stroke="#6aa84f" stroke-width="2.0" stroke-linejoin="round" stroke-linecap="butt" stroke-dasharray="8.0,6.0" d="m144.57086 109.08428l0 0c0 -8.082939 6.5525208 -14.63546 14.635468 -14.63546l188.1149 0c3.8815613 0 7.6041565 1.5419464 10.348846 4.286621c2.7446594 2.7446823 4.286621 6.46727 4.286621 10.348839l0 58.540092c0 8.082947 -6.5525208 14.635468 -14.635468 14.635468l-188.1149 0l0 0c-8.082947 0 -14.635468 -6.5525208 -14.635468 -14.635468z" fill-rule="evenodd"/><path fill="#cfe2f3" d="m252.05592 16.43074l0 0c0 -2.8644009 2.3220673 -5.1864557 5.186447 -5.1864557l37.942078 0c1.3755188 0 2.6947021 0.5464277 3.6673584 1.5190773c0.97265625 0.9726486 1.5190735 2.2918444 1.5190735 3.6673784l0 20.745197c0 2.8644028 -2.322052 5.1864586 -5.186432 5.1864586l-37.942078 0c-2.86438 0 -5.186447 -2.3220558 -5.186447 -5.1864586z" fill-rule="evenodd"/><path stroke="#666666" stroke-width="1.0" stroke-linejoin="round" stroke-linecap="butt" d="m252.05592 16.43074l0 0c0 -2.8644009 2.3220673 -5.1864557 5.186447 -5.1864557l37.942078 0c1.3755188 0 2.6947021 0.5464277 3.6673584 1.5190773c0.97265625 0.9726486 1.5190735 2.2918444 1.5190735 3.6673784l0 20.745197c0 2.8644028 -2.322052 5.1864586 -5.186432 5.1864586l-37.942078 0c-2.86438 0 -5.186447 -2.3220558 -5.186447 -5.1864586z" fill-rule="evenodd"/><path fill="#000000" d="m271.93515 29.785837l-1.40625 1.375l0 2.562498l-2.90625 0l0 -13.843748l2.90625 0l0 7.84375l4.25 -4.03125l3.484375 0l-4.1875 4.25l4.546875 5.781248l-3.515625 0l-3.171875 -3.937498zm12.665161 -9.125l0 13.062498l-3.015625 0l0 -10.640623l-2.625 0l0 -2.421875l5.640625 0z" fill-rule="nonzero"/><path fill="#ff9900" d="m252.05511 44.787243l0 0c0 -1.3481216 1.0928802 -2.4409904 2.4409943 -2.4409904l43.43297 0c0.6473999 0 1.26828 0.25717545 1.7260437 0.71495056c0.4577942 0.45777512 0.7149658 1.0786514 0.7149658 1.7260399l0 9.763683c0 1.3481255 -1.092865 2.4409943 -2.4410095 2.4409943l-43.43297 0c-1.348114 0 -2.4409943 -1.0928688 -2.4409943 -2.4409943z" fill-rule="evenodd"/><path stroke="#000000" stroke-width="1.0" stroke-linejoin="round" stroke-linecap="butt" d="m252.05511 44.787243l0 0c0 -1.3481216 1.0928802 -2.4409904 2.4409943 -2.4409904l43.43297 0c0.6473999 0 1.26828 0.25717545 1.7260437 0.71495056c0.4577942 0.45777512 0.7149658 1.0786514 0.7149658 1.7260399l0 9.763683c0 1.3481255 -1.092865 2.4409943 -2.4410095 2.4409943l-43.43297 0c-1.348114 0 -2.4409943 -1.0928688 -2.4409943 -2.4409943z" fill-rule="evenodd"/><path fill="#000000" fill-opacity="0.0" d="m239.47244 11.815197l0 0c0 -6.5260777 5.290436 -11.816509 11.816513 -11.816509l49.847305 0l0 0c3.1339111 0 6.139496 1.2449502 8.35553 3.4609754c2.2160034 2.216025 3.460968 5.2216005 3.460968 8.355534l0 47.264618c0 6.526081 -5.290436 11.816509 -11.816498 11.816509l-49.847305 0c-6.5260773 0 -11.816513 -5.290428 -11.816513 -11.816509z" fill-rule="evenodd"/><path stroke="#cc0000" stroke-width="2.0" stroke-linejoin="round" stroke-linecap="butt" stroke-dasharray="8.0,6.0" d="m239.47244 11.815197l0 0c0 -6.5260777 5.290436 -11.816509 11.816513 -11.816509l49.847305 0l0 0c3.1339111 0 6.139496 1.2449502 8.35553 3.4609754c2.2160034 2.216025 3.460968 5.2216005 3.460968 8.355534l0 47.264618c0 6.526081 -5.290436 11.816509 -11.816498 11.816509l-49.847305 0c-6.5260773 0 -11.816513 -5.290428 -11.816513 -11.816509z" fill-rule="evenodd"/><path fill="#000000" fill-opacity="0.0" d="m133.11285 21.190289l86.80316 0l0 38.362206l-86.80316 0z" fill-rule="evenodd"/><path fill="#000000" fill-opacity="0.0" d="m142.11285 30.051033l44.98024 0l0 22.741974l-44.98024 0l0 -22.741974z" fill-rule="nonzero"/><path fill="#cc0000" d="m152.80035 48.110287l-2.8125 -4.015625q-0.53125 0.046875 -0.828125 0.046875l-3.21875 0l0 3.96875l-1.875 0l0 -13.0625l5.09375 0q2.546875 0 4.0 1.21875q1.453125 1.203125 1.453125 3.34375q0 1.5 -0.75 2.5625q-0.75 1.0625 -2.125 1.546875l3.09375 4.390625l-2.03125 0zm-3.6875 -5.5625q1.765625 0 2.703125 -0.765625q0.9375 -0.765625 0.9375 -2.171875q0 -1.421875 -0.9375 -2.171875q-0.9375 -0.765625 -2.703125 -0.765625l-3.171875 0l0 5.875l3.171875 0zm12.500595 5.671875q-1.484375 0 -2.65625 -0.640625q-1.171875 -0.65625 -1.84375 -1.796875q-0.65625 -1.15625 -0.65625 -2.609375q0 -1.46875 0.65625 -2.609375q0.671875 -1.140625 1.84375 -1.78125q1.171875 -0.65625 2.65625 -0.65625q1.46875 0 2.625 0.65625q1.171875 0.640625 1.828125 1.78125q0.671875 1.140625 0.671875 2.609375q0 1.453125 -0.671875 2.609375q-0.65625 1.140625 -1.828125 1.796875q-1.15625 0.640625 -2.625 0.640625zm0 -1.5625q0.953125 0 1.703125 -0.4375q0.75 -0.4375 1.171875 -1.234375q0.4375 -0.796875 0.4375 -1.8125q0 -1.03125 -0.4375 -1.828125q-0.421875 -0.796875 -1.171875 -1.21875q-0.75 -0.421875 -1.703125 -0.421875q-0.953125 0 -1.71875 0.421875q-0.75 0.421875 -1.1875 1.21875q-0.4375 0.796875 -0.4375 1.828125q0 1.015625 0.4375 1.8125q0.4375 0.796875 1.1875 1.234375q0.765625 0.4375 1.71875 0.4375zm11.846725 1.5625q-1.484375 0 -2.65625 -0.640625q-1.171875 -0.65625 -1.84375 -1.796875q-0.65625 -1.15625 -0.65625 -2.609375q0 -1.46875 0.65625 -2.609375q0.671875 -1.140625 1.84375 -1.78125q1.171875 -0.65625 2.65625 -0.65625q1.46875 0 2.625 0.65625q1.171875 0.640625 1.828125 1.78125q0.671875 1.140625 0.671875 2.609375q0 1.453125 -0.671875 2.609375q-0.65625 1.140625 -1.828125 1.796875q-1.15625 0.640625 -2.625 0.640625zm0 -1.5625q0.953125 0 1.703125 -0.4375q0.75 -0.4375 1.171875 -1.234375q0.4375 -0.796875 0.4375 -1.8125q0 -1.03125 -0.4375 -1.828125q-0.421875 -0.796875 -1.171875 -1.21875q-0.75 -0.421875 -1.703125 -0.421875q-0.953125 0 -1.71875 0.421875q-0.75 0.421875 -1.1875 1.21875q-0.4375 0.796875 -0.4375 1.828125q0 1.015625 0.4375 1.8125q0.4375 0.796875 1.1875 1.234375q0.765625 0.4375 1.71875 0.4375zm13.159225 0.875q-0.390625 0.328125 -0.96875 0.515625q-0.578125 0.171875 -1.1875 0.171875q-1.5 0 -2.328125 -0.796875q-0.8125 -0.8125 -0.8125 -2.296875l0 -5.421875l-1.671875 0l0 -1.484375l1.671875 0l0 -2.15625l1.796875 0l0 2.15625l2.828125 0l0 1.484375l-2.828125 0l0 5.34375q0 0.8125 0.390625 1.234375q0.40625 0.421875 1.15625 0.421875q0.828125 0 1.40625 -0.453125l0.546875 1.28125z" fill-rule="nonzero"/><path fill="#000000" fill-opacity="0.0" d="m187.0931 30.051033l0 0l0 22.741974l0 0l0 -22.741974z" fill-rule="nonzero"/><path fill="#cc0000" d="m142.11285 41.670288l44.98024 0l0 1.6800003l-44.98024 0l0 -1.6800003z" fill-rule="nonzero"/></g></svg>